<?xml version="1.0" encoding="iso-8859-1"?>
<!-- Generator: Adobe Illustrator 19.0.0, SVG Export Plug-In . SVG Version: 6.00 Build 0)  -->
<svg xmlns="http://www.w3.org/2000/svg" xmlns:xlink="http://www.w3.org/1999/xlink" version="1.1" id="Layer_1" x="0px" y="0px" viewBox="0 0 512.001 512.001" style="enable-background:new 0 0 512.001 512.001;" xml:space="preserve" width="512px" height="512px">
<g>
	<g>
		<path d="M511.538,253.382c2.841-38.001-7.451-76.388-29.765-111.009c-2.523-3.917-7.747-5.047-11.66-2.521    c-3.917,2.523-5.045,7.744-2.521,11.66c20.309,31.512,29.686,66.302,27.12,100.612c-2.925,39.1-20.863,76.963-53.329,112.584    h-25.716c-3.76-2.774-13.04-10.481-22.411-24.879c-0.884-1.534-7.091-12.442-13.194-26.541    c-8.463-19.548-12.793-36.059-12.52-47.743c0.109-4.659-3.58-8.522-8.237-8.631c-4.696-0.102-8.523,3.581-8.631,8.237    c-0.53,22.774,12.079,52.127,20.601,69.261c-87.584-14.023-167.739-125.097-168.583-126.281c-0.041-0.056-0.083-0.115-0.125-0.17    c-1.649-2.198-4.257-3.497-7.013-3.37c-2.747,0.086-5.28,1.505-6.788,3.804c-9.726,14.823-26.091,23.672-43.775,23.672    c-6.998,0-13.672-1.39-19.779-3.893c-0.29-0.118-0.579-0.236-0.867-0.36c-0.675-0.291-1.346-0.591-2.007-0.909    c-0.006-0.002-0.011-0.004-0.016-0.008c-8.373-4.042-15.511-10.248-20.687-17.888c-0.012-0.019-0.026-0.037-0.038-0.056    c-5.639-8.348-8.934-18.404-8.934-29.215c0-28.854,23.474-52.328,52.328-52.328c5.596,0,11.13,0.893,16.448,2.653    c2.959,0.98,6.217,0.249,8.473-1.903c28.988-27.64,88.457-72.991,161.135-66.108c40.356,3.817,85.372,28.52,117.477,64.469    c3.102,3.473,8.434,3.776,11.912,0.673c3.475-3.103,3.776-8.436,0.673-11.912c-35.353-39.585-83.38-65.764-128.474-70.03    c-76.417-7.233-138.585,37.583-170.815,67.362c-5.499-1.381-11.14-2.079-16.83-2.079c-38.157,0-69.2,31.044-69.2,69.2    c0,11.745,2.95,22.811,8.135,32.51C66.971,233.668,5.086,319.618,0.008,434.406c-0.182,4.117,2.638,7.764,6.67,8.623    c0.589,0.125,1.179,0.187,1.761,0.187c3.403,0,6.552-2.069,7.844-5.342c0.267-0.678,27.151-68.462,63.246-128.728    c2.394-3.998,1.094-9.177-2.902-11.572c-3.997-2.394-9.177-1.094-11.572,2.903c-15.633,26.102-29.562,53.563-40.437,76.578    c8.829-39.883,23.411-73.494,36.041-97.467c13.087-24.842,26.001-43.169,33.44-52.957c4.373,4.757,9.373,8.858,14.883,12.209    c-9.129,10.446-19.713,24.31-29.692,38.984c-2.621,3.854-1.621,9.101,2.232,11.721c3.853,2.62,9.1,1.621,11.721-2.232    c10.983-16.151,22.617-31.159,31.943-41.275c6.278,1.878,12.922,2.902,19.802,2.902c19.458,0,37.704-8.094,50.689-22.097    c9.355,11.973,27.92,34.321,52.572,57.052c10.66,9.829,21.22,18.604,31.669,26.342c4.911,12.534,20.466,50.547,34.127,65.854    v44.83c-12.984,3.347-40.824,12.595-56.277,33.092c-1.926,2.554-2.241,5.98-0.813,8.841c1.426,2.864,4.351,4.672,7.55,4.672    h89.832h148.55c3.199,0,6.122-1.809,7.55-4.672c1.429-2.863,1.112-6.287-0.813-8.841c-15.452-20.498-43.293-29.745-56.277-33.092    v-44.31C488.729,337.982,508.31,296.539,511.538,253.382z M363.516,380.322c1.415-0.868,2.577-2.143,3.287-3.72l10.951-24.364    c1.237,0.11,2.472,0.206,3.704,0.28c8.751,12.602,17.286,20.375,22.421,24.413v43.987c-5.028,1.296-12.286,3.482-20.188,6.859    c-7.888-3.363-15.149-5.549-20.175-6.849V380.322z M305.289,327.094c18.833,11.057,37.251,18.56,55.169,22.467l-6.807,15.146    h-27.157C322.132,359.661,314.433,347.244,305.289,327.094z M359.239,442.118c-0.002,0.002-0.005,0.005-0.008,0.006    c-0.596,0.483-1.18,0.97-1.754,1.462c-0.038,0.033-0.075,0.065-0.114,0.098c-0.541,0.467-1.071,0.937-1.592,1.414    c-0.076,0.07-0.153,0.139-0.228,0.209c-0.483,0.445-0.956,0.895-1.422,1.349c-0.11,0.108-0.222,0.215-0.332,0.323    c-0.43,0.424-0.849,0.852-1.263,1.282c-0.137,0.143-0.276,0.285-0.412,0.427c-0.388,0.412-0.767,0.827-1.142,1.244    c-0.148,0.165-0.3,0.33-0.447,0.497c-0.066,0.075-0.137,0.15-0.204,0.226h-63.96c16.991-10.873,37.325-14.642,37.591-14.69    c4.029-0.713,6.965-4.215,6.965-8.307v-46.078h15.725v46.078c0,4.091,2.934,7.591,6.962,8.307    c0.072,0.012,4.218,0.764,10.343,2.602C362.305,439.716,360.741,440.903,359.239,442.118z M481.031,450.654H376.225    c3.327-2.126,6.998-4.126,11.017-5.985c0.025-0.011,0.046-0.027,0.071-0.039c13.645-6.284,26.266-8.627,26.474-8.666    c4.029-0.713,6.965-4.215,6.965-8.307v-46.078h15.724v46.078c0,4.084,2.935,7.584,6.956,8.306    C443.703,436.012,464.041,439.782,481.031,450.654z" fill="#FFFFFF"/>
	</g>
</g>
<g>
	<g>
		<path d="M142.398,177.234c-5.462,0-9.905,4.436-9.905,9.887c0,5.452,4.443,9.887,9.905,9.887c5.462,0,9.906-4.435,9.906-9.887    S147.86,177.234,142.398,177.234z" fill="#FFFFFF"/>
	</g>
</g>
<g>
</g>
<g>
</g>
<g>
</g>
<g>
</g>
<g>
</g>
<g>
</g>
<g>
</g>
<g>
</g>
<g>
</g>
<g>
</g>
<g>
</g>
<g>
</g>
<g>
</g>
<g>
</g>
<g>
</g>
</svg>
