<?xml version="1.0" encoding="utf-8"?>
<!-- Generator: Adobe Illustrator 23.0.3, SVG Export Plug-In . SVG Version: 6.00 Build 0)  -->
<svg version="1.1" id="admin" xmlns="http://www.w3.org/2000/svg" xmlns:xlink="http://www.w3.org/1999/xlink" x="0px" y="0px"
	 viewBox="0 0 175 197" style="enable-background:new 0 0 175 197;" xml:space="preserve">
<style type="text/css">
	.st0{fill:#F9E7BF;}
	.st1{fill:#F5D8BC;}
	.st2{fill:#57433F;}
	.st3{fill:#513C31;}
	.st4{fill:#6D4100;}
	.st5{fill:#3F3F4A;}
	.st6{fill:#B7902D;}
	.st7{fill:#98782C;}
</style>
<path class="st0" d="M58,131c8-2,11-6,11-15s35-5,35-5s-1,11,1,14s5,5,8,5s-12,26-28,25S58,131,58,131z"/>
<path class="st1" d="M74.6,122.91c0,0-20.8-32.35-25.42-35.82c-4.62-3.47-11.55-20.8-3.47-25.42c11.22-6.41,19.64-36.97,19.64-36.97
	l50.83,4.62l8.09,34.66c0,0,5.78,1.16,2.31,13.86c-3.47,12.71-10.4,12.71-10.4,12.71l-23.11,32.35H74.6z"/>
<path class="st2" d="M49.19,72.08c0,0-6.93-9.24-6.93-26.57s12.71-15.02,12.71-15.02S63.05,12,90.78,12
	c39.28,0,31.19,34.66,46.21,36.97c-6.93,3.47-10.4,0-10.4,0l-1.16,13.86c0,0-5.78,0-5.78,9.24c0-26.57-5.78-32.35-5.78-32.35
	s-6.93-8.09-10.4-8.09c-3.47,0-26.57,5.78-32.35,5.78c-5.78,0-8.86-3.19-8.86-3.19s-1.54,11.28-3.85,13.59
	c-2.31,2.31-9.24,8.09-6.93,24.26C50.34,74.39,49.19,72.08,49.19,72.08z"/>
<path class="st3" d="M103.49,96.34c-6.93,0-8.09-2.31-18.49-2.31S73.45,97.5,66.52,97.5S50.34,80.17,50.34,80.17
	C48.03,107.89,69.98,131,86.16,131s33.5-30.04,33.5-51.99C119.66,82.48,110.42,96.34,103.49,96.34z M100.02,107.89
	c-6.93,6.93-8.09,0-17.33,0c-6.93,0-8.09,6.93-13.86,0c-5.78-6.93,6.93-11.55,16.17-11.55S105.5,102.42,100.02,107.89z"/>
<circle class="st4" cx="68.25" cy="72.08" r="5.2"/>
<circle class="st4" cx="101.75" cy="72.08" r="5.2"/>
<path class="st5" d="M98.87,60.52c-6.93,0-5.78,2.31-11.55,2.31H85h-2.31c-5.78,0-4.62-2.31-11.55-2.31
	c-3.47,0-27.73-2.11-27.73,1.16c0,3.47,5.78,2.31,5.78,5.78c0,17.36,6.93,16.17,17.33,16.17s12.71-10.4,13.86-13.86
	c0.33-1,1.05-1.71,1.91-2.22c1.65-0.98,3.78-0.98,5.43,0c0.85,0.51,1.57,1.22,1.91,2.22c1.16,3.47,3.47,13.86,13.86,13.86
	s17.33,1.19,17.33-16.17c0-3.47,5.78-2.31,5.78-5.78C126.59,58.41,102.33,60.52,98.87,60.52z M74.6,77.85
	c-2.31,3.47-5.78,4.62-11.55,4.62s-12.39-1.29-11.77-12.19c0.22-3.99,0.22-5.14,1.37-6.3c1.16-1.16,4.62-2.31,11.55-2.31
	s12.71,1.16,13.86,4.62C79.22,69.77,76.91,74.39,74.6,77.85z M106.95,82.48c-5.78,0-9.24-1.16-11.55-4.62
	c-2.31-3.47-4.62-8.09-3.47-11.55c1.16-3.47,6.93-4.62,13.86-4.62s10.4,1.16,11.55,2.31s1.16,2.31,1.37,6.3
	C119.34,81.18,112.73,82.48,106.95,82.48z"/>
<path class="st6" d="M150,137c-6-6-36-8-36-8s-28,17-29,19c-1-2-27-19-27-19s-30,2-36,8C3.44,155.56,3,197,3,197h73h20h73
	C169,197,168.56,155.56,150,137z"/>
<path class="st6" d="M122.91,129.85C111.34,137.43,89.08,156.31,84,158c-3.97-3.18-26.89-20.88-36.13-28.01
	C53.62,129.29,58,129,58,129s26,17,27,19c1-2,29-19,29-19S117.77,129.25,122.91,129.85z"/>
<path class="st7" d="M122.91,129.85C111.34,137.43,89.08,156.31,84,158c-3.97-3.18-26.89-20.88-36.13-28.01
	C53.62,129.29,58,128,58,128s26,17,27,19c1-2,29-19,29-19S117.77,129.25,122.91,129.85z"/>
</svg>
