<?xml version="1.0" encoding="utf-8"?>
<!-- Generator: Adobe Illustrator 23.0.3, SVG Export Plug-In . SVG Version: 6.00 Build 0)  -->
<svg version="1.1" id="blue_arrow" xmlns="http://www.w3.org/2000/svg" xmlns:xlink="http://www.w3.org/1999/xlink" x="0px" y="0px"
	 viewBox="0 0 248 253" style="enable-background:new 0 0 248 253;" xml:space="preserve">
<style type="text/css">
	.st0{fill:#007EE9;}
	.st1{fill:none;}
</style>
<g>
	<g>
		<path class="st0" d="M8.67,54.13l0.82-0.09l0.65-0.06l1.27-0.11l2.42-0.16c1.58-0.08,3.16-0.15,4.71-0.17
			c1.56-0.05,3.11-0.05,4.65-0.04c1.54-0.01,3.08,0.03,4.61,0.08c6.13,0.17,12.21,0.6,18.24,1.34c12.07,1.42,23.99,3.83,35.59,7.39
			c11.59,3.54,22.86,8.16,33.53,13.86c10.66,5.74,20.66,12.64,29.79,20.45l3.42,2.93l0.85,0.73l0.81,0.79l1.61,1.57l3.21,3.14
			l1.6,1.57l0.8,0.78l0.75,0.83l5.96,6.68c1.02,1.09,1.91,2.29,2.82,3.46l2.73,3.52l2.72,3.52c0.85,1.21,1.66,2.45,2.49,3.68
			c1.64,2.47,3.33,4.89,4.9,7.38l4.41,7.65c0.71,1.29,1.51,2.52,2.15,3.84l1.94,3.95c10.44,21,17.23,43.35,21.35,65.94l-5.97,1.36
			c-5.96-21.7-14.46-42.61-25.98-61.42l-2.13-3.53c-0.7-1.18-1.55-2.27-2.32-3.41l-4.71-6.74c-1.66-2.17-3.42-4.26-5.12-6.4
			c-0.86-1.06-1.7-2.13-2.57-3.17l-2.78-2.99l-2.77-2.98c-0.92-0.99-1.81-2.01-2.83-2.91l-5.9-5.55l-0.74-0.69l-0.78-0.64
			l-1.56-1.28l-3.12-2.56l-1.56-1.28l-0.78-0.64l-0.82-0.58l-3.28-2.34c-8.73-6.22-18.05-11.5-27.83-15.7
			c-9.8-4.17-19.99-7.33-30.38-9.52c-10.39-2.22-20.99-3.39-31.57-3.7c-5.29-0.18-10.58-0.08-15.81,0.23
			c-1.31,0.07-2.61,0.16-3.91,0.28c-1.3,0.11-2.59,0.22-3.86,0.38c-1.29,0.13-2.54,0.31-3.78,0.48l-1.81,0.28l-0.85,0.15l-0.41,0.07
			c-0.13,0.02-0.15,0.04-0.23,0.06L8.67,54.13z"/>
		<g>
			<path class="st0" d="M211,243c-6.33-10.33-16.11-22.77-25.27-29.87l19.99,3.07l17.33-10.43C217.27,215.82,212.94,231.04,211,243z
				"/>
		</g>
	</g>
</g>
<path id="SVGID_x5F_1_x5F_" class="st1" d="M83,28c128,53,134,121,142,142"/>
<text><textPath  xlink:href="#SVGID_x5F_1_x5F_" startOffset="0%">
<tspan  class="st0" style="font-family:'MyriadPro-Regular'; font-size:21px;">legt Firmen und</tspan></textPath>
</text>
<path id="SVGID_x5F_2_x5F_" class="st1" d="M68,43c128,53,134,121,142,142"/>
<text><textPath  xlink:href="#SVGID_x5F_2_x5F_" startOffset="0%">
<tspan  class="st0" style="font-family:'MyriadPro-Regular'; font-size:21px;">Manager an</tspan></textPath>
</text>
</svg>
