<?xml version="1.0" encoding="utf-8"?>
<!-- Generator: Adobe Illustrator 23.0.3, SVG Export Plug-In . SVG Version: 6.00 Build 0)  -->
<svg version="1.1" id="cyan_arrow" xmlns="http://www.w3.org/2000/svg" xmlns:xlink="http://www.w3.org/1999/xlink" x="0px" y="0px"
	 viewBox="0 0 681 167" style="enable-background:new 0 0 681 167;" xml:space="preserve">
<style type="text/css">
	.st0{fill:#00DEFF;}
	.st1{fill:none;}
</style>
<g>
	<g>
		<path class="st0" d="M671.55,14.62c-3.91,6.86-8.21,13.45-12.98,19.62c-4.81,6.12-9.86,12.04-15.35,17.46
			C632.4,62.72,620.41,72.3,607.9,80.92c-12.52,8.62-25.63,16.22-39.12,22.94c-13.48,6.73-27.32,12.65-41.38,17.85
			c-28.14,10.4-57.17,18-86.54,23.24c-29.38,5.23-59.14,8.09-88.92,8.64c-29.78,0.5-59.59-1.34-89.04-5.67
			c-14.72-2.17-29.35-4.94-43.82-8.42c-14.46-3.49-28.76-7.64-42.83-12.48c-28.1-9.71-55.32-22.12-80.66-37.67
			c-25.35-15.51-48.86-34-69.69-55.13l3.18-3.19c21,20.41,44.53,38.12,69.77,52.85c25.23,14.76,52.22,26.38,80,35.32
			c13.9,4.46,28.01,8.24,42.27,11.36c14.26,3.11,28.67,5.52,43.14,7.34c28.95,3.63,58.2,4.82,87.33,3.71
			c29.13-1.16,58.16-4.57,86.69-10.27c28.52-5.71,56.57-13.71,83.51-24.31c13.46-5.31,26.64-11.27,39.39-17.98
			c12.75-6.69,25.04-14.17,36.62-22.51c11.57-8.34,22.51-17.49,32.13-27.72c4.9-5.04,9.31-10.46,13.49-16
			c4.13-5.58,7.75-11.44,11.03-17.45L671.55,14.62z"/>
		<g>
			<path class="st0" d="M11,15c10.86,5.38,25.75,10.71,37.29,11.85l-18.57,8.03l-9.13,18.05C20.15,41.35,15.72,26.16,11,15z"/>
		</g>
	</g>
</g>
<path id="SVGID_x5F_1_x5F_" class="st1" d="M54.5,39.5c0,0,109,94,265,94S588,70,640,10"/>
<text><textPath  xlink:href="#SVGID_x5F_1_x5F_" startOffset="34.4174%">
<tspan  class="st0" style="font-family:'MyriadPro-Regular'; font-size:16px;">bestätigt Arbeitsabschnitte oder lehnt sie ab</tspan></textPath>
</text>
</svg>
