<?xml version="1.0" encoding="utf-8"?>
<!-- Generator: Adobe Illustrator 23.0.3, SVG Export Plug-In . SVG Version: 6.00 Build 0)  -->
<svg version="1.1" id="Слой_2" xmlns="http://www.w3.org/2000/svg" xmlns:xlink="http://www.w3.org/1999/xlink" x="0px" y="0px"
	 viewBox="0 0 783 346" style="enable-background:new 0 0 783 346;" xml:space="preserve">
<style type="text/css">
	.st0{fill:#FFFFFF;}
</style>
<g>
	<path class="st0" d="M166.21,118.98c7.01-1.48,18.08-2.58,29.33-2.58c16.05,0,26.38,2.77,34.13,9.04
		c6.46,4.8,10.33,12.18,10.33,21.96c0,11.99-7.93,22.51-21.03,27.3v0.37c11.81,2.95,25.65,12.73,25.65,31.18
		c0,10.7-4.24,18.82-10.52,24.91c-8.67,7.93-22.69,11.62-42.99,11.62c-11.07,0-19.56-0.74-24.91-1.48V118.98z M182.26,169.9h14.57
		c16.97,0,26.94-8.86,26.94-20.85c0-14.57-11.07-20.29-27.31-20.29c-7.38,0-11.62,0.55-14.21,1.11V169.9z M182.26,229.49
		c3.14,0.55,7.75,0.74,13.47,0.74c16.6,0,31.92-6.09,31.92-24.17c0-16.97-14.58-23.98-32.1-23.98h-13.28V229.49z"/>
	<path class="st0" d="M346.46,217.31c0,9.22,0.18,17.34,0.74,24.35h-14.39l-0.92-14.58h-0.37c-4.24,7.2-13.65,16.6-29.52,16.6
		c-14.02,0-30.81-7.75-30.81-39.11v-52.21h16.24v49.44c0,16.97,5.17,28.41,19.93,28.41c10.89,0,18.45-7.56,21.4-14.76
		c0.92-2.4,1.48-5.35,1.48-8.3v-54.79h16.24V217.31z"/>
	<path class="st0" d="M379.49,180.23c0-10.52-0.18-19.56-0.74-27.86h14.21l0.55,17.53h0.74c4.06-11.99,13.84-19.56,24.72-19.56
		c1.85,0,3.14,0.18,4.61,0.55v15.31c-1.66-0.37-3.32-0.55-5.53-0.55c-11.44,0-19.56,8.67-21.77,20.85c-0.37,2.21-0.74,4.8-0.74,7.56
		v47.6h-16.05V180.23z"/>
	<path class="st0" d="M440.55,176.54c0-9.23-0.18-16.79-0.74-24.17h14.39l0.92,14.76h0.37c4.43-8.49,14.76-16.79,29.52-16.79
		c12.36,0,31.55,7.38,31.55,38.01v53.32h-16.24v-51.47c0-14.39-5.35-26.38-20.66-26.38c-10.7,0-19,7.56-21.77,16.6
		c-0.74,2.03-1.11,4.8-1.11,7.56v53.69h-16.24V176.54z"/>
	<path class="st0" d="M561.03,127.28c0.18,5.53-3.87,9.96-10.33,9.96c-5.72,0-9.78-4.43-9.78-9.96c0-5.72,4.24-10.15,10.15-10.15
		C557.15,117.13,561.03,121.56,561.03,127.28z M542.95,241.66v-89.29h16.24v89.29H542.95z"/>
	<path class="st0" d="M586.12,176.54c0-9.23-0.18-16.79-0.74-24.17h14.39l0.92,14.76h0.37c4.43-8.49,14.76-16.79,29.52-16.79
		c12.36,0,31.55,7.38,31.55,38.01v53.32h-16.24v-51.47c0-14.39-5.35-26.38-20.66-26.38c-10.7,0-19,7.56-21.77,16.6
		c-0.74,2.03-1.11,4.8-1.11,7.56v53.69h-16.24V176.54z"/>
	<path class="st0" d="M765.45,152.37c-0.37,6.46-0.74,13.65-0.74,24.54v51.84c0,20.48-4.06,33.02-12.73,40.77
		c-8.67,8.12-21.22,10.7-32.47,10.7c-10.7,0-22.51-2.58-29.7-7.38l4.06-12.36c5.9,3.69,15.13,7.01,26.2,7.01
		c16.6,0,28.78-8.67,28.78-31.18v-9.96h-0.37c-4.98,8.3-14.58,14.94-28.41,14.94c-22.14,0-38.01-18.82-38.01-43.54
		c0-30.26,19.74-47.42,40.22-47.42c15.5,0,23.98,8.12,27.86,15.5h0.37l0.74-13.47H765.45z M748.66,187.61
		c0-2.77-0.18-5.17-0.92-7.38c-2.95-9.41-10.88-17.16-22.69-17.16c-15.5,0-26.57,13.1-26.57,33.76c0,17.53,8.86,32.1,26.38,32.1
		c9.96,0,19-6.27,22.51-16.6c0.92-2.77,1.29-5.9,1.29-8.67V187.61z"/>
</g>
<g>
	<path class="st0" d="M181.65,289.36c0.2,11.79,7.73,16.65,16.45,16.65c6.24,0,10.01-1.09,13.28-2.48l1.49,6.25
		c-3.07,1.39-8.33,2.97-15.96,2.97c-14.77,0-23.59-9.71-23.59-24.19s8.52-25.87,22.5-25.87c15.66,0,19.82,13.78,19.82,22.6
		c0,1.79-0.2,3.17-0.3,4.06H181.65z M207.22,283.12c0.1-5.55-2.28-14.17-12.09-14.17c-8.82,0-12.69,8.13-13.38,14.17H207.22z"/>
	<path class="st0" d="M226.45,276.77c0-4.96-0.1-9.02-0.4-12.99h7.73l0.5,7.93h0.2c2.38-4.56,7.93-9.02,15.86-9.02
		c6.64,0,16.95,3.96,16.95,20.42v28.65h-8.72v-27.66c0-7.73-2.87-14.17-11.1-14.17c-5.75,0-10.21,4.06-11.7,8.92
		c-0.4,1.09-0.59,2.58-0.59,4.06v28.84h-8.72V276.77z"/>
	<path class="st0" d="M322.8,263.79c-0.2,3.47-0.4,7.33-0.4,13.18v27.85c0,11-2.18,17.74-6.84,21.91
		c-4.66,4.36-11.4,5.75-17.45,5.75c-5.75,0-12.09-1.39-15.96-3.96l2.18-6.64c3.17,1.98,8.13,3.77,14.08,3.77
		c8.92,0,15.46-4.66,15.46-16.75v-5.35h-0.2c-2.68,4.46-7.83,8.03-15.26,8.03c-11.89,0-20.42-10.11-20.42-23.39
		c0-16.26,10.61-25.47,21.61-25.47c8.33,0,12.89,4.36,14.97,8.33h0.2l0.4-7.24H322.8z M313.78,282.72c0-1.49-0.1-2.78-0.5-3.96
		c-1.59-5.06-5.85-9.22-12.19-9.22c-8.33,0-14.27,7.04-14.27,18.14c0,9.42,4.76,17.25,14.17,17.25c5.35,0,10.21-3.37,12.09-8.92
		c0.5-1.49,0.69-3.17,0.69-4.66V282.72z"/>
	<path class="st0" d="M345.99,250.31c0.1,2.97-2.08,5.35-5.55,5.35c-3.07,0-5.25-2.38-5.25-5.35c0-3.07,2.28-5.45,5.45-5.45
		C343.91,244.86,345.99,247.23,345.99,250.31z M336.28,311.76v-47.97H345v47.97H336.28z"/>
	<path class="st0" d="M359.47,276.77c0-4.96-0.1-9.02-0.4-12.99h7.73l0.5,7.93h0.2c2.38-4.56,7.93-9.02,15.86-9.02
		c6.64,0,16.95,3.96,16.95,20.42v28.65h-8.72v-27.66c0-7.73-2.87-14.17-11.1-14.17c-5.75,0-10.21,4.06-11.7,8.92
		c-0.4,1.09-0.59,2.58-0.59,4.06v28.84h-8.72V276.77z"/>
	<path class="st0" d="M419.34,289.36c0.2,11.79,7.73,16.65,16.45,16.65c6.24,0,10.01-1.09,13.28-2.48l1.49,6.25
		c-3.07,1.39-8.33,2.97-15.96,2.97c-14.77,0-23.59-9.71-23.59-24.19s8.52-25.87,22.5-25.87c15.66,0,19.82,13.78,19.82,22.6
		c0,1.79-0.2,3.17-0.3,4.06H419.34z M444.92,283.12c0.1-5.55-2.28-14.17-12.09-14.17c-8.82,0-12.69,8.13-13.38,14.17H444.92z"/>
	<path class="st0" d="M469,289.36c0.2,11.79,7.73,16.65,16.45,16.65c6.24,0,10.01-1.09,13.28-2.48l1.49,6.25
		c-3.07,1.39-8.33,2.97-15.96,2.97c-14.77,0-23.59-9.71-23.59-24.19s8.52-25.87,22.5-25.87c15.66,0,19.82,13.78,19.82,22.6
		c0,1.79-0.2,3.17-0.3,4.06H469z M494.58,283.12c0.1-5.55-2.28-14.17-12.09-14.17c-8.82,0-12.69,8.13-13.38,14.17H494.58z"/>
	<path class="st0" d="M513.81,278.76c0-5.65-0.1-10.51-0.4-14.97h7.63l0.3,9.42h0.4c2.18-6.44,7.43-10.51,13.28-10.51
		c0.99,0,1.69,0.1,2.48,0.3v8.23c-0.89-0.2-1.78-0.3-2.97-0.3c-6.15,0-10.51,4.66-11.7,11.2c-0.2,1.19-0.4,2.58-0.4,4.06v25.57
		h-8.62V278.76z"/>
	<path class="st0" d="M556.33,250.31c0.1,2.97-2.08,5.35-5.55,5.35c-3.07,0-5.25-2.38-5.25-5.35c0-3.07,2.28-5.45,5.45-5.45
		C554.25,244.86,556.33,247.23,556.33,250.31z M546.62,311.76v-47.97h8.72v47.97H546.62z"/>
	<path class="st0" d="M569.81,276.77c0-4.96-0.1-9.02-0.4-12.99h7.73l0.5,7.93h0.2c2.38-4.56,7.93-9.02,15.86-9.02
		c6.64,0,16.95,3.96,16.95,20.42v28.65h-8.72v-27.66c0-7.73-2.88-14.17-11.1-14.17c-5.75,0-10.21,4.06-11.7,8.92
		c-0.4,1.09-0.59,2.58-0.59,4.06v28.84h-8.72V276.77z"/>
	<path class="st0" d="M666.16,263.79c-0.2,3.47-0.4,7.33-0.4,13.18v27.85c0,11-2.18,17.74-6.84,21.91
		c-4.66,4.36-11.4,5.75-17.45,5.75c-5.75,0-12.09-1.39-15.96-3.96l2.18-6.64c3.17,1.98,8.13,3.77,14.08,3.77
		c8.92,0,15.46-4.66,15.46-16.75v-5.35h-0.2c-2.68,4.46-7.83,8.03-15.26,8.03c-11.89,0-20.42-10.11-20.42-23.39
		c0-16.26,10.61-25.47,21.61-25.47c8.33,0,12.89,4.36,14.97,8.33h0.2l0.4-7.24H666.16z M657.14,282.72c0-1.49-0.1-2.78-0.5-3.96
		c-1.59-5.06-5.85-9.22-12.19-9.22c-8.33,0-14.27,7.04-14.27,18.14c0,9.42,4.76,17.25,14.17,17.25c5.35,0,10.21-3.37,12.09-8.92
		c0.5-1.49,0.69-3.17,0.69-4.66V282.72z"/>
</g>
<g>
	<path class="st0" d="M151.31,170.49c-2.19-16.13-9.89-31.57-21.66-42.88c-10.87-10.45-22.38-18.57-31-31.35
		C80.98,70.07,77.61,37.18,92.62,8.94C65.9,16.85,55.97,55.11,59.69,78.91c-6.65-2.54-14-3.93-21.14-3.43
		c14.58,7.45,17.75,22.56,8.41,35.66c-5.06,7.09-13.05,10.81-19.21,16.83c-5.59,5.46-10.3,11.82-13.9,18.76
		c-14.57,28.12-8.93,63.47,13.61,85.68c8.68,8.55,18.51,14.23,28.74,17.4c-14.14-7.04-26.11-22.05-19.98-47.34
		c6.64-27.38,42.02-31.89,40.43-61.07c7.45,21.08,13.83,20.54,18.62,31.35c5.68,12.82-5.32,17.3-5.32,17.3s27.13,4.32,28.19,28.11
		c0.67,15.03-5.46,24.29-14.19,29.72C133.57,236.56,156.31,207.29,151.31,170.49z"/>
	<path class="st0" d="M79.59,293L79.59,293c-9.25,0-16.76-7.5-16.76-16.76v-2.39h33.51v2.39C96.34,285.5,88.84,293,79.59,293z"/>
	<path class="st0" d="M95.25,269.59H65.52c-7.36,0-13.33-5.97-13.33-13.33v0c0-2.04,1.65-3.69,3.69-3.69h49
		c2.04,0,3.69,1.65,3.69,3.69v0C108.58,263.63,102.61,269.59,95.25,269.59z"/>
</g>
</svg>
