<svg id="Слой_2" data-name="Слой 2" xmlns="http://www.w3.org/2000/svg" viewBox="0 0 693.63 534"><defs><style>.cls-1{fill:#ff7712;}.cls-2{fill:#7c7667;}</style></defs><title>BurningEngineering-01</title><path class="cls-1" d="M293.32,317.69a138.59,138.59,0,0,0-40.71-80.61c-20.44-19.63-42.08-34.91-58.28-58.93C161.12,128.93,154.77,67.1,183,14c-50.23,14.88-68.9,86.8-61.9,131.54-12.5-4.77-26.33-7.4-39.73-6.46,27.41,14,33.37,42.42,15.8,67-9.51,13.33-24.53,20.32-36.12,31.64A138.55,138.55,0,0,0,34.93,273C7.54,325.89,18.14,392.35,60.52,434.09a132.53,132.53,0,0,0,54,32.71C88,453.56,65.47,425.35,77,377.81c12.48-51.47,79-59.94,76-114.81,14,39.63,26,38.61,35,58.93,10.68,24.11-10,32.51-10,32.51s51,8.13,53,52.84c1.26,28.25-10.27,45.65-26.67,55.87C260,441.89,302.72,386.89,293.32,317.69Z" transform="translate(-19.81 -14)"/><path d="M114.21,334a155.1,155.1,0,0,1,29.33-2.59c16.05,0,26.39,2.77,34.13,9,6.46,4.8,10.34,12.18,10.34,22,0,12-7.94,22.51-21,27.3v.37c11.81,2.95,25.65,12.73,25.65,31.18a33.51,33.51,0,0,1-10.52,24.91c-8.67,7.93-22.69,11.62-43,11.62a187.19,187.19,0,0,1-24.91-1.48Zm16,50.92h14.57c17,0,26.94-8.86,26.94-20.85,0-14.58-11.07-20.3-27.3-20.3a69.06,69.06,0,0,0-14.21,1.11Zm0,59.59a86.2,86.2,0,0,0,13.47.74c16.6,0,31.92-6.09,31.92-24.17,0-17-14.58-24-32.11-24H130.26Z" transform="translate(-19.81 -14)"/><path d="M294.46,432.31c0,9.23.18,17.34.74,24.35H280.81l-.92-14.57h-.37A33.62,33.62,0,0,1,250,458.69c-14,0-30.81-7.75-30.81-39.11V367.37h16.23v49.44c0,17,5.17,28.42,19.93,28.42,10.88,0,18.45-7.57,21.4-14.76a23.82,23.82,0,0,0,1.47-8.31V367.37h16.24Z" transform="translate(-19.81 -14)"/><path d="M327.49,395.23c0-10.52-.19-19.56-.74-27.86H341l.56,17.53h.73c4.06-12,13.84-19.56,24.73-19.56a17.55,17.55,0,0,1,4.61.55v15.32a24.31,24.31,0,0,0-5.54-.56c-11.43,0-19.55,8.67-21.77,20.85a46.72,46.72,0,0,0-.73,7.56v47.6H327.49Z" transform="translate(-19.81 -14)"/><path d="M388.55,391.54c0-9.23-.18-16.79-.74-24.17h14.4l.92,14.76h.37c4.42-8.49,14.76-16.79,29.52-16.79,12.36,0,31.54,7.38,31.54,38v53.31H448.33V405.19c0-14.39-5.35-26.38-20.66-26.38-10.71,0-19,7.56-21.77,16.6a23.31,23.31,0,0,0-1.11,7.57v53.68H388.55Z" transform="translate(-19.81 -14)"/><path d="M509,342.28c.18,5.53-3.88,10-10.33,10a9.66,9.66,0,0,1-9.78-10,9.89,9.89,0,0,1,10.14-10.15C505.15,332.13,509,336.56,509,342.28ZM491,456.66V367.37h16.23v89.29Z" transform="translate(-19.81 -14)"/><path d="M534.12,391.54c0-9.23-.19-16.79-.74-24.17h14.39l.92,14.76h.37c4.43-8.49,14.76-16.79,29.52-16.79,12.36,0,31.55,7.38,31.55,38v53.31H593.89V405.19c0-14.39-5.35-26.38-20.66-26.38-10.7,0-19,7.56-21.77,16.6a23.31,23.31,0,0,0-1.11,7.57v53.68H534.12Z" transform="translate(-19.81 -14)"/><path d="M713.45,367.37c-.37,6.46-.74,13.65-.74,24.54v51.84c0,20.48-4.06,33-12.73,40.77-8.67,8.12-21.22,10.7-32.47,10.7-10.7,0-22.51-2.58-29.71-7.38l4.06-12.36a50.38,50.38,0,0,0,26.2,7c16.61,0,28.78-8.67,28.78-31.18v-10h-.37c-5,8.3-14.57,14.94-28.41,14.94-22.14,0-38-18.81-38-43.54,0-30.25,19.74-47.41,40.22-47.41,15.49,0,24,8.12,27.85,15.5h.37l.74-13.47Zm-16.79,35.24a23.33,23.33,0,0,0-.92-7.38c-3-9.41-10.89-17.16-22.7-17.16-15.49,0-26.56,13.1-26.56,33.76,0,17.53,8.85,32.1,26.38,32.1,10,0,19-6.27,22.51-16.6a28.31,28.31,0,0,0,1.29-8.67Z" transform="translate(-19.81 -14)"/><path d="M228.26,493.21c.16,9.62,6.31,13.59,13.42,13.59a25.78,25.78,0,0,0,10.84-2l1.21,5.09a31.69,31.69,0,0,1-13,2.43c-12.05,0-19.25-7.93-19.25-19.74s7-21.1,18.36-21.1c12.78,0,16.18,11.24,16.18,18.43a26.75,26.75,0,0,1-.25,3.32Zm20.86-5.09c.08-4.53-1.86-11.57-9.86-11.57-7.2,0-10.36,6.63-10.92,11.57Z" transform="translate(-19.81 -14)"/><path d="M264.81,482.94c0-4-.08-7.36-.32-10.59h6.31l.4,6.47h.16a14.37,14.37,0,0,1,12.94-7.36c5.42,0,13.83,3.23,13.83,16.66v23.37H291V488.92c0-6.3-2.34-11.56-9.05-11.56a10.12,10.12,0,0,0-9.55,7.28,10.31,10.31,0,0,0-.48,3.31v23.54h-7.12Z" transform="translate(-19.81 -14)"/><path d="M343.42,472.35c-.16,2.83-.32,6-.32,10.75v22.73c0,9-1.78,14.47-5.58,17.87-3.8,3.56-9.3,4.69-14.24,4.69-4.69,0-9.86-1.13-13-3.24l1.78-5.41a22.15,22.15,0,0,0,11.49,3.07c7.27,0,12.61-3.8,12.61-13.67v-4.36H336c-2.18,3.63-6.39,6.55-12.45,6.55-9.71,0-16.66-8.25-16.66-19.09,0-13.26,8.65-20.78,17.63-20.78,6.79,0,10.51,3.55,12.21,6.79h.16l.32-5.9Zm-7.36,15.44A10.4,10.4,0,0,0,325.71,477c-6.79,0-11.65,5.74-11.65,14.8,0,7.68,3.89,14.07,11.57,14.07a10.41,10.41,0,0,0,9.87-7.28,12.5,12.5,0,0,0,.56-3.8Z" transform="translate(-19.81 -14)"/><path d="M362.35,461.35a4.41,4.41,0,0,1-8.82,0A4.34,4.34,0,0,1,358,456.9,4.23,4.23,0,0,1,362.35,461.35Zm-7.93,50.14V472.35h7.12v39.14Z" transform="translate(-19.81 -14)"/><path d="M373.34,482.94c0-4-.08-7.36-.32-10.59h6.31l.4,6.47h.17a14.36,14.36,0,0,1,12.93-7.36c5.42,0,13.83,3.23,13.83,16.66v23.37h-7.11V488.92c0-6.3-2.35-11.56-9.06-11.56a10.45,10.45,0,0,0-10,10.59v23.54h-7.12Z" transform="translate(-19.81 -14)"/><path d="M422.19,493.21c.16,9.62,6.31,13.59,13.43,13.59a25.73,25.73,0,0,0,10.83-2l1.22,5.09a31.76,31.76,0,0,1-13,2.43c-12,0-19.25-7.93-19.25-19.74s7-21.1,18.36-21.1c12.77,0,16.17,11.24,16.17,18.43a27.18,27.18,0,0,1-.24,3.32Zm20.87-5.09c.08-4.53-1.86-11.57-9.87-11.57-7.2,0-10.35,6.63-10.92,11.57Z" transform="translate(-19.81 -14)"/><path d="M462.71,493.21c.16,9.62,6.31,13.59,13.42,13.59a25.78,25.78,0,0,0,10.84-2l1.21,5.09a31.69,31.69,0,0,1-13,2.43c-12.05,0-19.24-7.93-19.24-19.74s6.95-21.1,18.35-21.1c12.78,0,16.18,11.24,16.18,18.43a27.18,27.18,0,0,1-.24,3.32Zm20.87-5.09c.08-4.53-1.87-11.57-9.87-11.57-7.2,0-10.35,6.63-10.92,11.57Z" transform="translate(-19.81 -14)"/><path d="M499.27,484.56c0-4.61-.09-8.58-.33-12.21h6.23l.24,7.68h.32c1.78-5.26,6.07-8.57,10.84-8.57a7.72,7.72,0,0,1,2,.24v6.71a10.7,10.7,0,0,0-2.42-.24c-5,0-8.58,3.8-9.55,9.14a20.2,20.2,0,0,0-.32,3.31v20.87h-7Z" transform="translate(-19.81 -14)"/><path d="M534,461.35a4.41,4.41,0,0,1-8.82,0,4.34,4.34,0,0,1,4.45-4.45A4.23,4.23,0,0,1,534,461.35ZM526,511.49V472.35h7.12v39.14Z" transform="translate(-19.81 -14)"/><path d="M545,482.94c0-4-.08-7.36-.33-10.59h6.31l.41,6.47h.16a14.37,14.37,0,0,1,12.94-7.36c5.42,0,13.83,3.23,13.83,16.66v23.37h-7.12V488.92c0-6.3-2.34-11.56-9.06-11.56a10.1,10.1,0,0,0-9.54,7.28,10.31,10.31,0,0,0-.48,3.31v23.54H545Z" transform="translate(-19.81 -14)"/><path d="M623.57,472.35c-.17,2.83-.33,6-.33,10.75v22.73c0,9-1.78,14.47-5.58,17.87-3.8,3.56-9.3,4.69-14.23,4.69-4.69,0-9.87-1.13-13-3.24l1.78-5.41a22.14,22.14,0,0,0,11.48,3.07c7.28,0,12.62-3.8,12.62-13.67v-4.36h-.16c-2.19,3.63-6.39,6.55-12.46,6.55-9.7,0-16.66-8.25-16.66-19.09,0-13.26,8.66-20.78,17.63-20.78,6.8,0,10.52,3.55,12.21,6.79H617l.32-5.9Zm-7.36,15.44a9.93,9.93,0,0,0-.41-3.23,10.24,10.24,0,0,0-9.94-7.52c-6.8,0-11.65,5.74-11.65,14.8,0,7.68,3.88,14.07,11.56,14.07a10.41,10.41,0,0,0,9.87-7.28,12.21,12.21,0,0,0,.57-3.8Z" transform="translate(-19.81 -14)"/><path class="cls-2" d="M107.19,498h63a0,0,0,0,1,0,0v9.09A26.91,26.91,0,0,1,143.27,534H134.1a26.91,26.91,0,0,1-26.91-26.91V498A0,0,0,0,1,107.19,498Z"/><path class="cls-2" d="M93.15,458h94.07a6,6,0,0,1,6,6v4.52A21.52,21.52,0,0,1,171.67,490h-63a21.52,21.52,0,0,1-21.52-21.52V464A6,6,0,0,1,93.15,458Z"/></svg>