<?xml version="1.0" encoding="utf-8"?>
<!-- Generator: Adobe Illustrator 23.0.3, SVG Export Plug-In . SVG Version: 6.00 Build 0)  -->
<svg version="1.1" id="yellow_arrow" xmlns="http://www.w3.org/2000/svg" xmlns:xlink="http://www.w3.org/1999/xlink" x="0px"
	 y="0px" viewBox="0 0 520 118" style="enable-background:new 0 0 520 118;" xml:space="preserve">
<style type="text/css">
	.st0{fill:#FFCB15;}
	.st1{fill:none;}
</style>
<g>
	<g>
		<path class="st0" d="M25.9,13.48c15.43,11,32.51,20.3,50.33,28.23c17.84,7.92,36.49,14.38,55.47,19.82
			c38.02,10.82,77.47,17.38,117.22,20.34c39.77,2.92,79.91,2.07,119.62-2.82c39.68-4.93,79.02-13.96,116.48-28.47l1.98,4.74
			c-37.19,16.46-76.71,27.53-116.87,34.45c-40.19,6.87-81.12,9.68-122.02,8.61c-40.89-1.12-81.82-5.92-122.01-15.34
			c-20.08-4.75-40-10.6-59.46-18.16C47.2,57.31,28.14,48.14,10.1,36.52L25.9,13.48z"/>
		<g>
			<path class="st0" d="M508,43c-8.66,8.47-18.61,20.78-23.49,31.29l-1.46-20.18l-14.03-14.57C480.11,42.95,495.91,43.78,508,43z"/>
		</g>
	</g>
</g>
<path id="SVGID_x5F_1_x5F_" class="st1" d="M51.5,16.5c85,40,215,90,409,35"/>
<text><textPath  xlink:href="#SVGID_x5F_1_x5F_" startOffset="0.024%">
<tspan  class="st0" style="font-family:'MyriadPro-Regular'; font-size:16px;"> schickt abgeschlossene Arbeitsabschnitte zu Bestätigung</tspan></textPath>
</text>
</svg>
