<?xml version="1.0" ?><!DOCTYPE svg  PUBLIC '-//W3C//DTD SVG 1.1//EN'  'http://www.w3.org/Graphics/SVG/1.1/DTD/svg11.dtd'><svg height="512px" style="enable-background:new 0 0 512 512;" version="1.1" viewBox="0 0 512 512" width="512px" xml:space="preserve" xmlns="http://www.w3.org/2000/svg" xmlns:xlink="http://www.w3.org/1999/xlink"><g id="D_-_17_x2C__Team_x2C__user_x2C__manager_x2C__squard"><g><path d="M107.343,176.347c16.207,0,29.391-13.184,29.391-29.39s-13.184-29.391-29.391-29.391    c-16.206,0-29.391,13.185-29.391,29.391S91.137,176.347,107.343,176.347z"/><path d="M195.854,141.463c0.326,0.093,0.634,0.217,0.923,0.373c2.722,1.042,5.784,1.625,9.102,1.625l73.91-0.076    c4.983,0,8.13-1.614,10.207-5.235c0.863-1.505,2.44-2.355,4.067-2.355c0.727,0,1.465,0.17,2.152,0.526l20.251,10.494v-15.383    l-27.493-16.693c-0.981-0.596-1.709-1.53-2.047-2.626c-0.142-0.461-0.396-0.963-0.717-1.599l-0.156-0.309l-0.521-0.928    c-3.215-5.731-4.779-7.898-8.471-7.898h-92.527v23.318C184.534,132.319,188.955,138.462,195.854,141.463z"/><polygon points="278.457,334.052 297.455,310.303 310.633,293.832 298.523,281.723 263.836,324.273   "/><path d="M279.793,152.756l-73.91,0.076c-2.559,0-5.021-0.265-7.368-0.756c-0.165,2.506-0.169,5.135-0.169,8.136    c0,31.559,21.114,92.982,59.818,92.982c15.687,0,27.611-10.195,34.85-18.748c16.961-20.033,26.979-52.617,23.853-76.869    l-21.413-11.097C291.662,150.603,286.329,152.756,279.793,152.756z M282.101,222.364c-7.668,5.326-15.136,7.238-21.749,7.238    c-9.668,0-17.509-4.084-21.488-7.555c-1.949-1.701-2.151-4.661-0.45-6.611c1.696-1.944,4.645-2.15,6.594-0.465    c0.63,0.538,14.307,11.812,31.747-0.303c2.128-1.477,5.045-0.95,6.521,1.175C284.752,217.969,284.226,220.888,282.101,222.364z"/><path d="M407.213,176.347c16.206,0,29.391-13.184,29.391-29.39s-13.185-29.391-29.391-29.391s-29.391,13.185-29.391,29.391    S391.007,176.347,407.213,176.347z"/><path d="M143.543,260.686l-0.03-23.56c-0.003-2.587,2.092-4.688,4.68-4.691c0.001,0,0.003,0,0.005,0    c2.585,0,4.683,2.094,4.686,4.679l0.03,23.572h18.747v-43.763l-41.234-11.997l-21.556,16.12c-1.665,1.244-3.948,1.244-5.612,0    l-21.556-16.12l-41.235,11.997v43.763h18.754l0.056-23.267c0.007-2.583,2.103-4.673,4.686-4.673c0.004,0,0.007,0,0.012,0    c2.587,0.006,4.68,2.108,4.673,4.696l-0.056,23.244H143.543z"/><path d="M430.269,204.894l-21.599,15.522c-1.635,1.174-3.834,1.174-5.469,0l-21.6-15.522l-41.263,11.537v44.255h18.753    l0.058-23.266c0.007-2.584,2.103-4.674,4.685-4.674c0.004,0,0.008,0,0.013,0c2.587,0.006,4.68,2.109,4.673,4.697l-0.057,23.243    h74.951l-0.029-23.559c-0.003-2.588,2.092-4.688,4.68-4.692c0.002,0,0.004,0,0.006,0c2.585,0,4.682,2.094,4.686,4.68l0.029,23.571    h18.747v-44.255L430.269,204.894z"/><path d="M283.086,343.266c-0.171,0.214-0.362,0.403-0.562,0.579c-0.038,0.033-0.073,0.066-0.112,0.099    c-0.195,0.163-0.402,0.309-0.618,0.435c-0.041,0.024-0.083,0.044-0.124,0.067c-0.217,0.118-0.441,0.224-0.674,0.306    c-0.012,0.004-0.023,0.011-0.035,0.015c-0.24,0.083-0.486,0.14-0.735,0.183c-0.05,0.009-0.099,0.019-0.149,0.024    c-0.216,0.03-0.433,0.052-0.651,0.052c-0.026,0-0.05-0.006-0.076-0.006c-0.071-0.001-0.143-0.011-0.215-0.016    c-0.189-0.012-0.379-0.033-0.567-0.068c-0.087-0.016-0.172-0.036-0.26-0.057c-0.181-0.045-0.359-0.102-0.537-0.17    c-0.075-0.029-0.152-0.054-0.228-0.087c-0.247-0.108-0.488-0.233-0.72-0.388l-19.975-13.36l-21.815,13.454    c-0.24,0.147-0.495,0.264-0.754,0.366c-0.072,0.027-0.145,0.054-0.218,0.078c-0.223,0.074-0.45,0.134-0.682,0.174    c-0.046,0.009-0.09,0.022-0.137,0.028c-0.221,0.032-0.444,0.051-0.669,0.051c-0.049,0-0.097-0.008-0.146-0.01    c-0.067-0.002-0.132-0.007-0.198-0.012c-0.276-0.021-0.553-0.057-0.826-0.127c-1.234-0.317-2.285-1.125-2.912-2.234l-25.35-44.914    l-78.335,18.219v94.675h46.854V359.08c0-2.588,2.099-4.685,4.686-4.685c2.588,0,4.686,2.097,4.686,4.685v51.541h149.936V359.08    c0-2.588,2.097-4.685,4.686-4.685c2.588,0,4.686,2.097,4.686,4.685v51.541h46.854v-89.133l-68.654-22.538L283.086,343.266z"/><polygon points="211.333,293.173 234.259,333.794 247.791,325.448 250.357,323.866 222.469,282.084   "/></g></g><g id="Layer_1"/></svg>