<svg id="Layer_1" style="enable-background:new 0 0 52 52;" version="1.1" viewBox="0 0 52 52" xml:space="preserve" xmlns="http://www.w3.org/2000/svg" xmlns:xlink="http://www.w3.org/1999/xlink"><style type="text/css">
	.st0{fill:#231F20;}
</style><g><g><path class="st0" d="M34.3325424,2.9796591c2.972744-0.0300465,6.1269379-0.3841271,9.0848656-0.0918236    c1.3581581-0.3301041,2.5357094,0.0061617,3.53265,1.0087974c1.6681862,0.3380058,2.2490578,1.302736,1.7426109,2.894191    c0.3600502,1.3906183,0.0402489,3.2457333,0.0539818,4.6677427c0.0300446,3.1119022,0.047718,6.2238979,0.0530205,9.3359394    c0.0024719,1.4522877,0.3059273,3.2369633-0.0009575,4.6680546c0.4631081,1.5873642-0.1053391,2.7034779-1.7053337,3.3483429    c-0.8094978,1.3552551-1.9435806,1.8527737-3.4022446,1.4925556c-1.7658348,0.3255119-6.8905411,0.6516171-8.5123482-0.0806503    c-3.0217514-1.3643608-2.0421295-6.5955448-2.0888939-9.3138809c-0.0586739-3.4103451-0.0952606-6.8210306-0.1098824-10.2318468    c-0.0101013-2.3558989-1.1585083-7.8857536,2.0171585-7.8733912c1.4479904,0.0056369,1.4499016-2.2443557,0-2.25    c-1.0930862-0.0042553-2.1970024-0.1152712-3.2684269,0.1297561c-0.3856983,0.0882064-0.673708,0.4205265-0.7857456,0.7857444    c-1.2390842,4.0391922-0.2225132,9.6389904-0.1798439,13.8589067c0.0428562,4.2386198-0.9463863,10.4995222,0.3935642,14.52913    c0.8876896,2.6695366,3.2840137,2.5814171,5.7241383,2.6576385c3.4637337,0.1082001,9.4657059,1.2254486,12.5815659-0.64538    c2.4176254-1.4515953,1.5841255-4.9427567,1.5876694-7.3405342c0.0082779-5.6016788-0.0235367-11.203371-0.0954361-16.8045921    c-0.0276642-2.1549168,0.4711075-5.4649286-1.8140793-6.7452726c-1.5086823-0.8452834-4.138607-0.3572659-5.7231674-0.3412502    c-3.0282898,0.0306078-6.0565758,0.0612157-9.0848656,0.0918235C32.8855553,0.7442843,32.8818932,2.9943213,34.3325424,2.9796591    L34.3325424,2.9796591z"/></g><g><path class="st0" d="M32.1651802,8.2673512C37.7485466,8.2833691,43.331913,8.299386,48.9152832,8.315403    c1.4479332,0.0041533,1.4499741-2.245841,0-2.2500005c-5.5833702-0.016017-11.1667366-0.0320339-16.750103-0.0480509    C30.7172451,6.0131979,30.7152061,8.2631922,32.1651802,8.2673512L32.1651802,8.2673512z"/></g><g><path class="st0" d="M32.5819931,25.9668598c5.6388893,0,11.2777748,0,16.9166641,0c1.4477692,0,1.4501686-2.25,0-2.25    c-5.6388893,0-11.2777748,0-16.9166641,0C31.1342239,23.7168598,31.1318264,25.9668598,32.5819931,25.9668598    L32.5819931,25.9668598z"/></g><g><path class="st0" d="M40.9986572,28.7168598c1.4477692,0,1.4501686-2.25,0-2.25    C39.5508919,26.4668598,39.5484924,28.7168598,40.9986572,28.7168598L40.9986572,28.7168598z"/></g><g><path class="st0" d="M40.0745888,31.8425941c0.0195351,1.7978058,0.4756889,4.2054024,0.0649834,5.9812775    c0.5713882,2.0380707-0.3147278,3.325779-2.6583557,3.8631363c-0.4537086,0.011364-0.9074135,0.022728-1.3611183,0.0340919    c-3.6436958,0.4495354-7.5762348,0.0013466-11.2525444-0.0004196c-3.9562244-0.0018997-7.9124489-0.0037994-11.8686733-0.0056992    c-1.5237265-0.0007324-4.4771719,0.4233932-5.9343371-0.0028534c-4.5844393-1.3410263-3.8324726-4.5970192-3.8378508-7.7498856    c-0.0065949-3.8662586-0.0131903-7.7325153-0.0197854-11.598772c-0.0025356-1.4863586-0.6514416-4.6058903-0.0098927-5.799387    c1.070457-1.9914093,3.5680828-1.8965826,5.4217372-1.9258518c7.402092-0.1168785,14.8101292-0.0832615,22.2130489-0.1248798    c1.4473705-0.0081377,1.4504719-2.2581549,0-2.25c-6.1702919,0.0346889-12.3405838,0.0693779-18.5108757,0.1040668    c-2.1755686,0.0122309-9.2677498-1.0261431-10.9750595,1.0799036c-0.5193512,0.6406441-0.3262033,1.380888-0.4005008,2.150198    c-0.3025851,3.1331034,0.0111158,6.5163698,0.016488,9.6656427c0.005496,3.22188,0.0109919,6.4437618,0.0164879,9.6656437    c0.003274,1.9193153-0.36012,4.3518486,0.4584877,6.1730537c1.397332,3.1087303,4.6846504,2.8405304,7.6058269,2.8612175    c6.5930443,0.0466919,13.1878929,0.0063362,19.7811222,0.0095024c2.9708462,0.0014305,9.946455,1.3163986,12.5008717-1.0010376    c2.4162979-2.192131,1.0291481-8.4404907,0.999939-11.1289482C42.3088722,30.3956738,40.0588303,30.3919182,40.0745888,31.8425941    L40.0745888,31.8425941z"/></g><g><path class="st0" d="M2.498244,37.6855431c13.1663628-0.1673622,26.3331108-0.20261,39.5001793-0.1057472    c1.4481506,0.0106506,1.4496269-2.2393379,0-2.25C28.831356,35.232933,15.664607,35.2681808,2.498244,35.4355431    C1.0515031,35.4539299,1.0475171,37.7039833,2.498244,37.6855431L2.498244,37.6855431z"/></g><g><path class="st0" d="M15.4254026,51.3047562c1.9101458-1.3934097,4.0034571-1.5417213,6.3037519-1.5817223    c1.3771343-0.0239449,5.5877075-0.5108376,6.5745277,0.6949501c0.9175777,1.1211777,2.501194-0.4788246,1.5909901-1.590992    c-1.5947094-1.9485626-5.3868256-1.359684-7.6052742-1.354332c-2.8784389,0.0069427-5.6112232,0.147007-7.9996138,1.889286    C13.1315556,50.206852,14.2530088,52.1599922,15.4254026,51.3047562L15.4254026,51.3047562z"/></g><g><path class="st0" d="M24.992054,43.9244728c0.0643654,1.2707405,0.1287327,2.5414772,0.1931,3.8122177    c0.0729866,1.4409103,2.3234272,1.4496155,2.25,0c-0.0643673-1.2707405-0.1287346-2.5414772-0.1931-3.8122177    C27.1690674,42.4835625,24.9186268,42.4748535,24.992054,43.9244728L24.992054,43.9244728z"/></g><g><path class="st0" d="M16.3285446,43.3521576c0.3067188,0.817276,0.1879559,1.7886314,0.2044907,2.647007    c0.0199966,1.038147,0.0399952,2.0762901,0.0599937,3.1144371c0.0278549,1.4460297,2.2779465,1.4508324,2.25,0    c-0.0230751-1.1978607-0.0461502-2.3957214-0.0692234-3.5935822c-0.0177383-0.9208374,0.053051-1.8901901-0.2756329-2.7660027    C17.9940624,41.410778,15.8182993,41.992569,16.3285446,43.3521576L16.3285446,43.3521576z"/></g></g></svg>