<?xml version="1.0" ?><!DOCTYPE svg  PUBLIC '-//W3C//DTD SVG 1.1//EN'  'http://www.w3.org/Graphics/SVG/1.1/DTD/svg11.dtd'><svg height="512px" style="enable-background:new 0 0 512 512;" version="1.1" viewBox="0 0 512 512" width="512px" xml:space="preserve" xmlns="http://www.w3.org/2000/svg" xmlns:xlink="http://www.w3.org/1999/xlink"><g id="_x32_62_x2C__outsource_x2C__outsourcing_x2C__allocation_x2C__human_x2C__online"><g><path d="M204.101,235.927h134.537c1.569,0,2.88,1.288,2.88,2.881v158.005h10.049    V224.918h-66.003h-76.379h-17.028h-76.379h-59.14v171.895h10.07V238.808c0-1.593,1.313-2.881,2.881-2.881H204.101z     M96.454,307.551c-1.593,0-2.881-1.287-2.881-2.881c0-1.568,1.288-2.881,2.881-2.881h112.66c1.592,0,2.88,1.313,2.88,2.881    c0,1.594-1.288,2.881-2.88,2.881H96.454z M152.783,320.129c-1.591,0-2.881-1.288-2.881-2.881s1.29-2.881,2.881-2.881h56.331    c1.592,0,2.88,1.288,2.88,2.881s-1.288,2.881-2.88,2.881H152.783z M96.454,332.707c-1.593,0-2.881-1.289-2.881-2.882    s1.288-2.881,2.881-2.881h74.014c1.592,0,2.881,1.288,2.881,2.881s-1.29,2.882-2.881,2.882H96.454z M96.454,345.261    c-1.593,0-2.881-1.288-2.881-2.881c0-1.569,1.288-2.858,2.881-2.858h112.66c1.592,0,2.88,1.289,2.88,2.858    c0,1.593-1.288,2.881-2.88,2.881H96.454z M111.819,357.838c-1.593,0-2.881-1.287-2.881-2.881c0-1.593,1.288-2.881,2.881-2.881    h97.295c1.592,0,2.88,1.288,2.88,2.881c0,1.594-1.288,2.881-2.88,2.881H111.819z M96.454,370.416    c-1.593,0-2.881-1.288-2.881-2.881s1.288-2.881,2.881-2.881h74.014c1.592,0,2.881,1.288,2.881,2.881s-1.29,2.881-2.881,2.881    H96.454z M96.454,382.994c-1.593,0-2.881-1.313-2.881-2.881c0-1.594,1.288-2.881,2.881-2.881h112.66    c1.592,0,2.88,1.287,2.88,2.881c0,1.568-1.288,2.881-2.88,2.881H96.454z M335.756,241.688H72.47v155.124h263.286V241.688z     M165.502,110.385c1.779,0.68,3.607,1.241,5.504,1.663c2.694,0.585,5.55,0.913,8.502,0.913c8.432,0,16.231-2.67,22.603-7.167    c2.178-1.546,4.192-3.325,6.019-5.27l0.281-0.305h0.023c2.881-3.186,5.271-6.839,7.003-10.821    c-3.137-1.218-6.464-2.014-9.907-2.389h-0.093h-0.047l-1.358-0.117h-0.093h-0.025l-0.14-0.023h-0.14h-0.141h-0.047l-0.093-0.023    h-0.117h-0.141h-0.14l0,0l-0.141-0.023h-0.14h-0.141h-0.095h-0.045h-0.141h-0.118h-0.14h-0.047h-0.093l-0.14-0.023h-0.141h-0.14    l-0.398,0.023h-0.118h-0.281h-0.21h-0.165l-0.351,0.023h-0.047h-0.398l-0.046,0.023h-0.328l-0.165,0.023l-0.233,0.023h-0.281    l-0.095,0.023l-0.398,0.023l0,0l-0.374,0.047h-0.118l-0.281,0.023l-0.21,0.023l-0.165,0.023l-0.328,0.047h-0.07l-0.374,0.047    l-0.047,0.023l-0.328,0.047l-0.14,0.023l-0.233,0.023l-0.258,0.047l-0.491,0.094l0,0l-0.375,0.07h-0.093l-0.283,0.07l-0.21,0.023    l-0.469,0.116h-0.07l-0.374,0.094h-0.024l-0.469,0.117l-0.233,0.047l-0.702,0.188h-0.025l-1.381,0.421l-0.07,0.024    c-6.09,1.897-11.548,5.27-15.975,9.673C170.303,101.742,167.494,105.842,165.502,110.385z M210.518,106.59    c-1.546,1.477-3.208,2.834-4.941,4.053c-7.377,5.246-16.372,8.314-26.068,8.314c-3.325,0-6.605-0.375-9.79-1.077    c-2.109-0.469-4.169-1.101-6.161-1.851c-0.819,3.186-1.265,6.512-1.265,9.932c0,10.797,4.38,20.611,11.453,27.66    c7.075,7.098,16.865,11.478,27.687,11.478c10.82,0,20.611-4.38,27.685-11.478c7.096-7.049,11.476-16.863,11.476-27.66    c0-2.624-0.258-5.2-0.749-7.684c-5.878-0.117-11.523-1.381-16.653-3.56C218.529,112.727,214.244,109.963,210.518,106.59z     M220.849,91.951c-1.641,3.701-3.749,7.145-6.254,10.26c3.209,2.904,6.91,5.27,10.937,7.003c3.912,1.64,8.128,2.693,12.578,2.998    c-1.967-5.224-4.989-9.907-8.83-13.796l-0.163-0.141C226.657,95.816,223.87,93.686,220.849,91.951z M201.149,209.601h24.593    l-0.702-21.29l-2.576,2.318l-0.047,0.023l-0.022,0.023l-0.025,0.023l-0.045,0.023l-0.024,0.047l-0.023,0.023l-0.047,0.023    l-20.541,18.362C201.525,209.343,201.337,209.483,201.149,209.601z M206.233,215.362h-11.125v3.794h8.993h2.132V215.362z     M189.368,219.156v-3.794h-16.746c-1.593,0-2.881-1.288-2.881-2.881l1.335-25.624l-52.348,20.564v11.734H189.368z     M211.994,215.362v3.794h70.618v-11.734l-51.879-20.377l0.842,25.343c0.047,1.593-1.195,2.904-2.764,2.951L211.994,215.362z     M217.569,187.303v-19.159c-5.012,1.897-10.446,2.951-16.137,2.951c-6.161,0-12.04-1.241-17.381-3.467v20.448l15.717,15.13l0,0    L217.569,187.303z M197.378,208.875c-5.339-4.967-10.586-10.143-15.833-15.248l-0.281-0.258l-0.281-0.258l-0.281-0.281    l-0.281-0.258l-0.258-0.258l-0.281-0.28l-0.283-0.258l-0.022-0.023l-0.023-0.047l-2.858-2.717l-1.053,20.611h22.601    c-0.188-0.117-0.374-0.234-0.539-0.398l-0.233-0.257l-0.048-0.023l-0.022-0.024L197.378,208.875z M365.644,47.754    c-22.603-4.684-46.354-4.192-69.33,1.944c0.796,2.577,1.851,5.316,3.161,8.222c1.781,3.957,4.029,8.221,6.652,12.835    c3.351,5.832,7.379,14.592,7.941,22.86c0.42,6.183-1.031,12.132-5.903,16.535l-0.141,0.164c-2.483,2.178-6.558,3.443-11.313,4.896    c-9.181,2.787-21.313,6.487-24.686,19.065c-2.811,10.399,1.101,12.577,6.089,15.342c2.576,1.428,5.364,2.975,8.033,5.457    c6.512,6.02,9.018,11.547,11.22,16.395c3.373,7.402,5.903,13,25.553,15.412c9.065,1.148,11.736,2.507,14.641,4.006    c1.616,0.819,3.348,1.709,6.838,2.646c10.4,2.74,23.33-15.107,32.463-27.732c2.764-3.817,5.199-7.213,7.284-9.579    c16.817-19.276,17.239-19.183,31.667-15.716c3.42,0.819,7.754,1.873,13.585,2.834c4.849,0.819,6.77,0.68,6.886,0.023    c0.727-4.545-13.701-17.941-19.019-22.883c-1.218-1.031-2.412-2.227-3.607-3.326c-5.457-5.06-10.446-9.697-12.624-14.475    c-3.139-6.887-0.959-13.164,12.04-19.16l0.28-0.141c3.771-1.615,7.121-3.162,10.025-4.637c1.546-0.797,3.021-1.593,4.38-2.413    l-0.118-0.094l-0.749-0.562l-0.28-0.211l-0.587-0.445l-0.866-0.656l-0.444-0.328l-0.445-0.327l-0.867-0.632l-0.188-0.118    l-0.702-0.515l-0.797-0.563l-0.093-0.047l-0.89-0.633l-0.516-0.351l-0.376-0.258l-0.912-0.608l-0.235-0.164l-0.654-0.422    c-0.914-0.609-1.828-1.195-2.741-1.758l-0.914-0.561c-0.912-0.563-1.827-1.125-2.764-1.664l-0.022-0.023    c-4.052-2.365-8.174-4.52-12.391-6.511l-0.984-0.444C387.801,53.656,376.861,50.073,365.644,47.754z M473.08,256.491    c9.79-22.181,14.192-46.54,12.601-70.945l-1.826,0.305c-1.546,0.233-3.21,0.421-4.896,0.585l-0.211,0.023    c-3.818,0.234-8.456-0.351-13.375-0.96c-11.007-1.405-23.748-2.998-28.339,4.708c-5.106,8.596,1.077,20.447,7.354,32.439    c7.985,15.295,16.091,30.824,4.449,43.588l-0.351,0.375c-2.483,2.202-6.56,3.443-11.313,4.895    c-9.183,2.812-21.315,6.512-24.711,19.066c-2.788,10.398,1.123,12.578,6.114,15.365c2.575,1.404,5.362,2.951,8.033,5.434    c0.796,0.75,1.546,1.476,2.225,2.201l0.047,0.047C448.51,298.112,463.429,278.367,473.08,256.491z M424.291,317.131l-1.592-1.569    c-2.154-1.991-4.638-3.372-6.91-4.614c-7.19-4.005-12.834-7.144-8.877-21.853c4.217-15.646,18.083-19.862,28.599-23.071    c4.029-1.217,7.472-2.295,9.065-3.653c8.97-9.813,1.802-23.539-5.271-37.077c-7.003-13.42-13.937-26.678-7.189-38.014    c6.511-10.938,21.221-9.088,33.962-7.495c4.684,0.585,9.063,1.147,12.32,0.937h0.045c1.406-0.141,2.929-0.328,4.568-0.563    c0.749-0.117,1.476-0.233,2.202-0.351c-2.107-20.424-8.457-40.73-19.347-59.655l-0.07-0.117    c-8.994-15.553-20.33-28.903-33.307-39.865c-1.944,1.242-4.122,2.46-6.512,3.678c-3.162,1.616-6.604,3.209-10.352,4.825    l-0.117,0.046c-9.111,4.193-10.962,7.871-9.275,11.571c1.71,3.724,6.323,7.987,11.337,12.671c1.193,1.102,2.436,2.202,3.583,3.326    c5.949,5.504,22.04,20.471,20.8,28.013c-0.682,4.075-4.522,6.207-13.493,4.708c-5.926-0.984-10.421-2.061-13.981-2.928    c-11.149-2.67-11.478-2.764-26.023,13.912c-1.85,2.132-4.239,5.434-6.955,9.182c-10.071,13.937-24.36,33.658-38.553,29.91    c-4.123-1.102-6.137-2.131-8.035-3.092c-2.41-1.241-4.613-2.389-12.693-3.396c-22.813-2.834-25.951-9.673-30.075-18.761    c-2.015-4.356-4.285-9.369-9.907-14.569c-2.154-2.014-4.638-3.372-6.908-4.637c-7.191-3.982-12.836-7.12-8.854-21.853    c4.192-15.622,18.083-19.862,28.574-23.071c4.076-1.241,7.589-2.318,9.158-3.7l0.142-0.117c3.326-3.044,4.311-7.331,3.982-11.875    c-0.493-7.237-4.124-15.131-7.169-20.399c-2.739-4.779-5.059-9.206-6.933-13.352c-1.405-3.115-2.554-6.113-3.418-8.994    c-10.564,3.256-20.939,7.729-30.917,13.491l-0.118,0.07c-4.051,2.342-7.987,4.872-11.758,7.519    c-2.951,2.107-3.443,2.365-6.207,4.613c6.347,5.317,13.538,27.475,15.928,34.618h4.473c1.594,0,2.882,1.288,2.882,2.882v23.07    c0,1.568-1.288,2.881-2.882,2.881h-17.987c-2.25,6.652-6.021,12.601-10.867,17.449c-2.976,2.975-6.349,5.527-10.05,7.589v16.724    l1.944-1.757c0.844-0.726,1.992-0.89,2.975-0.516l0.398,0.14l0.047,0.047l0.141,0.048l0.07,0.022l0,0l57.664,22.627    c1.125,0.445,1.827,1.545,1.827,2.693v13.678h66.073c1.593,0,2.882,1.289,2.882,2.881v122.638    c8.714-1.288,17.379-3.372,25.928-6.229c9.299-3.162,18.457-7.262,27.334-12.391C415.368,323.314,419.936,320.316,424.291,317.131    z M38.204,456.117c-1.593,0-2.881-1.288-2.881-2.882c0-1.568,1.288-2.88,2.881-2.88h236.585c1.592,0,2.88,1.312,2.88,2.88    c0,1.594-1.288,2.882-2.88,2.882H38.204z M176.745,467.383c-1.593,0-2.881-1.288-2.881-2.881s1.288-2.88,2.881-2.88h163.72    c1.592,0,2.881,1.287,2.881,2.88s-1.289,2.881-2.881,2.881H176.745z M357.21,467.383c-1.591,0-2.88-1.288-2.88-2.881    s1.289-2.88,2.88-2.88h20.472c1.593,0,2.881,1.287,2.881,2.88s-1.288,2.881-2.881,2.881H357.21z M28.882,467.055    c-1.593,0-2.881-1.288-2.881-2.88c0-1.594,1.288-2.882,2.881-2.882h77.572c1.593,0,2.881,1.288,2.881,2.882    c0,1.592-1.288,2.88-2.881,2.88H28.882z M147.702,117.341c3.513-14.334,9.063-32.135,18.644-41.059    c9.602-8.947,21.642-14.475,35.086-14.475c13.654,0,25.833,5.457,35.483,14.451c9.158,8.549,14.92,26.655,18.386,41.082h4.029    v17.31h-13.585c0.539-2.811,0.844-5.715,0.844-8.689c0-2.951-0.305-5.832-0.844-8.62h3.42    c-3.208-13.093-8.292-29.207-16.325-36.702c-8.549-7.986-19.346-12.836-31.408-12.836c-11.852,0-22.485,4.896-31.012,12.859    c-8.409,7.847-13.327,23.656-16.56,36.679h3.257c-0.539,2.788-0.821,5.669-0.821,8.62c0,2.975,0.283,5.879,0.844,8.689h-13.585    v-17.31H147.702z M88.444,204.588c1.593,0,2.881,1.313,2.881,2.881c0,1.593-1.288,2.881-2.881,2.881H33.776v119.898    c0,1.592-1.311,2.88-2.88,2.88c-1.593,0-2.881-1.288-2.881-2.88V207.469c0-1.568,1.288-2.881,2.881-2.881H88.444z     M204.101,402.552H69.589h-0.07H53.686H31.083v15.855c0,4.357,1.781,8.339,4.638,11.195c2.881,2.882,6.84,4.661,11.195,4.661    h314.393c4.357,0,8.316-1.779,11.195-4.661c2.859-2.856,4.639-6.838,4.639-11.195v-15.855h-22.602h-15.833h-0.07H204.101z" style="fill-rule:evenodd;clip-rule:evenodd;"/></g></g><g id="Layer_1"/></svg>