<?xml version="1.0" encoding="utf-8"?>
<!-- Generator: Adobe Illustrator 23.0.3, SVG Export Plug-In . SVG Version: 6.00 Build 0)  -->
<svg version="1.1" xmlns="http://www.w3.org/2000/svg" xmlns:xlink="http://www.w3.org/1999/xlink" x="0px" y="0px"
	 viewBox="0 0 1598 947" style="enable-background:new 0 0 1598 947;" xml:space="preserve">
<style type="text/css">
	.st0{fill:#F9E7BF;}
	.st1{fill:#F5D8BC;}
	.st2{fill:#57433F;}
	.st3{fill:#513C31;}
	.st4{fill:#6D4100;}
	.st5{fill:#3F3F4A;}
	.st6{fill:#B7902D;}
	.st7{fill:#98782C;}
	.st8{fill:#F5D7A1;}
	.st9{fill:#EFC88C;}
	.st10{fill:#F7E1B0;}
	.st11{fill:#F0BD1D;}
	.st12{fill:#576E8C;}
	.st13{fill:#745444;}
	.st14{fill:#E49B22;}
	.st15{fill:#E7A928;}
	.st16{fill:#E89500;}
	.st17{fill:#EEB54C;}
	.st18{fill:#444444;}
	.st19{fill:#FCFAFF;}
	.st20{fill:#B1302D;}
	.st21{fill:#5D6D77;}
	.st22{font-family:'MyriadPro-Regular';}
	.st23{font-size:21px;}
	.st24{font-size:16px;}
	.st25{font-size:24.2325px;}
	.st26{fill:#D45300;}
	.st27{fill:none;}
	.st28{fill:#007EE9;}
	.st29{fill:#09D400;}
	.st30{fill:#FFCB15;}
	.st31{fill:#00DEFF;}
</style>
<g id="Слой_4">
</g>
<g id="admin">
	<path class="st0" d="M757,229c8-2,11-6,11-15s35-5,35-5s-1,11,1,14s5,5,8,5s-12,26-28,25S757,229,757,229z"/>
	<path class="st1" d="M773.6,220.91c0,0-20.8-32.35-25.42-35.82s-11.55-20.8-3.47-25.42c11.22-6.41,19.64-36.97,19.64-36.97
		l50.83,4.62l8.09,34.66c0,0,5.78,1.16,2.31,13.86s-10.4,12.71-10.4,12.71l-23.11,32.35H773.6z"/>
	<path class="st2" d="M748.19,170.08c0,0-6.93-9.24-6.93-26.57s12.71-15.02,12.71-15.02S762.05,110,789.78,110
		c39.28,0,31.19,34.66,46.21,36.97c-6.93,3.47-10.4,0-10.4,0l-1.16,13.86c0,0-5.78,0-5.78,9.24c0-26.57-5.78-32.35-5.78-32.35
		s-6.93-8.09-10.4-8.09s-26.57,5.78-32.35,5.78c-5.78,0-8.86-3.19-8.86-3.19s-1.54,11.28-3.85,13.59
		c-2.31,2.31-9.24,8.09-6.93,24.26C749.34,172.39,748.19,170.08,748.19,170.08z"/>
	<path class="st3" d="M802.49,194.34c-6.93,0-8.09-2.31-18.49-2.31c-10.4,0-11.55,3.47-18.49,3.47c-6.93,0-16.17-17.33-16.17-17.33
		c-2.31,27.73,19.64,50.83,35.82,50.83s33.5-30.04,33.5-51.99C818.66,180.48,809.42,194.34,802.49,194.34z M799.02,205.89
		c-6.93,6.93-8.09,0-17.33,0c-6.93,0-8.09,6.93-13.86,0c-5.78-6.93,6.93-11.55,16.17-11.55
		C793.24,194.34,804.5,200.42,799.02,205.89z"/>
	<circle class="st4" cx="767.25" cy="170.08" r="5.2"/>
	<circle class="st4" cx="800.75" cy="170.08" r="5.2"/>
	<path class="st5" d="M797.87,158.52c-6.93,0-5.78,2.31-11.55,2.31H784h-2.31c-5.78,0-4.62-2.31-11.55-2.31
		c-3.47,0-27.73-2.11-27.73,1.16c0,3.47,5.78,2.31,5.78,5.78c0,17.36,6.93,16.17,17.33,16.17s12.71-10.4,13.86-13.86
		c0.33-1,1.05-1.71,1.91-2.22c1.65-0.98,3.78-0.98,5.43,0c0.85,0.51,1.57,1.22,1.91,2.22c1.16,3.47,3.47,13.86,13.86,13.86
		s17.33,1.19,17.33-16.17c0-3.47,5.78-2.31,5.78-5.78C825.59,156.41,801.33,158.52,797.87,158.52z M773.6,175.85
		c-2.31,3.47-5.78,4.62-11.55,4.62s-12.39-1.29-11.77-12.19c0.22-3.99,0.22-5.14,1.37-6.3c1.16-1.16,4.62-2.31,11.55-2.31
		c6.93,0,12.71,1.16,13.86,4.62S775.91,172.39,773.6,175.85z M805.95,180.48c-5.78,0-9.24-1.16-11.55-4.62
		c-2.31-3.47-4.62-8.09-3.47-11.55s6.93-4.62,13.86-4.62c6.93,0,10.4,1.16,11.55,2.31c1.16,1.16,1.16,2.31,1.37,6.3
		C818.34,179.18,811.73,180.48,805.95,180.48z"/>
	<path class="st6" d="M849,235c-6-6-36-8-36-8s-28,17-29,19c-1-2-27-19-27-19s-30,2-36,8c-18.56,18.56-19,60-19,60h73h20h73
		C868,295,867.56,253.56,849,235z"/>
	<path class="st6" d="M821.91,227.85c-11.57,7.58-33.83,26.46-38.91,28.15c-3.97-3.18-26.89-20.88-36.13-28.01
		C752.62,227.29,757,227,757,227s26,17,27,19c1-2,29-19,29-19S816.77,227.25,821.91,227.85z"/>
	<path class="st7" d="M821.91,227.85c-11.57,7.58-33.83,26.46-38.91,28.15c-3.97-3.18-26.89-20.88-36.13-28.01
		C752.62,227.29,757,226,757,226s26,17,27,19c1-2,29-19,29-19S816.77,227.25,821.91,227.85z"/>
</g>
<g id="worker">
	<path class="st8" d="M408,598c7-3,11-7,11-23c30,0,64.44,34.49,50,38C432,622,408,598,408,598z"/>
	<path class="st9" d="M471,574c0,17,3,21,8,25c-8,10-13,11-13,11s-42-14-49-35S471,574,471,574z"/>
	<path class="st10" d="M483.95,542.73C483.97,541.83,491,504,445,504c-41,0-39.97,37.47-39.93,38.67
		c-9.62-4.35-7.65,9.08-4.07,15.33c2.08,3.64,4.97,4.03,7.27,3.57C415.69,584.24,434.03,591,445,591c11.05,0,28.94-6.86,35.99-29.41
		c2.28,0.43,5.12,0,7.17-3.59C491.75,551.71,493.73,538.18,483.95,542.73z"/>
	<path class="st11" d="M491,599c-7,0-9-5-9-5s-23,18.09-37,18.09S408,594,408,594s-2,5-9,5c-15,0-31,14-31,38s0,31,0,31h154
		c0,0,0-7,0-31S506,599,491,599z"/>
	<path class="st12" d="M494.41,597.49c-4.49-0.08-7.05-0.69-8.44-1.21c-0.72-0.27-1.48,0.26-1.48,1.03v42.19
		c0,5.9-29.93,6.96-39.5,7c-9.57-0.04-39.5-1.1-39.5-7v-42.19c0-0.77-0.76-1.3-1.48-1.03c-1.39,0.52-3.95,1.13-8.44,1.21
		c-0.6,0.01-1.09,0.5-1.09,1.1V668h101v-69.41C495.5,597.99,495.01,597.5,494.41,597.49z"/>
	<path class="st13" d="M408.5,546.5c-2-4-6-3-6-3s0-28,5-29s6,12,6,12S407.5,538.5,408.5,546.5z"/>
	<path class="st13" d="M479.5,546.5c2-4,6-3,6-3s0-28-5-29s-6,12-6,12S480.5,538.5,479.5,546.5z"/>
	<path class="st11" d="M479,495.89v-5.07c0-1-0.81-1.81-1.81-1.81h-6.8c-5.24-3.02-11.81-5.11-19.94-5.76
		c-0.49-1.96-1.3-4.24-2.45-4.24c-2,0-3,0-6,0c-1.73,0-2.79,2.32-3.38,4.29c-7.98,0.72-14.43,2.78-19.58,5.71h-7.22
		c-1,0-1.81,0.81-1.81,1.81v5.44c-9.43,10.58-10.74,25.03-9,33.74c0,0,69,0,86,0C489.99,522.22,489.03,506.92,479,495.89z"/>
	<path class="st14" d="M398,532c0,0,5-11,47-11s46,11,46,11H398z"/>
	<circle class="st4" cx="426.5" cy="548.5" r="4.5"/>
	<circle class="st4" cx="460.5" cy="548.5" r="4.5"/>
</g>
<g id="manager">
	<path class="st15" d="M1067.76,549.16c0,0-11.4-7.6-11.4,3.8c0,14.25,13.3,8.55,13.3,8.55L1067.76,549.16z"/>
	<path class="st15" d="M1141.85,549.16c0,0,11.4-7.6,11.4,3.8c0,14.25-13.3,8.55-13.3,8.55L1141.85,549.16z"/>
	<rect x="1082.96" y="589.06" class="st16" width="44.65" height="24.7"/>
	<path class="st17" d="M1104.81,598.56c-9.5,0-39.9-4.75-39.9-49.4s34.2-44.65,39.9-44.65s41.8,14.25,41.8,46.55
		C1146.6,592.86,1116.2,598.56,1104.81,598.56z"/>
	<path class="st18" d="M1069.66,553.91l-9.37-7.23c0,0-4.88-23.17,11.27-44.06c16.15-20.9,47.5-16.15,47.5-16.15l4.75,9.5
		c0,0,20.9,3.8,23.75,23.75c2.85,19.95,2.6,26.97,2.6,26.97l-8.3,7.23l-0.95-22.8l-18.05-17.1l-53.2,18.05V553.91z"/>
	<circle class="st4" cx="1087.23" cy="553.43" r="4.27"/>
	<circle class="st4" cx="1123.33" cy="553.43" r="4.27"/>
	<polygon class="st19" points="1082.01,663.15 1082.01,608.05 1104.81,611.85 1127.6,608.05 1127.6,663.15 	"/>
	<polygon class="st20" points="1096.26,621.35 1104.81,611.85 1113.35,621.35 1108.61,626.1 1115.25,656.5 1109.56,663.15 
		1100.06,663.15 1094.36,653.65 1097.21,649.85 1101.01,626.1 	"/>
	<path class="st21" d="M1177,666c-33.25,0-143.44,0-143.44,0c0-34.72,24.31-51.47,48.49-57.74l23.7,53.94l22.02-54.2
		C1152.2,614.17,1177,631.26,1177,666z"/>
</g>
<g id="Info_and_arrows">
	<text transform="matrix(1 0 0 1 755.4297 316.4497)" class="st22 st23">Admin</text>
	<text transform="matrix(1 0 0 1 411.0986 692.4497)" class="st22 st23">Arbeiter</text>
	<text transform="matrix(1 0 0 1 1006.0293 692.4497)" class="st22 st23">Firmen und Manager</text>
	<text transform="matrix(1 0 0 1 248.2412 565.5947)"><tspan x="0" y="0" class="st22 st24">verwalten eigene</tspan><tspan x="21.99" y="19.2" class="st22 st24">Arbeitszeit</tspan></text>
	<text transform="matrix(1 0 0 1 1168 122.3105)"><tspan x="0" y="0" class="st22 st25">Zustätzliche Funktionen</tspan><tspan x="0" y="29.08" class="st22 st25">- kommentare bei Ablehnung</tspan><tspan x="0" y="58.16" class="st22 st25">- Geotag für Arbeiter</tspan><tspan x="0" y="87.24" class="st22 st25">- Profilverwaltung</tspan><tspan x="0" y="116.32" class="st22 st25">- flexible kundenorientiere Anpassung</tspan></text>
	<g id="red_arrow">
		<g>
			<g>
				<path class="st26" d="M658.67,271.87c-0.08-0.02-0.11-0.03-0.23-0.06l-0.41-0.07l-0.85-0.15l-1.81-0.28
					c-1.25-0.17-2.5-0.35-3.78-0.48c-1.27-0.16-2.56-0.27-3.86-0.38c-1.29-0.13-2.6-0.21-3.91-0.28
					c-5.23-0.31-10.52-0.42-15.81-0.23c-10.58,0.3-21.19,1.48-31.57,3.7c-10.39,2.19-20.58,5.35-30.38,9.52
					c-9.78,4.21-19.11,9.48-27.83,15.7l-3.28,2.34l-0.82,0.58l-0.78,0.64l-1.56,1.28l-3.12,2.56l-1.56,1.28l-0.78,0.64l-0.74,0.69
					l-5.9,5.55c-1.02,0.9-1.91,1.92-2.83,2.91l-2.77,2.98l-2.78,2.99c-0.88,1.04-1.71,2.11-2.57,3.17c-1.7,2.13-3.46,4.22-5.12,6.4
					l-4.71,6.74c-0.77,1.14-1.62,2.22-2.32,3.41l-2.13,3.53c-11.52,18.8-20.02,39.72-25.98,61.42l-5.97-1.36
					c4.12-22.58,10.91-44.93,21.35-65.94l1.94-3.95c0.64-1.32,1.44-2.56,2.15-3.84l4.41-7.65c1.58-2.49,3.27-4.92,4.9-7.38
					c0.83-1.22,1.64-2.47,2.49-3.68l2.72-3.52l2.73-3.52c0.92-1.17,1.8-2.37,2.82-3.46l5.96-6.68l0.75-0.83l0.8-0.78l1.6-1.57
					l3.21-3.14l1.61-1.57l0.81-0.79l0.85-0.73l3.42-2.93c9.13-7.81,19.14-14.7,29.79-20.45c10.67-5.71,21.94-10.33,33.53-13.86
					c11.59-3.56,23.52-5.97,35.59-7.39c6.04-0.74,12.11-1.17,18.24-1.34c1.53-0.05,3.07-0.09,4.61-0.08
					c1.54-0.01,3.09-0.01,4.65,0.04c1.55,0.02,3.13,0.1,4.71,0.17l2.42,0.16l1.27,0.11l0.65,0.06l0.82,0.09L658.67,271.87z"/>
				<g>
					<path class="st26" d="M461,431c-1.94-11.96-6.27-27.18-12.06-37.22l17.33,10.43l19.99-3.08
						C477.11,408.23,467.33,420.67,461,431z"/>
				</g>
			</g>
		</g>
		<path id="SVGID_x5F_1_x5F_" class="st27" d="M468,358c25-67,88-108,133-117"/>
		<text>		<textPath  xlink:href="#SVGID_x5F_1_x5F_" startOffset="0%">
<tspan  class="st26 st22 st23">legt Arebeiter an</tspan>		</textPath>
</text>
	</g>
	<g id="blue_arrow">
		<g>
			<g>
				<path class="st28" d="M883.67,242.13l0.82-0.09l0.65-0.06l1.27-0.11l2.42-0.16c1.58-0.08,3.16-0.15,4.71-0.17
					c1.56-0.05,3.11-0.05,4.65-0.04c1.54-0.01,3.08,0.03,4.61,0.08c6.13,0.17,12.21,0.6,18.24,1.34
					c12.07,1.42,23.99,3.83,35.59,7.39c11.59,3.54,22.86,8.16,33.53,13.86c10.66,5.74,20.66,12.64,29.79,20.45l3.42,2.93l0.85,0.73
					l0.81,0.79l1.61,1.57l3.21,3.14l1.6,1.57l0.8,0.78l0.75,0.83l5.96,6.68c1.02,1.09,1.91,2.29,2.82,3.46l2.73,3.52l2.72,3.52
					c0.85,1.21,1.66,2.45,2.49,3.68c1.64,2.47,3.33,4.89,4.9,7.38l4.41,7.65c0.71,1.29,1.51,2.52,2.15,3.84l1.94,3.95
					c10.44,21,17.23,43.35,21.35,65.94l-5.97,1.36c-5.96-21.7-14.46-42.61-25.98-61.42l-2.13-3.53c-0.7-1.18-1.55-2.27-2.32-3.41
					l-4.71-6.74c-1.66-2.17-3.42-4.26-5.12-6.4c-0.86-1.06-1.7-2.13-2.57-3.17l-2.78-2.99l-2.77-2.98
					c-0.92-0.99-1.81-2.01-2.83-2.91l-5.9-5.55l-0.74-0.69l-0.78-0.64l-1.56-1.28l-3.12-2.56l-1.56-1.28l-0.78-0.64l-0.82-0.58
					l-3.28-2.34c-8.73-6.22-18.05-11.5-27.83-15.7c-9.8-4.17-19.99-7.33-30.38-9.52c-10.39-2.22-20.99-3.39-31.57-3.7
					c-5.29-0.18-10.58-0.08-15.81,0.23c-1.31,0.07-2.61,0.16-3.91,0.28c-1.3,0.11-2.59,0.22-3.86,0.38
					c-1.29,0.13-2.54,0.31-3.78,0.48l-1.81,0.28l-0.85,0.15l-0.41,0.07c-0.13,0.02-0.15,0.04-0.23,0.06L883.67,242.13z"/>
				<g>
					<path class="st28" d="M1086,431c-6.33-10.33-16.11-22.77-25.27-29.87l19.99,3.07l17.33-10.43
						C1092.27,403.82,1087.94,419.04,1086,431z"/>
				</g>
			</g>
		</g>
		<path id="SVGID_x5F_2_x5F_" class="st27" d="M958,216c128,53,134,121,142,142"/>
		<text>		<textPath  xlink:href="#SVGID_x5F_2_x5F_" startOffset="0%">
<tspan  class="st28 st22 st23">legt Firmen und</tspan>		</textPath>
</text>
		<path id="SVGID_x5F_3_x5F_" class="st27" d="M943,231c128,53,134,121,142,142"/>
		<text>		<textPath  xlink:href="#SVGID_x5F_3_x5F_" startOffset="0%">
<tspan  class="st28 st22 st23">Manager an</tspan>		</textPath>
</text>
	</g>
	<g id="green_arrow">
		<g>
			<g>
				<path class="st29" d="M590.18,648.11c30.89-2.48,61.77-4,92.66-5.07c30.89-1.01,61.77-1.47,92.66-1.48
					c30.89,0.01,61.77,0.46,92.66,1.46c30.89,1.05,61.77,2.59,92.66,5.07v5.81c-30.89,2.49-61.77,4.02-92.66,5.07
					c-30.89,1-61.77,1.45-92.66,1.46c-30.89-0.02-61.77-0.48-92.66-1.48c-30.89-1.06-61.77-2.59-92.66-5.07V648.11z"/>
				<g>
					<path class="st29" d="M560,651c14.2,5.27,31.82,14.26,42.74,23.78l-8.6-23.78l8.6-23.77C591.82,636.75,574.2,645.74,560,651z"
						/>
				</g>
				<g>
					<path class="st29" d="M991,651c-14.2,5.27-31.82,14.26-42.74,23.78l8.6-23.78l-8.6-23.77C959.18,636.75,976.8,645.74,991,651z"
						/>
				</g>
			</g>
		</g>
		<text transform="matrix(1 0 0 1 799.3765 598.1582)"><tspan x="0" y="0" class="st29 st22 st23">weist Arbeiter</tspan><tspan x="3.42" y="25.2" class="st29 st22 st23">managern zu</tspan></text>
	</g>
	<g id="yellow_arrow">
		<g>
			<g>
				<path class="st30" d="M508.9,676.48c15.43,11,32.51,20.3,50.33,28.23c17.84,7.92,36.49,14.38,55.47,19.82
					c38.02,10.82,77.47,17.38,117.22,20.34c39.77,2.92,79.91,2.07,119.62-2.82c39.68-4.93,79.02-13.96,116.48-28.47l1.98,4.74
					c-37.19,16.46-76.71,27.53-116.87,34.45c-40.19,6.87-81.12,9.68-122.02,8.61c-40.89-1.12-81.82-5.92-122.01-15.34
					c-20.08-4.75-40-10.6-59.46-18.16c-19.45-7.58-38.5-16.75-56.54-28.37L508.9,676.48z"/>
				<g>
					<path class="st30" d="M991,706c-8.66,8.47-18.61,20.78-23.49,31.29l-1.46-20.18l-14.03-14.57
						C963.11,705.95,978.91,706.78,991,706z"/>
				</g>
			</g>
		</g>
		<path id="SVGID_x5F_4_x5F_" class="st27" d="M534.5,679.5c85,40,215,90,409,35"/>
		<text>		<textPath  xlink:href="#SVGID_x5F_4_x5F_" startOffset="0.024%">
<tspan  class="st30 st22 st24"> schickt abgeschlossene Arbeitsabschnitte zu Bestätigung</tspan>		</textPath>
</text>
	</g>
	<g id="cyan_arrow">
		<g>
			<g>
				<path class="st31" d="M1108.55,713.62c-3.91,6.86-8.21,13.45-12.98,19.62c-4.81,6.12-9.86,12.04-15.35,17.46
					c-10.82,11.01-22.81,20.59-35.32,29.22c-12.52,8.62-25.63,16.22-39.12,22.94c-13.48,6.73-27.32,12.65-41.38,17.85
					c-28.14,10.4-57.17,18-86.54,23.24c-29.38,5.23-59.14,8.09-88.92,8.64c-29.78,0.5-59.59-1.34-89.04-5.67
					c-14.72-2.17-29.35-4.94-43.82-8.42c-14.46-3.49-28.76-7.64-42.83-12.48c-28.1-9.71-55.32-22.12-80.66-37.67
					c-25.35-15.51-48.86-34-69.69-55.13l3.18-3.19c21,20.41,44.53,38.12,69.77,52.85c25.23,14.76,52.22,26.38,80,35.32
					c13.9,4.46,28.01,8.24,42.27,11.36c14.26,3.11,28.67,5.52,43.14,7.34c28.95,3.63,58.2,4.82,87.33,3.71
					c29.13-1.16,58.16-4.57,86.69-10.27c28.52-5.71,56.57-13.71,83.51-24.31c13.46-5.31,26.64-11.27,39.39-17.98
					c12.75-6.69,25.04-14.17,36.62-22.51c11.57-8.34,22.51-17.49,32.13-27.72c4.9-5.04,9.31-10.46,13.49-16
					c4.13-5.58,7.75-11.44,11.03-17.45L1108.55,713.62z"/>
				<g>
					<path class="st31" d="M448,714c10.86,5.38,25.75,10.71,37.29,11.85l-18.57,8.03l-9.13,18.05
						C457.15,740.35,452.72,725.16,448,714z"/>
				</g>
			</g>
		</g>
		<path id="SVGID_x5F_5_x5F_" class="st27" d="M491.5,738.5c0,0,109,94,265,94s268-64,320-124"/>
		<text>		<textPath  xlink:href="#SVGID_x5F_5_x5F_" startOffset="0.6105%">
<tspan  class="st31 st22 st24">bestätigt Arbeitsabschnitte oder lehnt sie ab</tspan>		</textPath>
</text>
	</g>
	<g>
		<path class="st29" d="M803.49,333.5c-0.66,6.5-1.23,13-1.82,19.5l-1.63,19.5c-0.99,13-2,26-2.9,39c-1.79,26-3.38,52-4.76,78
			c-1.35,26-2.62,52-3.64,78c-0.56,13-1,26-1.47,39c-0.1,3.25-0.28,6.5-0.31,9.75c-0.02,3.25,0.14,6.5,0.51,9.75
			c0.37,3.25,0.95,6.5,1.81,9.75c0.88,3.25,1.92,6.5,3.66,9.75h-18.88c1.74-3.25,2.78-6.5,3.66-9.75c0.85-3.25,1.43-6.5,1.81-9.75
			c0.37-3.25,0.53-6.5,0.51-9.75c-0.03-3.25-0.21-6.5-0.31-9.75c-0.48-13-0.91-26-1.47-39c-1.02-26-2.28-52-3.64-78
			c-1.38-26-2.96-52-4.76-78c-0.9-13-1.92-26-2.9-39l-1.63-19.5c-0.59-6.5-1.16-13-1.82-19.5H803.49z"/>
	</g>
</g>
</svg>
