<?xml version="1.0"?>
<svg xmlns="http://www.w3.org/2000/svg" id="Layer_1" data-name="Layer 1" viewBox="0 0 512 512"><title>Database to Database</title>
    <path d="M126.639,370.071H104.1a6,6,0,0,0,0,12h22.544a6,6,0,1,0,0-12Z"/>
    <path d="M103.878,430.627h22.544a6,6,0,0,0,0-12H103.878a6,6,0,1,0,0,12Z"/>
    <path d="M126.422,465.45H103.878a6,6,0,1,0,0,12h22.544a6,6,0,0,0,0-12Z"/>
    <path d="M447.725,303.336c-13.285-4.807-30.69-7.518-49.189-7.694l-90.3-87.4c19.076-7.2,23.135-16.433,23.135-22.97V42.243c0-6.664-4.212-16.133-24.275-23.394-13.739-4.973-31.885-7.711-51.092-7.711s-37.353,2.738-51.092,7.711c-20.063,7.261-24.275,16.73-24.275,23.394V185.271c0,6.537,4.059,15.769,23.135,22.97l-90.3,87.4c-18.5.176-35.9,2.887-49.189,7.694C44.212,310.6,40,320.065,40,326.729V469.757c0,6.667,4.211,16.138,24.273,23.4,13.736,4.971,31.881,7.708,51.094,7.708s37.358-2.737,51.094-7.708c20.061-7.259,24.272-16.73,24.272-23.4V404.244H321.267v65.513c0,6.667,4.211,16.138,24.272,23.4,13.736,4.971,31.882,7.708,51.094,7.708s37.358-2.737,51.094-7.708C467.789,485.9,472,476.424,472,469.757V326.729C472,320.065,467.788,310.6,447.725,303.336ZM460,420.87v.991c0,2.858-4.283,7.744-16.356,12.113-12.46,4.508-29.156,6.991-47.011,6.991s-34.55-2.483-47.01-6.991c-12.073-4.369-16.356-9.255-16.356-12.113V391.9a64.331,64.331,0,0,0,12.272,5.791c13.736,4.97,31.882,7.707,51.094,7.707s37.358-2.737,51.094-7.707A64.309,64.309,0,0,0,460,391.9Zm0-46.575c0,2.858-4.283,7.745-16.356,12.113-12.46,4.509-29.156,6.991-47.011,6.991s-34.55-2.482-47.01-6.991c-12.073-4.368-16.356-9.255-16.356-12.113V344.33a64.361,64.361,0,0,0,12.275,5.793c13.739,4.972,31.884,7.71,51.091,7.71s37.352-2.738,51.092-7.71A64.39,64.39,0,0,0,460,344.33Zm0-47.566c0,3.081-5.059,8.02-16.359,12.11-12.463,4.511-29.158,6.994-47.008,6.994s-34.544-2.483-47.008-6.994c-11.3-4.09-16.358-9.029-16.358-12.11s5.058-8.019,16.358-12.109c12.464-4.511,29.158-7,47.008-7s34.545,2.484,47.008,7C454.941,318.71,460,323.649,460,326.729ZM319.367,89.809c0,2.857-4.283,7.744-16.356,12.112-12.46,4.509-29.156,6.992-47.011,6.992s-34.551-2.483-47.011-6.992c-12.073-4.368-16.356-9.255-16.356-12.112V59.843a64.39,64.39,0,0,0,12.275,5.793c13.739,4.972,31.885,7.711,51.092,7.711s37.353-2.739,51.092-7.711a64.39,64.39,0,0,0,12.275-5.793ZM192.633,136.383v-28.97a64.309,64.309,0,0,0,12.273,5.792c13.737,4.97,31.882,7.708,51.094,7.708s37.357-2.738,51.094-7.708a64.309,64.309,0,0,0,12.273-5.792v29.962c0,2.857-4.283,7.744-16.356,12.112-12.46,4.509-29.156,6.992-47.011,6.992s-34.551-2.483-47.011-6.992c-12.073-4.368-16.356-9.255-16.356-12.112Zm16.359-106.25c12.463-4.51,29.158-6.995,47.008-6.995s34.545,2.485,47.008,6.995c11.3,4.09,16.359,9.029,16.359,12.11s-5.058,8.019-16.359,12.109c-12.463,4.511-29.157,7-47.008,7s-34.545-2.484-47.008-7c-11.3-4.09-16.359-9.029-16.359-12.109S197.691,34.223,208.992,30.133ZM192.633,185.271V154.979a64.309,64.309,0,0,0,12.273,5.792c13.737,4.97,31.882,7.708,51.094,7.708s37.357-2.738,51.094-7.708a64.309,64.309,0,0,0,12.273-5.792v30.292c0,2.857-4.283,7.744-16.356,12.112-12.46,4.509-29.156,6.992-47.011,6.992s-34.551-2.483-47.011-6.992C196.916,193.015,192.633,188.128,192.633,185.271ZM68.359,314.62c12.463-4.511,29.158-7,47.008-7s34.544,2.484,47.008,7c11.3,4.09,16.358,9.029,16.358,12.109s-5.058,8.02-16.358,12.11c-12.464,4.511-29.158,6.994-47.008,6.994s-34.545-2.483-47.008-6.994C57.059,334.749,52,329.81,52,326.729S57.059,318.71,68.359,314.62ZM178.733,374.3c0,2.858-4.283,7.745-16.356,12.113-12.459,4.509-29.154,6.991-47.01,6.991s-34.551-2.482-47.011-6.991C56.283,382.04,52,377.153,52,374.3V344.33a64.39,64.39,0,0,0,12.275,5.793c13.74,4.972,31.885,7.71,51.092,7.71s37.352-2.738,51.091-7.71a64.361,64.361,0,0,0,12.275-5.793ZM52,420.87V391.9a64.309,64.309,0,0,0,12.273,5.792c13.737,4.97,31.882,7.707,51.094,7.707s37.358-2.737,51.093-7.707a64.28,64.28,0,0,0,12.273-5.792v29.961c0,2.858-4.283,7.744-16.356,12.113-12.46,4.508-29.155,6.991-47.01,6.991s-34.551-2.483-47.011-6.991C56.283,429.605,52,424.719,52,421.861Zm110.377,61c-12.46,4.509-29.154,6.992-47.01,6.992s-34.551-2.483-47.011-6.992C56.283,477.5,52,472.615,52,469.757V439.466a64.309,64.309,0,0,0,12.273,5.792c13.737,4.97,31.882,7.707,51.094,7.707s37.358-2.737,51.094-7.707a64.268,64.268,0,0,0,12.272-5.792v30.291C178.733,472.615,174.45,477.5,162.377,481.87Zm28.356-89.626V326.729c0-6.664-4.212-16.132-24.275-23.393-10.145-3.671-22.695-6.12-36.3-7.153l86.783-83.994a184.3,184.3,0,0,0,78.114,0l86.783,83.994c-13.6,1.033-26.153,3.482-36.3,7.153-20.063,7.261-24.275,16.729-24.275,23.393v65.515ZM443.644,481.87c-12.46,4.509-29.156,6.992-47.011,6.992s-34.55-2.483-47.01-6.992c-12.073-4.368-16.356-9.255-16.356-12.113V439.466a64.268,64.268,0,0,0,12.272,5.792c13.736,4.97,31.882,7.707,51.094,7.707s37.357-2.737,51.094-7.707A64.309,64.309,0,0,0,460,439.466v30.291C460,472.615,455.717,477.5,443.644,481.87Z"/>
    <path d="M407.905,370.071H385.361a6,6,0,0,0,0,12h22.544a6,6,0,0,0,0-12Z"/>
    <path d="M407.688,418.627H385.145a6,6,0,0,0,0,12h22.543a6,6,0,0,0,0-12Z"/>
    <path d="M407.688,465.45H385.145a6,6,0,0,0,0,12h22.543a6,6,0,0,0,0-12Z"/>
    <path d="M267.272,85.584H244.728a6,6,0,0,0,0,12h22.544a6,6,0,0,0,0-12Z"/>
    <path d="M244.511,146.141h22.545a6,6,0,0,0,0-12H244.511a6,6,0,0,0,0,12Z"/>
    <path d="M244.511,192.963h22.545a6,6,0,0,0,0-12H244.511a6,6,0,0,0,0,12Z"/>
</svg>
