<svg id="Слой_2" data-name="Слой 2" xmlns="http://www.w3.org/2000/svg" viewBox="0 0 759.63 323.54"><defs><style>.cls-1{fill:#ff7712;}.cls-2{fill:#7c7667;}</style></defs><title>BurningEngineering-03</title><path d="M166.21,119a155.1,155.1,0,0,1,29.33-2.59c16.05,0,26.39,2.77,34.13,9,6.46,4.8,10.34,12.18,10.34,22,0,12-7.94,22.51-21,27.3v.37c11.81,2.95,25.65,12.73,25.65,31.18a33.51,33.51,0,0,1-10.52,24.91c-8.67,7.93-22.69,11.62-43,11.62a187.19,187.19,0,0,1-24.91-1.48Zm16,50.92h14.57c17,0,26.94-8.86,26.94-20.85,0-14.58-11.07-20.3-27.3-20.3a69.06,69.06,0,0,0-14.21,1.11Zm0,59.59a86.2,86.2,0,0,0,13.47.74c16.6,0,31.92-6.09,31.92-24.17,0-17-14.58-24-32.11-24H182.26Z" transform="translate(-5.81 -8.94)"/><path d="M346.46,217.31c0,9.23.18,17.34.74,24.35H332.81l-.92-14.57h-.37A33.62,33.62,0,0,1,302,243.69c-14,0-30.81-7.75-30.81-39.11V152.37h16.23v49.44c0,17,5.17,28.42,19.93,28.42,10.88,0,18.45-7.57,21.4-14.76a23.82,23.82,0,0,0,1.47-8.31V152.37h16.24Z" transform="translate(-5.81 -8.94)"/><path d="M379.49,180.23c0-10.52-.19-19.56-.74-27.86H393l.56,17.53h.73c4.06-12,13.84-19.56,24.73-19.56a17.55,17.55,0,0,1,4.61.55v15.32a24.31,24.31,0,0,0-5.54-.56c-11.43,0-19.55,8.67-21.77,20.85a46.72,46.72,0,0,0-.73,7.56v47.6H379.49Z" transform="translate(-5.81 -8.94)"/><path d="M440.55,176.54c0-9.23-.18-16.79-.74-24.17h14.4l.92,14.76h.37c4.42-8.49,14.76-16.79,29.52-16.79,12.36,0,31.54,7.38,31.54,38v53.31H500.33V190.19c0-14.39-5.35-26.38-20.66-26.38-10.71,0-19,7.56-21.77,16.6a23.31,23.31,0,0,0-1.11,7.57v53.68H440.55Z" transform="translate(-5.81 -8.94)"/><path d="M561,127.28c.18,5.53-3.88,10-10.33,10a9.66,9.66,0,0,1-9.78-10,9.89,9.89,0,0,1,10.14-10.15C557.15,117.13,561,121.56,561,127.28ZM543,241.66V152.37h16.23v89.29Z" transform="translate(-5.81 -8.94)"/><path d="M586.12,176.54c0-9.23-.19-16.79-.74-24.17h14.39l.92,14.76h.37c4.43-8.49,14.76-16.79,29.52-16.79,12.36,0,31.55,7.38,31.55,38v53.31H645.89V190.19c0-14.39-5.35-26.38-20.66-26.38-10.7,0-19,7.56-21.77,16.6a23.31,23.31,0,0,0-1.11,7.57v53.68H586.12Z" transform="translate(-5.81 -8.94)"/><path d="M765.45,152.37c-.37,6.46-.74,13.65-.74,24.54v51.84c0,20.48-4.06,33-12.73,40.77-8.67,8.12-21.22,10.7-32.47,10.7-10.7,0-22.51-2.58-29.71-7.38l4.06-12.36a50.38,50.38,0,0,0,26.2,7c16.61,0,28.78-8.67,28.78-31.18v-10h-.37c-5,8.3-14.57,14.94-28.41,14.94-22.14,0-38-18.81-38-43.54,0-30.25,19.74-47.41,40.22-47.41,15.49,0,24,8.12,27.85,15.5h.37l.74-13.47Zm-16.79,35.24a23.33,23.33,0,0,0-.92-7.38c-3-9.41-10.89-17.16-22.7-17.16-15.5,0-26.56,13.1-26.56,33.76,0,17.53,8.85,32.1,26.38,32.1,10,0,19-6.27,22.51-16.6a28.31,28.31,0,0,0,1.29-8.67Z" transform="translate(-5.81 -8.94)"/><path d="M181.65,289.36c.19,11.8,7.73,16.65,16.45,16.65a31.68,31.68,0,0,0,13.28-2.47l1.49,6.24c-3.07,1.39-8.33,3-16,3-14.77,0-23.59-9.71-23.59-24.18s8.52-25.87,22.5-25.87c15.66,0,19.82,13.78,19.82,22.6a33,33,0,0,1-.29,4.06Zm25.57-6.24c.1-5.55-2.28-14.18-12.09-14.18-8.83,0-12.69,8.13-13.39,14.18Z" transform="translate(-5.81 -8.94)"/><path d="M226.45,276.77c0-4.95-.1-9-.4-13h7.73l.5,7.93h.2a17.64,17.64,0,0,1,15.86-9c6.64,0,17,4,17,20.42v28.64h-8.73V284.11c0-7.73-2.87-14.18-11.1-14.18a12.81,12.81,0,0,0-12.29,13v28.84h-8.72Z" transform="translate(-5.81 -8.94)"/><path d="M322.8,263.79c-.2,3.47-.4,7.33-.4,13.18v27.85c0,11-2.18,17.75-6.84,21.91-4.66,4.36-11.4,5.75-17.45,5.75-5.74,0-12.09-1.39-15.95-4l2.18-6.64a27,27,0,0,0,14.07,3.77c8.92,0,15.47-4.66,15.47-16.75v-5.35h-.2c-2.68,4.46-7.83,8-15.27,8-11.89,0-20.42-10.11-20.42-23.39,0-16.25,10.61-25.47,21.61-25.47,8.33,0,12.89,4.36,15,8.32h.2l.39-7.23Zm-9,18.93a12.28,12.28,0,0,0-.5-4c-1.59-5.06-5.85-9.22-12.19-9.22-8.33,0-14.28,7-14.28,18.14,0,9.41,4.76,17.24,14.18,17.24A12.75,12.75,0,0,0,313.08,296a15,15,0,0,0,.7-4.66Z" transform="translate(-5.81 -8.94)"/><path d="M346,250.31c.1,3-2.08,5.35-5.55,5.35a5.19,5.19,0,0,1-5.25-5.35,5.31,5.31,0,0,1,5.45-5.45A5.17,5.17,0,0,1,346,250.31Zm-9.71,61.45v-48H345v48Z" transform="translate(-5.81 -8.94)"/><path d="M359.47,276.77c0-4.95-.1-9-.39-13h7.73l.49,7.93h.2a17.64,17.64,0,0,1,15.86-9c6.64,0,16.95,4,16.95,20.42v28.64h-8.72V284.11c0-7.73-2.88-14.18-11.1-14.18a12.77,12.77,0,0,0-12.29,13v28.84h-8.73Z" transform="translate(-5.81 -8.94)"/><path d="M419.34,289.36c.2,11.8,7.73,16.65,16.46,16.65a31.68,31.68,0,0,0,13.28-2.47l1.49,6.24c-3.08,1.39-8.33,3-16,3-14.77,0-23.59-9.71-23.59-24.18s8.52-25.87,22.5-25.87c15.66,0,19.82,13.78,19.82,22.6a32.57,32.57,0,0,1-.3,4.06Zm25.58-6.24c.1-5.55-2.28-14.18-12.1-14.18-8.82,0-12.68,8.13-13.38,14.18Z" transform="translate(-5.81 -8.94)"/><path d="M469,289.36c.2,11.8,7.74,16.65,16.46,16.65a31.68,31.68,0,0,0,13.28-2.47l1.49,6.24c-3.08,1.39-8.33,3-16,3-14.77,0-23.59-9.71-23.59-24.18s8.52-25.87,22.5-25.87c15.66,0,19.82,13.78,19.82,22.6a35.13,35.13,0,0,1-.29,4.06Zm25.58-6.24c.1-5.55-2.28-14.18-12.1-14.18-8.82,0-12.68,8.13-13.38,14.18Z" transform="translate(-5.81 -8.94)"/><path d="M513.81,278.76c0-5.65-.1-10.51-.4-15H521l.3,9.42h.4c2.18-6.45,7.43-10.51,13.28-10.51a9.36,9.36,0,0,1,2.48.3v8.22a13,13,0,0,0-3-.3c-6.14,0-10.5,4.66-11.69,11.2a24.39,24.39,0,0,0-.4,4.07v25.57h-8.62Z" transform="translate(-5.81 -8.94)"/><path d="M556.33,250.31c.1,3-2.08,5.35-5.55,5.35a5.19,5.19,0,0,1-5.25-5.35,5.31,5.31,0,0,1,5.45-5.45A5.17,5.17,0,0,1,556.33,250.31Zm-9.71,61.45v-48h8.72v48Z" transform="translate(-5.81 -8.94)"/><path d="M569.81,276.77c0-4.95-.1-9-.39-13h7.73l.49,7.93h.2a17.64,17.64,0,0,1,15.86-9c6.64,0,16.95,4,16.95,20.42v28.64h-8.72V284.11c0-7.73-2.88-14.18-11.1-14.18a12.77,12.77,0,0,0-12.29,13v28.84h-8.73Z" transform="translate(-5.81 -8.94)"/><path d="M666.16,263.79c-.2,3.47-.4,7.33-.4,13.18v27.85c0,11-2.18,17.75-6.84,21.91-4.66,4.36-11.4,5.75-17.44,5.75-5.75,0-12.1-1.39-16-4l2.18-6.64a27,27,0,0,0,14.08,3.77c8.92,0,15.46-4.66,15.46-16.75v-5.35H657c-2.68,4.46-7.83,8-15.26,8-11.9,0-20.42-10.11-20.42-23.39,0-16.25,10.6-25.47,21.6-25.47,8.33,0,12.89,4.36,15,8.32h.2l.4-7.23Zm-9,18.93a12.28,12.28,0,0,0-.5-4c-1.58-5.06-5.85-9.22-12.19-9.22-8.33,0-14.27,7-14.27,18.14,0,9.41,4.76,17.24,14.17,17.24a12.76,12.76,0,0,0,12.1-8.92,15.3,15.3,0,0,0,.69-4.66Z" transform="translate(-5.81 -8.94)"/><path class="cls-1" d="M151.31,170.49a73.69,73.69,0,0,0-21.66-42.88c-10.87-10.45-22.38-18.58-31-31.35-17.67-26.19-21-59.08-6-87.32C65.9,16.85,56,55.11,59.69,78.91a50.05,50.05,0,0,0-21.13-3.43C53.14,82.92,56.31,98,47,111.14,41.9,118.23,33.92,122,27.75,128a73.16,73.16,0,0,0-.28,104.44,70.66,70.66,0,0,0,28.74,17.4c-14.14-7.05-26.11-22.05-20-47.34,6.64-27.38,42-31.89,40.43-61.08,7.45,21.08,13.83,20.54,18.62,31.35C101,185.57,90,190,90,190s27.13,4.32,28.19,28.1c.68,15-5.46,24.29-14.18,29.72C133.57,236.56,156.31,207.29,151.31,170.49Z" transform="translate(-5.81 -8.94)"/><path class="cls-2" d="M57,264.91H90.53a0,0,0,0,1,0,0v2.39a16.76,16.76,0,0,1-16.76,16.76h0A16.76,16.76,0,0,1,57,267.31v-2.39A0,0,0,0,1,57,264.91Z"/><path class="cls-2" d="M50.07,243.63h49a3.69,3.69,0,0,1,3.69,3.69v0a13.33,13.33,0,0,1-13.33,13.33H59.71a13.33,13.33,0,0,1-13.33-13.33v0a3.69,3.69,0,0,1,3.69-3.69Z"/></svg>