<?xml version="1.0" encoding="utf-8"?>
<!-- Generator: Adobe Illustrator 23.0.3, SVG Export Plug-In . SVG Version: 6.00 Build 0)  -->
<svg version="1.1" id="green_arrow" xmlns="http://www.w3.org/2000/svg" xmlns:xlink="http://www.w3.org/1999/xlink" x="0px"
	 y="0px" viewBox="0 0 628 370" style="enable-background:new 0 0 628 370;" xml:space="preserve">
<style type="text/css">
	.st0{fill:#09D400;}
	.st1{font-family:'MyriadPro-Regular';}
	.st2{font-size:21px;}
</style>
<g>
	<g>
		<path class="st0" d="M44.18,327.88c44.89-2.82,89.78-4.42,134.67-5.54c44.89-1.1,89.78-1.55,134.66-1.53
			c44.89,0.05,89.77,0.54,134.66,1.72c44.89,1.19,89.77,2.87,134.66,5.78l0,4.32c-44.89,2.84-89.78,4.44-134.67,5.56
			c-44.89,1.11-89.78,1.52-134.66,1.5c-44.89-0.05-89.77-0.57-134.66-1.75c-44.89-1.19-89.77-2.87-134.66-5.76L44.18,327.88z"/>
		<g>
			<path class="st0" d="M14,330c14.19,5.28,31.8,14.28,42.72,23.81l-8.58-23.79l8.62-23.77C45.83,315.77,28.2,324.75,14,330z"/>
		</g>
		<g>
			<path class="st0" d="M613,330.5c-14.2,5.26-31.83,14.23-42.76,23.74l8.62-23.77l-8.58-23.78
				C581.2,316.22,598.81,325.22,613,330.5z"/>
		</g>
	</g>
</g>
<text transform="matrix(1 0 0 1 326.3765 277.1582)"><tspan x="0" y="0" class="st0 st1 st2">weist Arbeiter</tspan><tspan x="3.42" y="25.2" class="st0 st1 st2">managern zu</tspan></text>
<g>
	<path class="st0" d="M330.49,12.5c-0.66,6.5-1.23,13-1.82,19.5l-1.63,19.5c-0.99,13-2,26-2.9,39c-1.79,26-3.38,52-4.76,78
		c-1.35,26-2.62,52-3.64,78c-0.56,13-1,26-1.47,39c-0.1,3.25-0.28,6.5-0.31,9.75c-0.02,3.25,0.14,6.5,0.51,9.75
		c0.37,3.25,0.95,6.5,1.81,9.75c0.88,3.25,1.92,6.5,3.66,9.75h-18.88c1.74-3.25,2.78-6.5,3.66-9.75c0.85-3.25,1.43-6.5,1.81-9.75
		c0.37-3.25,0.53-6.5,0.51-9.75c-0.03-3.25-0.21-6.5-0.31-9.75c-0.48-13-0.91-26-1.47-39c-1.02-26-2.28-52-3.64-78
		c-1.38-26-2.96-52-4.76-78c-0.9-13-1.92-26-2.9-39L292.33,32c-0.59-6.5-1.16-13-1.82-19.5H330.49z"/>
</g>
</svg>
