<?xml version="1.0" encoding="utf-8"?>
<!-- Generator: Adobe Illustrator 23.0.3, SVG Export Plug-In . SVG Version: 6.00 Build 0)  -->
<svg version="1.1" id="green_arrow" xmlns="http://www.w3.org/2000/svg" xmlns:xlink="http://www.w3.org/1999/xlink" x="0px"
	 y="0px" viewBox="0 0 451 369" style="enable-background:new 0 0 451 369;" xml:space="preserve">
<style type="text/css">
	.st0{fill:#09D400;}
	.st1{font-family:'MyriadPro-Regular';}
	.st2{font-size:21px;}
</style>
<g>
	<g>
		<path class="st0" d="M42.18,327.11c30.89-2.48,61.77-4,92.66-5.07c30.89-1.01,61.77-1.47,92.66-1.48
			c30.89,0.01,61.77,0.46,92.66,1.46c30.89,1.05,61.77,2.59,92.66,5.07v5.81c-30.89,2.49-61.77,4.02-92.66,5.07
			c-30.89,1-61.77,1.45-92.66,1.46c-30.89-0.02-61.77-0.48-92.66-1.48c-30.89-1.06-61.77-2.59-92.66-5.07V327.11z"/>
		<g>
			<path class="st0" d="M12,330c14.2,5.27,31.82,14.26,42.74,23.78L46.14,330l8.6-23.77C43.82,315.75,26.2,324.74,12,330z"/>
		</g>
		<g>
			<path class="st0" d="M443,330c-14.2,5.27-31.82,14.26-42.74,23.78l8.6-23.78l-8.6-23.77C411.18,315.75,428.8,324.74,443,330z"/>
		</g>
	</g>
</g>
<text transform="matrix(1 0 0 1 251.3765 277.1582)"><tspan x="0" y="0" class="st0 st1 st2">Weist Arbeiter</tspan><tspan x="3.42" y="25.2" class="st0 st1 st2">managern zu</tspan></text>
<g>
	<path class="st0" d="M255.49,12.5c-0.66,6.5-1.23,13-1.82,19.5l-1.63,19.5c-0.99,13-2,26-2.9,39c-1.79,26-3.38,52-4.76,78
		c-1.35,26-2.62,52-3.64,78c-0.56,13-1,26-1.47,39c-0.1,3.25-0.28,6.5-0.31,9.75c-0.02,3.25,0.14,6.5,0.51,9.75
		c0.37,3.25,0.95,6.5,1.81,9.75c0.88,3.25,1.92,6.5,3.66,9.75h-18.88c1.74-3.25,2.78-6.5,3.66-9.75c0.85-3.25,1.43-6.5,1.81-9.75
		c0.37-3.25,0.53-6.5,0.51-9.75c-0.03-3.25-0.21-6.5-0.31-9.75c-0.48-13-0.91-26-1.47-39c-1.02-26-2.28-52-3.64-78
		c-1.38-26-2.96-52-4.76-78c-0.9-13-1.92-26-2.9-39L217.33,32c-0.59-6.5-1.16-13-1.82-19.5H255.49z"/>
</g>
</svg>
