<?xml version="1.0" encoding="utf-8"?>
<!-- Generator: Adobe Illustrator 23.0.3, SVG Export Plug-In . SVG Version: 6.00 Build 0)  -->
<svg version="1.1" id="manager" xmlns="http://www.w3.org/2000/svg" xmlns:xlink="http://www.w3.org/1999/xlink" x="0px" y="0px"
	 viewBox="0 0 161 189" style="enable-background:new 0 0 161 189;" xml:space="preserve">
<style type="text/css">
	.st0{fill:#E7A928;}
	.st1{fill:#E89500;}
	.st2{fill:#EEB54C;}
	.st3{fill:#444444;}
	.st4{fill:#6D4100;}
	.st5{fill:#FCFAFF;}
	.st6{fill:#B1302D;}
	.st7{fill:#5D6D77;}
</style>
<path class="st0" d="M44.76,72.16c0,0-11.4-7.6-11.4,3.8c0,14.25,13.3,8.55,13.3,8.55L44.76,72.16z"/>
<path class="st0" d="M118.85,72.16c0,0,11.4-7.6,11.4,3.8c0,14.25-13.3,8.55-13.3,8.55L118.85,72.16z"/>
<rect x="59.96" y="112.06" class="st1" width="44.65" height="24.7"/>
<path class="st2" d="M81.81,121.56c-9.5,0-39.9-4.75-39.9-49.4s34.2-44.65,39.9-44.65c5.7,0,41.8,14.25,41.8,46.55
	C123.6,115.86,93.2,121.56,81.81,121.56z"/>
<path class="st3" d="M46.66,76.91l-9.37-7.23c0,0-4.88-23.17,11.27-44.06s47.5-16.15,47.5-16.15l4.75,9.5c0,0,20.9,3.8,23.75,23.75
	s2.6,26.97,2.6,26.97l-8.3,7.23l-0.95-22.8l-18.05-17.1l-53.2,18.05V76.91z"/>
<circle class="st4" cx="64.23" cy="76.43" r="4.27"/>
<circle class="st4" cx="100.33" cy="76.43" r="4.27"/>
<polygon class="st5" points="59.01,186.15 59.01,131.05 81.81,134.85 104.6,131.05 104.6,186.15 "/>
<polygon class="st6" points="73.26,144.35 81.81,134.85 90.35,144.35 85.61,149.1 92.25,179.5 86.56,186.15 77.06,186.15 
	71.36,176.65 74.21,172.85 78.01,149.1 "/>
<path class="st7" d="M154,189c-33.25,0-143.44,0-143.44,0c0-34.72,24.31-51.47,48.49-57.74l23.7,53.94l22.02-54.2
	C129.2,137.17,154,154.26,154,189z"/>
</svg>
