<?xml version="1.0" encoding="utf-8"?>
<!-- Generator: Adobe Illustrator 23.0.3, SVG Export Plug-In . SVG Version: 6.00 Build 0)  -->
<svg version="1.1" id="red_arrow" xmlns="http://www.w3.org/2000/svg" xmlns:xlink="http://www.w3.org/1999/xlink" x="0px" y="0px"
	 viewBox="0 0 233 215" style="enable-background:new 0 0 233 215;" xml:space="preserve">
<style type="text/css">
	.st0{fill:#D45300;}
	.st1{fill:none;}
</style>
<g>
	<g>
		<path class="st0" d="M220.67,48.87c-0.08-0.02-0.11-0.03-0.23-0.06l-0.41-0.07l-0.85-0.15l-1.81-0.28
			c-1.25-0.17-2.5-0.35-3.78-0.48c-1.27-0.16-2.56-0.27-3.86-0.38c-1.29-0.13-2.6-0.21-3.91-0.28c-5.23-0.31-10.52-0.42-15.81-0.23
			c-10.58,0.3-21.19,1.48-31.57,3.7c-10.39,2.19-20.58,5.35-30.38,9.52c-9.78,4.21-19.11,9.48-27.83,15.7l-3.28,2.34l-0.82,0.58
			l-0.78,0.64l-1.56,1.28l-3.12,2.56l-1.56,1.28l-0.78,0.64l-0.74,0.69l-5.9,5.55c-1.02,0.9-1.91,1.92-2.83,2.91l-2.77,2.98
			l-2.78,2.99c-0.88,1.04-1.71,2.11-2.57,3.17c-1.7,2.13-3.46,4.22-5.12,6.4l-4.71,6.74c-0.77,1.14-1.62,2.22-2.32,3.41l-2.13,3.53
			c-11.52,18.8-20.02,39.72-25.98,61.42l-5.97-1.36c4.12-22.58,10.91-44.93,21.35-65.94l1.94-3.95c0.64-1.32,1.44-2.56,2.15-3.84
			l4.41-7.65c1.58-2.49,3.27-4.92,4.9-7.38c0.83-1.22,1.64-2.47,2.49-3.68l2.72-3.52l2.73-3.52c0.92-1.17,1.8-2.37,2.82-3.46
			l5.96-6.68l0.75-0.83l0.8-0.78l1.6-1.57l3.21-3.14l1.61-1.57l0.81-0.79l0.85-0.73l3.42-2.93c9.13-7.81,19.14-14.7,29.79-20.45
			c10.67-5.71,21.94-10.33,33.53-13.86c11.59-3.56,23.52-5.97,35.59-7.39c6.04-0.74,12.11-1.17,18.24-1.34
			c1.53-0.05,3.07-0.09,4.61-0.08c1.54-0.01,3.09-0.01,4.65,0.04c1.55,0.02,3.13,0.1,4.71,0.17l2.42,0.16l1.27,0.11l0.65,0.06
			l0.82,0.09L220.67,48.87z"/>
		<g>
			<path class="st0" d="M23,208c-1.94-11.96-6.27-27.18-12.06-37.22l17.33,10.43l19.99-3.08C39.11,185.23,29.33,197.67,23,208z"/>
		</g>
	</g>
</g>
<path id="SVGID_x5F_1_x5F_" class="st1" d="M30,135C55,68,118,27,163,18"/>
<text><textPath  xlink:href="#SVGID_x5F_1_x5F_" startOffset="0%">
<tspan  class="st0" style="font-family:'MyriadPro-Regular'; font-size:21px;">legt Arebeiter an</tspan></textPath>
</text>
</svg>
