<?xml version="1.0" encoding="utf-8"?>
<!-- Generator: Adobe Illustrator 23.0.3, SVG Export Plug-In . SVG Version: 6.00 Build 0)  -->
<svg version="1.1" xmlns="http://www.w3.org/2000/svg" xmlns:xlink="http://www.w3.org/1999/xlink" x="0px" y="0px"
	 viewBox="0 0 565 816" style="enable-background:new 0 0 565 816;" xml:space="preserve">
<style type="text/css">
	.st0{fill:#F9E7BF;}
	.st1{fill:#F5D8BC;}
	.st2{fill:#57433F;}
	.st3{fill:#513C31;}
	.st4{fill:#6D4100;}
	.st5{fill:#3F3F4A;}
	.st6{fill:#B7902D;}
	.st7{fill:#98782C;}
	.st8{fill:#F5D7A1;}
	.st9{fill:#EFC88C;}
	.st10{fill:#F7E1B0;}
	.st11{fill:#F0BD1D;}
	.st12{fill:#576E8C;}
	.st13{fill:#745444;}
	.st14{fill:#E49B22;}
	.st15{fill:#E7A928;}
	.st16{fill:#E89500;}
	.st17{fill:#EEB54C;}
	.st18{fill:#444444;}
	.st19{fill:#FCFAFF;}
	.st20{fill:#B1302D;}
	.st21{fill:#5D6D77;}
	.st22{font-family:'MyriadPro-Regular';}
	.st23{font-size:18px;}
	.st24{font-size:16px;}
	.st25{fill:#D45300;}
	.st26{fill:#007EE9;}
	.st27{fill:none;}
	.st28{fill:#09D400;}
	.st29{font-size:21px;}
	.st30{fill:#FFCB15;}
	.st31{fill:#00DEFF;}
</style>
<g id="Слой_4">
</g>
<g id="admin">
	<path class="st0" d="M250,135c8-2,11-6,11-15s35-5,35-5s-1,11,1,14s5,5,8,5s-12,26-28,25S250,135,250,135z"/>
	<path class="st1" d="M266.6,126.91c0,0-20.8-32.35-25.42-35.82c-4.62-3.47-11.55-20.8-3.47-25.42
		c11.22-6.41,19.64-36.97,19.64-36.97l50.83,4.62l8.09,34.66c0,0,5.78,1.16,2.31,13.86c-3.47,12.71-10.4,12.71-10.4,12.71
		l-23.11,32.35H266.6z"/>
	<path class="st2" d="M241.19,76.08c0,0-6.93-9.24-6.93-26.57s12.71-15.02,12.71-15.02S255.05,16,282.78,16
		c39.28,0,31.19,34.66,46.21,36.97c-6.93,3.47-10.4,0-10.4,0l-1.16,13.86c0,0-5.78,0-5.78,9.24c0-26.57-5.78-32.35-5.78-32.35
		s-6.93-8.09-10.4-8.09c-3.47,0-26.57,5.78-32.35,5.78s-8.86-3.19-8.86-3.19s-1.54,11.28-3.85,13.59
		c-2.31,2.31-9.24,8.09-6.93,24.26C242.34,78.39,241.19,76.08,241.19,76.08z"/>
	<path class="st3" d="M295.49,100.34c-6.93,0-8.09-2.31-18.49-2.31c-10.4,0-11.55,3.47-18.49,3.47c-6.93,0-16.17-17.33-16.17-17.33
		c-2.31,27.73,19.64,50.83,35.82,50.83c16.17,0,33.5-30.04,33.5-51.99C311.66,86.48,302.42,100.34,295.49,100.34z M292.02,111.89
		c-6.93,6.93-8.09,0-17.33,0c-6.93,0-8.09,6.93-13.86,0s6.93-11.55,16.17-11.55C286.24,100.34,297.5,106.42,292.02,111.89z"/>
	<circle class="st4" cx="260.25" cy="76.08" r="5.2"/>
	<circle class="st4" cx="293.75" cy="76.08" r="5.2"/>
	<path class="st5" d="M290.87,64.52c-6.93,0-5.78,2.31-11.55,2.31H277h-2.31c-5.78,0-4.62-2.31-11.55-2.31
		c-3.47,0-27.73-2.11-27.73,1.16c0,3.47,5.78,2.31,5.78,5.78c0,17.36,6.93,16.17,17.33,16.17c10.4,0,12.71-10.4,13.86-13.86
		c0.33-1,1.05-1.71,1.91-2.22c1.65-0.98,3.78-0.98,5.43,0c0.85,0.51,1.57,1.22,1.91,2.22c1.16,3.47,3.47,13.86,13.86,13.86
		c10.4,0,17.33,1.19,17.33-16.17c0-3.47,5.78-2.31,5.78-5.78C318.59,62.41,294.33,64.52,290.87,64.52z M266.6,81.85
		c-2.31,3.47-5.78,4.62-11.55,4.62s-12.39-1.29-11.77-12.19c0.22-3.99,0.22-5.14,1.37-6.3c1.16-1.16,4.62-2.31,11.55-2.31
		s12.71,1.16,13.86,4.62S268.91,78.39,266.6,81.85z M298.95,86.48c-5.78,0-9.24-1.16-11.55-4.62s-4.62-8.09-3.47-11.55
		c1.16-3.47,6.93-4.62,13.86-4.62c6.93,0,10.4,1.16,11.55,2.31c1.16,1.16,1.16,2.31,1.37,6.3
		C311.34,85.18,304.73,86.48,298.95,86.48z"/>
	<path class="st6" d="M342,141c-6-6-36-8-36-8s-28,17-29,19c-1-2-27-19-27-19s-30,2-36,8c-18.56,18.56-19,60-19,60h73h20h73
		C361,201,360.56,159.56,342,141z"/>
	<path class="st6" d="M314.91,133.85c-11.57,7.58-33.83,26.46-38.91,28.15c-3.97-3.18-26.89-20.88-36.13-28.01
		C245.62,133.29,250,133,250,133s26,17,27,19c1-2,29-19,29-19S309.77,133.25,314.91,133.85z"/>
	<path class="st7" d="M314.91,133.85c-11.57,7.58-33.83,26.46-38.91,28.15c-3.97-3.18-26.89-20.88-36.13-28.01
		C245.62,133.29,250,132,250,132s26,17,27,19c1-2,29-19,29-19S309.77,133.25,314.91,133.85z"/>
</g>
<g id="worker">
	<path class="st8" d="M43,497c7-3,11-7,11-23c30,0,64.44,34.49,50,38C67,521,43,497,43,497z"/>
	<path class="st9" d="M106,473c0,17,3,21,8,25c-8,10-13,11-13,11s-42-14-49-35S106,473,106,473z"/>
	<path class="st10" d="M118.95,441.73C118.97,440.83,126,403,80,403c-41,0-39.97,37.47-39.93,38.67c-9.62-4.35-7.65,9.08-4.07,15.33
		c2.08,3.64,4.97,4.03,7.27,3.57C50.69,483.24,69.03,490,80,490c11.05,0,28.94-6.86,35.99-29.41c2.28,0.43,5.12,0,7.17-3.59
		C126.75,450.71,128.73,437.18,118.95,441.73z"/>
	<path class="st11" d="M126,498c-7,0-9-5-9-5s-23,18.09-37,18.09S43,493,43,493s-2,5-9,5c-15,0-31,14-31,38s0,31,0,31h154
		c0,0,0-7,0-31S141,498,126,498z"/>
	<path class="st12" d="M129.41,496.49c-4.49-0.08-7.05-0.69-8.44-1.21c-0.72-0.27-1.48,0.26-1.48,1.03v42.19
		c0,5.9-29.93,6.96-39.5,7c-9.57-0.04-39.5-1.1-39.5-7v-42.19c0-0.77-0.76-1.3-1.48-1.03c-1.39,0.52-3.95,1.13-8.44,1.21
		c-0.6,0.01-1.09,0.5-1.09,1.1V567h101v-69.41C130.5,496.99,130.01,496.5,129.41,496.49z"/>
	<path class="st13" d="M43.5,445.5c-2-4-6-3-6-3s0-28,5-29s6,12,6,12S42.5,437.5,43.5,445.5z"/>
	<path class="st13" d="M114.5,445.5c2-4,6-3,6-3s0-28-5-29s-6,12-6,12S115.5,437.5,114.5,445.5z"/>
	<path class="st11" d="M114,394.89v-5.07c0-1-0.81-1.81-1.81-1.81h-6.8c-5.24-3.02-11.81-5.11-19.94-5.76
		c-0.49-1.96-1.3-4.24-2.45-4.24c-2,0-3,0-6,0c-1.73,0-2.79,2.32-3.38,4.29c-7.98,0.72-14.43,2.78-19.58,5.71h-7.22
		c-1,0-1.81,0.81-1.81,1.81v5.44c-9.43,10.58-10.74,25.03-9,33.74c0,0,69,0,86,0C124.99,421.22,124.03,405.92,114,394.89z"/>
	<path class="st14" d="M33,431c0,0,5-11,47-11s46,11,46,11H33z"/>
	<circle class="st4" cx="61.5" cy="447.5" r="4.5"/>
	<circle class="st4" cx="95.5" cy="447.5" r="4.5"/>
</g>
<g id="manager">
	<path class="st15" d="M444.76,445.16c0,0-11.4-7.6-11.4,3.8c0,14.25,13.3,8.55,13.3,8.55L444.76,445.16z"/>
	<path class="st15" d="M518.85,445.16c0,0,11.4-7.6,11.4,3.8c0,14.25-13.3,8.55-13.3,8.55L518.85,445.16z"/>
	<rect x="459.96" y="485.06" class="st16" width="44.65" height="24.7"/>
	<path class="st17" d="M481.81,494.56c-9.5,0-39.9-4.75-39.9-49.4s34.2-44.65,39.9-44.65c5.7,0,41.8,14.25,41.8,46.55
		C523.6,488.86,493.2,494.56,481.81,494.56z"/>
	<path class="st18" d="M446.66,449.91l-9.37-7.23c0,0-4.88-23.17,11.27-44.06c16.15-20.9,47.5-16.15,47.5-16.15l4.75,9.5
		c0,0,20.9,3.8,23.75,23.75c2.85,19.95,2.6,26.97,2.6,26.97l-8.3,7.23l-0.95-22.8l-18.05-17.1l-53.2,18.05V449.91z"/>
	<circle class="st4" cx="464.23" cy="449.43" r="4.27"/>
	<circle class="st4" cx="500.33" cy="449.43" r="4.27"/>
	<polygon class="st19" points="459.01,559.15 459.01,504.05 481.81,507.85 504.6,504.05 504.6,559.15 	"/>
	<polygon class="st20" points="473.26,517.35 481.81,507.85 490.35,517.35 485.61,522.1 492.25,552.5 486.56,559.15 477.06,559.15 
		471.36,549.65 474.21,545.85 478.01,522.1 	"/>
	<path class="st21" d="M554,562c-33.25,0-143.44,0-143.44,0c0-34.72,24.31-51.47,48.49-57.74l23.7,53.94l22.02-54.2
		C529.2,510.17,554,527.26,554,562z"/>
</g>
<g id="Info_and_arrows">
	<text transform="matrix(1 0 0 1 252.6279 225.4497)" class="st22 st23">Admin</text>
	<text transform="matrix(1 0 0 1 49.2012 588.4497)" class="st22 st23">Arbeiter</text>
	<text transform="matrix(1 0 0 1 399.1421 590.4497)" class="st22 st23">Firmen und Manager</text>
	<text transform="matrix(1 0 0 1 22.2412 608.5947)"><tspan x="0" y="0" class="st22 st24">verwalten eigene</tspan><tspan x="21.99" y="19.2" class="st22 st24">Arbeitszeit</tspan></text>
	<g id="red_arrow">
		<g>
			<g>
				<path class="st25" d="M196.83,178.03l0.24-0.03c0.03-0.01-0.02,0-0.03-0.01l-0.12-0.01l-0.45,0.02c-0.31,0.01-0.74,0.07-1.1,0.1
					c-0.81,0.11-1.65,0.23-2.53,0.42c-0.86,0.14-1.78,0.41-2.68,0.61l-2.74,0.79c-3.68,1.16-7.39,2.73-11.02,4.62l-1.37,0.69
					l-1.34,0.77c-0.89,0.52-1.8,1.01-2.7,1.55c-1.74,1.16-3.56,2.19-5.26,3.47l-2.6,1.84l-2.52,1.98c-0.83,0.68-1.71,1.3-2.51,2.02
					l-2.45,2.14c-6.5,5.75-12.52,12.31-18.08,19.36c-2.83,3.48-5.39,7.22-8.03,10.91c-2.45,3.83-5.03,7.59-7.29,11.59
					c-4.75,7.84-8.87,16.13-12.88,24.5l-2.83,6.38c-0.93,2.13-1.92,4.24-2.76,6.42l-2.61,6.5l-1.31,3.26l-1.2,3.3
					c-6.52,17.57-11.87,35.69-16.42,54.06l-6.38-1.22c2.66-18.94,6.16-37.84,10.97-56.55l0.88-3.52l0.99-3.49l1.99-6.98
					c0.63-2.34,1.43-4.63,2.16-6.95l2.25-6.94c3.27-9.17,6.71-18.35,10.91-27.27c1.97-4.52,4.33-8.88,6.57-13.31
					c2.45-4.33,4.84-8.72,7.58-12.93c5.37-8.49,11.43-16.7,18.42-24.32l2.65-2.84c0.88-0.96,1.85-1.84,2.77-2.76
					c0.94-0.91,1.86-1.83,2.82-2.73l2.96-2.62c1.94-1.78,4.09-3.37,6.15-5.05c1.07-0.81,2.17-1.58,3.25-2.37l1.64-1.17l1.7-1.11
					c4.52-2.99,9.33-5.68,14.52-7.96c1.3-0.56,2.63-1.1,3.96-1.62c1.38-0.48,2.71-1.01,4.15-1.43c1.4-0.46,2.88-0.86,4.4-1.23
					c0.8-0.18,1.54-0.36,2.41-0.52l1.31-0.23l0.77-0.11l0.41-0.05l0.69-0.06L196.83,178.03z"/>
				<g>
					<path class="st25" d="M75,368.5c-2.19-11.92-6.85-27.04-12.84-36.96l17.55,10.06l19.92-3.5C90.62,345.39,81.11,358.04,75,368.5
						z"/>
				</g>
			</g>
		</g>
		<g>
			<g>
				<path class="st26" d="M361.83,147.97l0.69,0.06l0.41,0.05l0.77,0.11l1.31,0.23c0.87,0.16,1.6,0.34,2.41,0.52
					c1.51,0.38,2.99,0.78,4.4,1.23c1.44,0.42,2.77,0.95,4.15,1.43c1.33,0.53,2.66,1.06,3.96,1.62c5.18,2.27,10,4.96,14.52,7.96
					l1.7,1.11l1.64,1.17c1.09,0.79,2.19,1.56,3.25,2.37c2.07,1.68,4.22,3.27,6.15,5.05l2.96,2.62c0.96,0.9,1.88,1.82,2.82,2.73
					c0.92,0.92,1.9,1.8,2.77,2.76l2.65,2.84c6.99,7.63,13.05,15.83,18.42,24.32c2.75,4.21,5.13,8.6,7.58,12.93
					c2.24,4.43,4.59,8.8,6.57,13.31c4.21,8.92,7.64,18.1,10.91,27.27l2.25,6.94c0.74,2.31,1.54,4.61,2.16,6.95l1.99,6.98l0.99,3.49
					l0.88,3.52c4.81,18.71,8.31,37.61,10.97,56.55l-6.38,1.22c-4.55-18.37-9.9-36.49-16.42-54.06l-1.2-3.3l-1.31-3.26l-2.61-6.5
					c-0.83-2.18-1.83-4.29-2.76-6.42l-2.83-6.38c-4.01-8.37-8.13-16.66-12.88-24.5c-2.26-4-4.84-7.76-7.29-11.59
					c-2.64-3.69-5.19-7.43-8.03-10.91c-5.56-7.05-11.57-13.61-18.08-19.36l-2.45-2.14c-0.81-0.72-1.68-1.34-2.51-2.02l-2.52-1.98
					l-2.6-1.84c-1.7-1.28-3.52-2.32-5.26-3.47c-0.89-0.54-1.8-1.03-2.7-1.55l-1.34-0.77l-1.37-0.69c-3.63-1.9-7.34-3.46-11.02-4.62
					l-2.74-0.79c-0.9-0.19-1.81-0.47-2.68-0.61c-0.88-0.19-1.72-0.31-2.53-0.42c-0.37-0.03-0.79-0.09-1.1-0.1l-0.45-0.02l-0.12,0.01
					c-0.01,0-0.06,0-0.03,0.01l0.24,0.03L361.83,147.97z"/>
				<g>
					<path class="st26" d="M482,368.5c-6.11-10.46-15.62-23.11-24.63-30.4l19.92,3.5l17.55-10.06
						C488.84,341.46,484.19,356.58,482,368.5z"/>
				</g>
			</g>
		</g>
		<path id="SVGID_x5F_1_x5F_" class="st27" d="M73,299.5c19-67,47-133,92-148"/>
		<text>		<textPath  xlink:href="#SVGID_x5F_1_x5F_" startOffset="0%">
<tspan  class="st25 st22 st29">legt Arbeiter an</tspan>		</textPath>
</text>
	</g>
	<g id="blue_arrow">
		<path id="SVGID_x5F_2_x5F_" class="st27" d="M384,146c60,12.5,103,133.5,100,164.5"/>
		<text>		<textPath  xlink:href="#SVGID_x5F_2_x5F_" startOffset="0%">
<tspan  class="st26 st22 st29">Manager an</tspan>		</textPath>
</text>
		<path id="SVGID_x5F_3_x5F_" class="st27" d="M400,133c60,12.5,103,133.5,100,164.5"/>
		<text>		<textPath  xlink:href="#SVGID_x5F_3_x5F_" startOffset="0%">
<tspan  class="st26 st22 st29">legt Firmen und</tspan>		</textPath>
</text>
	</g>
	<g id="green_arrow">
		<g>
			<g>
				<path class="st28" d="M196.18,529.23c14.22-1.67,28.44-2.82,42.66-3.56c14.22-0.78,28.44-1.08,42.66-1.1
					c14.22,0.01,28.44,0.31,42.66,1.08c14.22,0.73,28.44,1.88,42.66,3.56v9.59c-14.22,1.68-28.44,2.83-42.66,3.56
					c-14.22,0.77-28.44,1.07-42.66,1.08c-14.22-0.03-28.44-0.32-42.66-1.1c-14.22-0.74-28.44-1.88-42.66-3.56V529.23z"/>
				<g>
					<path class="st28" d="M166,534c14.2,5.27,31.82,14.26,42.74,23.78l-8.6-23.78l8.6-23.77C197.82,519.75,180.2,528.74,166,534z"
						/>
				</g>
				<g>
					<path class="st28" d="M397,534c-14.2,5.27-31.82,14.26-42.74,23.78l8.6-23.78l-8.6-23.77C365.18,519.75,382.8,528.74,397,534z"
						/>
				</g>
			</g>
		</g>
		<text transform="matrix(1 0 0 1 291.2212 474.1582)"><tspan x="0" y="0" class="st28 st22 st29">Weist Arbeiter</tspan><tspan x="4.58" y="25.2" class="st28 st22 st29">managern zu</tspan></text>
	</g>
	<g id="yellow_arrow">
		<g>
			<g>
				<path class="st30" d="M43.8,644.56c16.84,8.69,35.06,15.48,53.83,20.79c18.79,5.3,38.16,9.05,57.73,11.74
					c39.17,5.31,79.16,6.2,118.92,3.48c39.78-2.76,79.39-9.31,118-19.78c38.58-10.52,76.24-25.04,111.25-44.73l2.63,4.41
					c-34.48,21.58-72.02,38.15-110.79,50.7c-38.81,12.51-78.92,21.11-119.56,25.86c-40.64,4.7-81.83,5.76-122.95,2.15
					c-20.55-1.85-41.1-4.81-61.44-9.53c-20.33-4.74-40.49-11.11-60-20.05L43.8,644.56z"/>
				<g>
					<path class="st30" d="M525.21,605.29c-7.37,9.62-15.47,23.21-18.8,34.31l-4.31-19.77l-15.95-12.43
						C497.59,609.19,513.35,607.77,525.21,605.29z"/>
				</g>
			</g>
		</g>
		<path id="SVGID_x5F_4_x5F_" class="st27" d="M58.26,642.5c89.82,27.52,225.61,58.54,409.82-23.46"/>
		<text>		<textPath  xlink:href="#SVGID_x5F_4_x5F_" startOffset="0.024%">
<tspan  class="st30 st22 st24"> schickt abgeschlossene Arbeitsabschnitte zu Bestätigung</tspan>		</textPath>
</text>
	</g>
	<g id="cyan_arrow">
		<g>
			<g>
				<path class="st31" d="M534.69,662.94c-2.66,5.47-5.62,10.74-8.95,15.71c-3.37,4.93-6.93,9.72-10.83,14.14
					c-7.69,8.97-16.31,16.88-25.37,24.08c-9.06,7.21-18.61,13.65-28.48,19.45c-9.86,5.81-20.03,11.01-30.4,15.69
					c-20.74,9.35-42.28,16.62-64.19,22.15c-21.92,5.52-44.23,9.27-66.68,11.3c-22.45,2-45.04,2.25-67.5,0.64
					c-11.23-0.81-22.42-2.08-33.53-3.86c-11.11-1.8-22.14-4.1-33.02-6.93c-21.76-5.67-43.03-13.38-63.1-23.52
					c-20.07-10.11-38.96-22.53-56.03-37.08l2.99-3.59c17.16,13.82,36,25.46,55.89,34.8c19.89,9.37,40.86,16.32,62.24,21.26
					c10.7,2.46,21.51,4.41,32.39,5.86c10.88,1.44,21.82,2.37,32.78,2.86c21.92,0.96,43.9,0.11,65.66-2.44
					c21.76-2.58,43.31-6.83,64.34-12.75c21.03-5.92,41.56-13.52,61.1-22.98c9.76-4.73,19.27-9.94,28.4-15.67
					c9.14-5.71,17.88-11.98,26.03-18.84c8.14-6.86,15.76-14.26,22.31-22.37c3.35-4,6.31-8.25,9.09-12.56
					c2.74-4.34,5.09-8.85,7.18-13.43L534.69,662.94z"/>
				<g>
					<path class="st31" d="M30.27,696.66c11.26,4.48,26.54,8.58,38.13,8.77l-17.85,9.52l-7.63,18.73
						C41.53,722.18,35.88,707.4,30.27,696.66z"/>
				</g>
			</g>
		</g>
		<path id="SVGID_x5F_5_x5F_" class="st27" d="M64.62,713.03c0,0,87.79,65.81,206.42,57.69s200.48-62.63,236.9-110.96"/>
		<text>		<textPath  xlink:href="#SVGID_x5F_5_x5F_" startOffset="17.4805%">
<tspan  class="st31 st22 st23">bestätigt Arbeitsabschnitte oder lehnt sie ab</tspan>		</textPath>
</text>
	</g>
	<g>
		<path class="st28" d="M300.99,237.5c-0.66,6.19-1.23,12.38-1.82,18.56l-1.63,18.56c-0.99,12.38-2,24.75-2.9,37.12
			c-1.79,24.75-3.38,49.5-4.75,74.25c-1.35,24.75-2.62,49.5-3.64,74.25c-0.56,12.38-1,24.75-1.47,37.12
			c-0.1,3.09-0.28,6.19-0.31,9.28c-0.02,3.09,0.14,6.19,0.51,9.28c0.37,3.09,0.95,6.19,1.81,9.28c0.88,3.09,1.92,6.19,3.66,9.28
			h-18.88c1.74-3.09,2.78-6.19,3.66-9.28c0.85-3.09,1.43-6.19,1.81-9.28c0.37-3.09,0.53-6.19,0.51-9.28
			c-0.03-3.09-0.21-6.19-0.31-9.28c-0.48-12.38-0.91-24.75-1.47-37.12c-1.02-24.75-2.28-49.5-3.64-74.25
			c-1.38-24.75-2.96-49.5-4.75-74.25c-0.9-12.38-1.92-24.75-2.9-37.12l-1.63-18.56c-0.59-6.19-1.16-12.38-1.82-18.56H300.99z"/>
	</g>
</g>
</svg>
