<?xml version="1.0" encoding="utf-8"?>
<!-- Generator: Adobe Illustrator 23.0.3, SVG Export Plug-In . SVG Version: 6.00 Build 0)  -->
<svg version="1.1" id="worker" xmlns="http://www.w3.org/2000/svg" xmlns:xlink="http://www.w3.org/1999/xlink" x="0px" y="0px"
	 viewBox="0 0 175 195" style="enable-background:new 0 0 175 195;" xml:space="preserve">
<style type="text/css">
	.st0{fill:#F5D7A1;}
	.st1{fill:#EFC88C;}
	.st2{fill:#F7E1B0;}
	.st3{fill:#F0BD1D;}
	.st4{fill:#576E8C;}
	.st5{fill:#745444;}
	.st6{fill:#E49B22;}
	.st7{fill:#6D4100;}
</style>
<path class="st0" d="M50,125c7-3,11-7,11-23c30,0,64.44,34.49,50,38C74,149,50,125,50,125z"/>
<path class="st1" d="M113,101c0,17,3,21,8,25c-8,10-13,11-13,11s-42-14-49-35S113,101,113,101z"/>
<path class="st2" d="M125.95,69.73C125.97,68.83,133,31,87,31c-41,0-39.97,37.47-39.93,38.67C37.46,65.31,39.42,78.74,43,85
	c2.08,3.64,4.97,4.03,7.27,3.57C57.69,111.24,76.03,118,87,118c11.05,0,28.94-6.86,35.99-29.41c2.28,0.43,5.12,0,7.17-3.59
	C133.75,78.71,135.73,65.18,125.95,69.73z"/>
<path class="st3" d="M133,126c-7,0-9-5-9-5s-23,18.09-37,18.09S50,121,50,121s-2,5-9,5c-15,0-31,14-31,38s0,31,0,31h154
	c0,0,0-7,0-31S148,126,133,126z"/>
<path class="st4" d="M136.41,124.49c-4.49-0.08-7.05-0.69-8.44-1.21c-0.72-0.27-1.48,0.26-1.48,1.03v42.19c0,5.9-29.93,6.96-39.5,7
	c-9.57-0.04-39.5-1.1-39.5-7v-42.19c0-0.77-0.76-1.3-1.48-1.03c-1.39,0.52-3.95,1.13-8.44,1.21c-0.6,0.01-1.09,0.5-1.09,1.1V195h101
	v-69.41C137.5,124.99,137.01,124.5,136.41,124.49z"/>
<path class="st5" d="M50.5,73.5c-2-4-6-3-6-3s0-28,5-29s6,12,6,12S49.5,65.5,50.5,73.5z"/>
<path class="st5" d="M121.5,73.5c2-4,6-3,6-3s0-28-5-29s-6,12-6,12S122.5,65.5,121.5,73.5z"/>
<path class="st3" d="M121,22.89v-5.07c0-1-0.81-1.81-1.81-1.81h-6.8c-5.24-3.02-11.81-5.11-19.94-5.76C91.96,8.28,91.14,6,90,6
	c-2,0-3,0-6,0c-1.73,0-2.79,2.32-3.38,4.29c-7.98,0.72-14.43,2.78-19.58,5.71h-7.22c-1,0-1.81,0.81-1.81,1.81v5.44
	C42.57,33.84,41.26,48.29,43,57c0,0,69,0,86,0C131.99,49.22,131.03,33.92,121,22.89z"/>
<path class="st6" d="M40,59c0,0,5-11,47-11s46,11,46,11H40z"/>
<circle class="st7" cx="68.5" cy="75.5" r="4.5"/>
<circle class="st7" cx="102.5" cy="75.5" r="4.5"/>
</svg>
