<?xml version="1.0" encoding="UTF-8" standalone="no"?>
<svg
   xmlns:dc="http://purl.org/dc/elements/1.1/"
   xmlns:cc="http://creativecommons.org/ns#"
   xmlns:rdf="http://www.w3.org/1999/02/22-rdf-syntax-ns#"
   xmlns:svg="http://www.w3.org/2000/svg"
   xmlns="http://www.w3.org/2000/svg"
   id="svg8"
   version="1.1"
   viewBox="0 0 381 54.504166"
   height="54.504166mm"
   width="381mm">
  <defs
     id="defs2" />
  <metadata
     id="metadata5">
    <rdf:RDF>
      <cc:Work
         rdf:about="">
        <dc:format>image/svg+xml</dc:format>
        <dc:type
           rdf:resource="http://purl.org/dc/dcmitype/StillImage" />
        <dc:title></dc:title>
      </cc:Work>
    </rdf:RDF>
  </metadata>
  <g
     transform="translate(120.19643,-101.17053)"
     id="layer1">
    <path
       id="path23"
       d="m -119.44048,145.86678 v -11.31982 l 13.7869,-12.55882 c 7.582793,-6.90736 13.875293,-12.59257 13.983327,-12.63382 0.108038,-0.0413 2.922919,1.07466 6.25529,2.4798 l 6.058858,2.55481 2.45097,-0.80385 2.450973,-0.80385 22.06652,14.68157 22.066523,14.68157 15.090724,-12.07439 c 14.0950668,-11.27774 15.13087081,-12.05348 15.69917381,-11.75751 0.334648,0.17428 5.86819899,3.46776 12.29678319,7.31884 l 11.688334,7.00197 17.372679,-13.53734 c 9.554972,-7.44554 17.51116,-13.58503 17.680416,-13.64333 0.169254,-0.0583 1.734191,0.94833 3.477636,2.23694 l 3.169899,2.34292 1.420019,-1.01685 1.420016,-1.01685 1.36321,0.76082 c 0.749763,0.41846 9.563193,5.23917 19.585403,10.71271 17.534896,9.57652 18.245426,9.93664 18.838596,9.54798 0.33904,-0.22214 4.5557,-3.322 9.37036,-6.88858 4.81466,-3.56657 8.83048,-6.48468 8.92404,-6.48468 0.0936,0 13.37162,5.25164 29.50679,11.6703 16.13517,6.41867 29.37222,11.62765 29.41569,11.57553 0.0435,-0.0521 6.42009,-7.89338 14.17026,-17.42499 7.75015,-9.53162 14.35124,-17.60129 14.66911,-17.93261 l 0.5779,-0.60239 5.88389,3.3385 5.88388,3.33849 2.39437,-1.36137 c 1.31691,-0.74876 2.49561,-1.32516 2.61932,-1.2809 0.12372,0.0443 6.77466,4.24767 14.77989,9.3409 l 14.55497,9.26042 0.0138,15.80885 0.0135,15.80886 h -190.5 -190.5 z"
       style="fill:#000000;stroke-width:0.26458332" />
  </g>
</svg>
