<?xml version="1.0" encoding="UTF-8" standalone="no"?>
<svg
   xmlns:dc="http://purl.org/dc/elements/1.1/"
   xmlns:cc="http://creativecommons.org/ns#"
   xmlns:rdf="http://www.w3.org/1999/02/22-rdf-syntax-ns#"
   xmlns:svg="http://www.w3.org/2000/svg"
   xmlns="http://www.w3.org/2000/svg"
   id="svg8"
   version="1.1"
   viewBox="0 0 22.754168 23.547916"
   height="23.547916mm"
   width="22.754168mm">
  <defs
     id="defs2" />
  <metadata
     id="metadata5">
    <rdf:RDF>
      <cc:Work
         rdf:about="">
        <dc:format>image/svg+xml</dc:format>
        <dc:type
           rdf:resource="http://purl.org/dc/dcmitype/StillImage" />
        <dc:title></dc:title>
      </cc:Work>
    </rdf:RDF>
  </metadata>
  <g
     transform="translate(-91.432442,-118.16056)"
     id="layer1">
    <g
       transform="matrix(0.99999996,0,0,0.93554752,-4.9047619e-6,8.3776375)"
       id="g21">
      <path
         id="path35"
         d="m 96.988692,141.33787 c 0,-0.20383 0.296493,-1.0075 0.658874,-1.78593 0.679253,-1.45912 0.840584,-2.34138 0.428143,-2.34138 -0.129746,0 -0.310153,0.29584 -0.400905,0.65743 -0.236598,0.94268 -1.415672,1.19937 -2.029151,0.44176 -0.417807,-0.51597 -0.428086,-1.62243 -0.01517,-1.63241 0.09217,-0.002 0.327583,-0.10546 0.523144,-0.2294 0.277911,-0.17614 0.150953,-0.51016 -0.581323,-1.52943 -0.515289,-0.71724 -1.065274,-1.64176 -1.222188,-2.05448 -0.267353,-0.70319 -0.315316,-0.72323 -0.762427,-0.3186 -0.747925,0.67686 -1.586265,0.55029 -1.792297,-0.27061 -0.246969,-0.984 0.205132,-1.55443 1.194831,-1.50754 l 0.823465,0.039 v -1.5271 c 0,-0.8399 0.173312,-2.01832 0.385139,-2.6187 0.377616,-1.07028 0.373481,-1.0916 -0.211667,-1.0916 -0.747315,0 -1.231805,-0.46829 -1.231805,-1.19062 0,-1.18382 1.50578,-1.6422 2.189229,-0.66644 0.358301,0.51154 0.38562,0.5049 1.133242,-0.27545 0.958154,-1.00009 2.92777,-2.27063 3.887425,-2.50765 0.747049,-0.1845 0.930429,-0.49493 0.463029,-0.7838 -0.14552,-0.0899 -0.26459,-0.4567 -0.26459,-0.81503 0,-0.8649 1.00557,-1.3578 1.84908,-0.90637 0.49073,0.26263 0.56788,0.47284 0.44698,1.21785 -0.14528,0.89523 -0.14016,0.90043 0.88565,0.90043 1.25411,0 3.54221,0.82444 4.73936,1.70767 1.26262,0.93153 2.90149,3.21702 3.25522,4.53955 0.28658,1.0715 0.35253,1.13058 1.20695,1.08113 1.0846,-0.0628 1.53228,0.47601 1.26857,1.52672 -0.16564,0.65996 -0.27374,0.72039 -1.06026,0.59276 -0.8702,-0.14121 -0.87782,-0.13316 -1.18893,1.25706 -0.17222,0.76956 -0.54608,1.8561 -0.83079,2.41455 -0.61856,1.21327 -0.6133,1.16806 -0.13579,1.16806 0.53153,0 1.1989,1.02886 1.00653,1.55173 -0.35182,0.95624 -1.72963,1.14589 -2.18215,0.30035 -0.36381,-0.67979 -0.48284,-0.66311 -1.54261,0.21609 l -0.88116,0.73102 0.68272,1.54374 c 1.19602,2.70443 1.52799,2.53624 -5.00583,2.53624 -4.700864,0 -5.688542,-0.0644 -5.688542,-0.37061 z m 9.586228,-0.83715 c 0.0822,-0.0822 -0.0392,-0.59106 -0.2697,-1.13084 l -0.41912,-0.98142 -3.15094,0.0126 -3.150942,0.0126 -0.370442,0.88102 c -0.203743,0.48456 -0.30446,0.98779 -0.223815,1.11827 0.157272,0.25447 7.335199,0.33759 7.584959,0.0878 z m -2.77321,-4.77984 c 0.32743,-0.0877 0.59533,-0.29448 0.59535,-0.45941 5e-5,-0.49373 -1.42388,-3.60716 -1.64975,-3.60716 -0.11497,0 -0.49343,0.64306 -0.84102,1.42902 -0.98712,2.23206 -1.03419,2.48024 -0.49683,2.61981 0.72222,0.18758 1.73058,0.19506 2.39225,0.0177 z m -3.35684,-2.60555 c 0.42744,-0.94269 0.77716,-1.7875 0.77716,-1.87734 0,-0.17179 -2.862597,1.36424 -3.292322,1.76661 -0.254063,0.23789 1.055884,1.82471 1.506329,1.82471 0.127422,0 0.581393,-0.77129 1.008833,-1.71398 z m 5.98197,1.29411 c 0.1662,-0.43311 -1.08429,-1.93676 -1.37168,-1.64938 -0.19773,0.19774 0.69466,2.06925 0.98667,2.06925 0.12314,0 0.29639,-0.18894 0.38501,-0.41987 z m 2.03162,-2.30205 c 0.50229,-1.02819 0.73108,-3.42024 0.36246,-3.78978 -0.28459,-0.28531 -4.68848,1.17953 -4.68848,1.5595 0,0.49753 3.0036,3.38523 3.43817,3.30549 0.21906,-0.0402 0.61859,-0.52404 0.88785,-1.07521 z m -9.001357,-1.22787 c 1.116227,-0.64442 2.029507,-1.25327 2.029507,-1.35301 0,-0.0998 -0.92146,-0.78991 -2.047692,-1.5337 -2.391852,-1.57964 -2.656612,-1.50616 -2.894979,0.80339 -0.14711,1.42536 0.282102,3.50205 0.689246,3.33483 0.106927,-0.0439 1.107689,-0.60709 2.223918,-1.25151 z m 3.224507,-5.37677 c 0.181,-2.19957 0.16419,-2.31511 -0.33669,-2.31511 -1.41083,0 -4.297894,1.63893 -4.297894,2.43983 0,0.12328 0.919266,0.81312 2.042814,1.53297 1.44041,0.92287 2.09567,1.21278 2.22204,0.98312 0.0986,-0.17914 0.26495,-1.36751 0.36973,-2.64081 z m 3.62247,2.24896 c 1.13318,-0.40019 2.06063,-0.84931 2.06101,-0.99805 0.002,-0.98009 -3.25191,-3.53133 -4.09294,-3.2086 -0.20085,0.0771 -0.41343,0.8634 -0.52357,1.93669 -0.10198,0.99382 -0.24883,2.07483 -0.32634,2.40225 -0.18947,0.80045 0.30489,0.77776 2.88184,-0.13229 z m 2.70386,-5.29572 c -0.84344,-0.57754 -0.34599,-2.17876 0.67686,-2.17876 0.57744,0 1.32681,0.67245 1.32681,1.19062 0,0.84589 -1.28554,1.47987 -2.00367,0.98814 z"
         style="fill:#c9f6a9;stroke-width:0.26458335" />
      <path
         id="path33"
         d="m 96.988692,141.33787 c 0,-0.20383 0.296493,-1.0075 0.658874,-1.78593 0.799256,-1.7169 0.820433,-2.11642 0.134876,-2.54456 -0.483512,-0.30196 -0.529166,-0.26424 -0.529166,0.43721 0,0.86543 -0.646301,1.27605 -1.236929,0.78587 -0.562628,-0.46694 -0.325273,-1.40159 0.381408,-1.5019 0.582233,-0.0826 0.572644,-0.11671 -0.329469,-1.17063 -1.538802,-1.79774 -2.105365,-3.2403 -2.208595,-5.62341 -0.123989,-2.86236 0.575657,-4.75881 2.442087,-6.61948 1.833569,-1.8279 3.50919,-2.60403 5.892432,-2.72928 4.24788,-0.22326 8.06638,2.45057 9.23359,6.46563 0.41973,1.44381 0.59293,1.63589 1.05681,1.172 0.46203,-0.46203 1.43742,-0.002 1.43742,0.67861 0,0.71842 -1.14982,1.17916 -1.66272,0.66626 -0.22501,-0.22501 -0.38638,0.11736 -0.6389,1.35552 -0.18582,0.91112 -0.62031,2.20105 -0.96553,2.86652 l -0.62768,1.20994 0.55835,0.24527 c 0.794,0.34877 0.87911,1.34041 0.1353,1.57648 -0.43136,0.13691 -0.69902,0.0365 -1.01335,-0.38024 l -0.42715,-0.5663 -1.11875,0.82274 c -0.61531,0.4525 -1.11874,0.86857 -1.11874,0.92459 0,0.056 0.29766,0.77491 0.66146,1.59753 1.17161,2.64922 1.49699,2.48817 -5.02709,2.48817 -4.70086,0 -5.688538,-0.0644 -5.688538,-0.37061 z m 9.586228,-0.83715 c 0.0822,-0.0822 -0.0392,-0.59106 -0.2697,-1.13084 l -0.41912,-0.98142 -3.15094,0.0126 -3.150942,0.0126 -0.370442,0.88102 c -0.203743,0.48456 -0.30446,0.98779 -0.223815,1.11827 0.157272,0.25447 7.335199,0.33759 7.584959,0.0878 z m -9.811124,-2.89329 c 0,-0.13824 -0.127992,-0.29401 -0.284427,-0.34616 -0.156435,-0.0521 -0.284427,0.10363 -0.284427,0.34616 0,0.24254 0.127992,0.39831 0.284427,0.34617 0.156435,-0.0521 0.284427,-0.20792 0.284427,-0.34617 z m 13.983234,-1.5875 c 0,-0.21828 -0.11204,-0.39687 -0.24897,-0.39687 -0.33364,0 -0.57259,0.41317 -0.3612,0.62455 0.29797,0.29797 0.61017,0.18148 0.61017,-0.22768 z m -6.94532,-0.29905 c 0.32743,-0.0877 0.59533,-0.29448 0.59535,-0.45941 5e-5,-0.49373 -1.42388,-3.60716 -1.64975,-3.60716 -0.11497,0 -0.49343,0.64306 -0.84102,1.42902 -0.98712,2.23206 -1.03419,2.48024 -0.49683,2.61981 0.72222,0.18758 1.73058,0.19506 2.39225,0.0177 z m -3.261,-2.82835 c 0.42672,-0.96857 0.70404,-1.83285 0.61627,-1.92063 -0.17364,-0.17364 -3.639121,1.6827 -3.639121,1.94936 0,0.33267 1.708155,1.91193 1.972624,1.82377 0.150901,-0.0503 0.623497,-0.88392 1.050227,-1.8525 z m 6.01055,1.58937 c 0.39045,-0.29712 0.33238,-0.45026 -0.57355,-1.51266 -0.55439,-0.65015 -1.08559,-1.10447 -1.18045,-1.00961 -0.1914,0.1914 0.89051,2.87462 1.1537,2.86126 0.0912,-0.005 0.36136,-0.15717 0.6003,-0.33899 z m 1.51111,-1.6477 c 0.93427,-1.18774 1.31371,-4.55547 0.56537,-5.01797 -0.30596,-0.18909 -4.83557,1.55159 -4.95281,1.90332 -0.11458,0.34373 3.14227,3.78684 3.58199,3.78684 0.15218,0 0.51464,-0.30248 0.80545,-0.67219 z m -8.429714,-1.66828 c 1.090374,-0.68728 2.018294,-1.43546 2.062044,-1.66261 0.0514,-0.26703 -0.68215,-0.91305 -2.075684,-1.82793 -2.330205,-1.52983 -2.391889,-1.52683 -2.934679,0.14247 -0.460233,1.4154 0.07094,4.66634 0.753875,4.61395 0.116566,-0.009 1.104066,-0.57859 2.194444,-1.26588 z m 13.535304,-2.28974 c 0,-0.13824 -0.12799,-0.29401 -0.28442,-0.34616 -0.15644,-0.0521 -0.28443,0.10363 -0.28443,0.34616 0,0.24254 0.12799,0.39831 0.28443,0.34617 0.15643,-0.0522 0.28442,-0.20792 0.28442,-0.34617 z m -7.31663,-0.56067 c 2.91998,-0.95555 3.01263,-1.0763 1.92246,-2.5056 -0.95677,-1.25442 -2.6156,-2.34632 -3.5752,-2.35333 -0.32742,-0.002 -0.59531,0.0466 -0.59531,0.10879 0,0.0622 -0.12775,1.03158 -0.28387,2.1541 -0.27292,1.96218 -0.18341,3.28901 0.22186,3.28901 0.10587,0 1.1454,-0.31184 2.31006,-0.69297 z m -3.36898,0.0977 c 0.31557,-0.39121 0.91824,-4.64672 0.70658,-4.9892 -0.44583,-0.72136 -3.40199,0.2343 -4.623637,1.49472 -1.006783,1.03874 -1.074165,0.91901 1.463287,2.60007 2.0442,1.3543 2.07403,1.36517 2.45377,0.89441 z m -10.454595,4.1273 c -0.181902,-0.0751 -0.33073,-0.41035 -0.33073,-0.74505 0,-0.76426 1.007706,-1.09887 1.581449,-0.52513 0.68465,0.68465 -0.284552,1.66893 -1.250719,1.27018 z m 0.992187,-0.75386 c 0,-0.21828 -0.112036,-0.39687 -0.248968,-0.39687 -0.333634,0 -0.572584,0.41317 -0.3612,0.62455 0.29797,0.29797 0.610168,0.18148 0.610168,-0.22768 z m 0.276798,-6.86445 c -0.714559,-0.86099 0.467974,-1.89688 1.260588,-1.10426 0.336959,0.33696 0.371466,0.5437 0.149562,0.89607 -0.386334,0.61348 -0.998752,0.7039 -1.41015,0.20819 z m 1.046119,-0.54388 c 0,-0.21828 -0.178594,-0.39688 -0.396875,-0.39688 -0.218281,0 -0.396875,0.1786 -0.396875,0.39688 0,0.21828 0.178594,0.39687 0.396875,0.39687 0.218281,0 0.396875,-0.17859 0.396875,-0.39687 z m 14.882811,-2.15961 c -0.46352,-0.18703 -0.41365,-1.32383 0.0662,-1.50795 0.6394,-0.24536 1.19062,0.10517 1.19062,0.75714 0,0.46563 -0.57031,1.05122 -0.88153,0.90516 -0.0245,-0.0115 -0.19334,-0.0809 -0.37524,-0.15435 z m 0.76729,-0.75081 c 0,-0.13824 -0.12799,-0.29402 -0.28442,-0.34616 -0.15644,-0.0521 -0.28443,0.10363 -0.28443,0.34616 0,0.24254 0.12799,0.39831 0.28443,0.34616 0.15643,-0.0521 0.28442,-0.20791 0.28442,-0.34616 z m -9.24718,-1.50812 c -0.42847,-0.42847 -0.39947,-0.88565 0.087,-1.37215 0.48893,-0.48893 1.103,-0.30205 1.32705,0.40387 0.30017,0.94578 -0.7307,1.65166 -1.41408,0.96828 z m 1.00541,-0.60855 c 0,-0.21828 -0.17859,-0.39687 -0.39687,-0.39687 -0.21828,0 -0.39688,0.17859 -0.39688,0.39687 0,0.21829 0.1786,0.39688 0.39688,0.39688 0.21828,0 0.39687,-0.17859 0.39687,-0.39688 z"
         style="fill:#98d9d9;stroke-width:0.26458335" />
      <path
         id="path31"
         d="m 97.794232,139.8709 c 0.430078,-1.01067 0.78196,-2.01299 0.78196,-2.22738 0,-0.21439 -0.386953,-0.63199 -0.859895,-0.928 -1.123613,-0.70327 -2.19162,-2.08171 -3.027483,-3.90747 -0.596355,-1.30261 -0.659328,-1.72087 -0.546257,-3.62815 0.07915,-1.33515 0.329321,-2.60903 0.657177,-3.34642 0.6912,-1.55459 2.35201,-3.23874 4.098098,-4.15569 1.226818,-0.64426 1.689958,-0.73437 3.779398,-0.73533 1.88132,-8.7e-4 2.64098,0.11865 3.61836,0.5693 2.59379,1.19593 4.41485,3.54434 5.0316,6.48868 0.38812,1.85287 0.10895,3.53695 -0.92779,5.59684 -0.70026,1.39135 -0.76492,1.65664 -0.37918,1.55577 1.08128,-0.28276 1.75243,1.33511 0.6933,1.67127 -0.41664,0.13224 -0.70849,0.001 -1.12448,-0.50434 l -0.56181,-0.68292 -1.15633,1.00056 -1.15633,1.00056 0.8256,1.88106 c 0.45409,1.03458 0.82561,1.9504 0.82561,2.03515 0,0.0847 -2.55454,0.15409 -5.67676,0.15409 h -5.676749 z m 9.100648,0.80462 c 0.0813,-0.13156 -0.07,-0.75218 -0.3363,-1.37916 l -0.48415,-1.13996 -3.33586,-0.0248 -3.335863,-0.0248 -0.432746,1.13313 c -0.238011,0.62322 -0.357419,1.25502 -0.265351,1.40399 0.2098,0.33946 7.98147,0.36949 8.19027,0.0316 z m -1.9434,-3.649 c 0.11797,-0.11797 -0.84539,-0.21411 -2.14079,-0.21366 -2.21213,7.7e-4 -2.68275,0.15871 -1.45637,0.48874 0.71458,0.1923 3.32976,-0.008 3.59716,-0.27508 z m 3.53307,-2.21709 c 1.44664,-1.60126 2.07571,-3.19894 2.07571,-5.27179 0,-3.03263 -1.60598,-5.59652 -4.44344,-7.09379 -1.9275,-1.01711 -4.69136,-1.00621 -6.794927,0.0268 -4.829937,2.37186 -5.938936,8.76686 -2.173335,12.53246 0.632019,0.63202 1.328192,1.14913 1.547052,1.14913 0.224473,0 -0.135957,-0.49016 -0.826878,-1.12448 -2.617052,-2.40269 -3.232058,-5.82617 -1.607644,-8.9491 2.769578,-5.3245 10.287912,-5.25838 13.102432,0.11523 0.59084,1.12805 0.71122,1.69709 0.70738,3.34376 -0.004,1.69065 -0.11945,2.19425 -0.78031,3.40223 -0.42661,0.77981 -1.22594,1.80327 -1.77628,2.27434 -0.55034,0.47107 -1.00062,0.93855 -1.00062,1.03885 0,0.36516 0.99553,-0.36406 1.97086,-1.44363 z m 2.26248,1.2105 c 0,-0.21828 -0.11204,-0.39687 -0.24897,-0.39687 -0.33364,0 -0.57259,0.41317 -0.3612,0.62455 0.29797,0.29797 0.61017,0.18148 0.61017,-0.22768 z m -6.68073,-0.0345 c 0.33048,-0.0886 0.59531,-0.366 0.59531,-0.62366 0,-0.63906 -1.61184,-4.23666 -1.89816,-4.23666 -0.22772,0 -2.07059,3.80474 -2.07059,4.27489 0,0.56923 2.08422,0.93093 3.37344,0.58543 z m -3.30874,-2.94713 c 0.44394,-1.0578 0.72168,-2.00875 0.6172,-2.11324 -0.32264,-0.32263 -3.716341,1.69498 -3.804553,2.26187 -0.09256,0.59481 1.392181,1.97557 1.992955,1.85339 0.212982,-0.0433 0.750458,-0.94422 1.194398,-2.00202 z m 6.01333,1.66759 c 0.26295,-0.31684 0.14176,-0.60791 -0.66094,-1.5875 -1.6532,-2.01752 -2.12682,-1.48823 -0.87985,0.98329 0.53042,1.0513 1.01276,1.24045 1.54079,0.60421 z m 1.72189,-1.98304 c 0.92912,-1.79673 1.07299,-4.56023 0.25378,-4.87459 -0.36879,-0.14152 -4.56786,1.28692 -4.9862,1.69621 -0.51714,0.50595 3.47821,4.4638 4.11118,4.07259 0.12838,-0.0793 0.40793,-0.48173 0.62124,-0.89421 z m -8.860124,-1.55696 c 1.090374,-0.68728 2.018294,-1.43546 2.062044,-1.66261 0.10018,-0.52019 -3.997658,-3.26604 -4.554994,-3.05217 -0.913868,0.35068 -1.219007,4.632 -0.400431,5.61832 0.458417,0.55236 0.706546,0.47487 2.893381,-0.90354 z m 6.218674,-2.85422 c 3.20987,-1.0562 3.35877,-1.30582 1.80489,-3.02579 -1.39072,-1.53936 -3.48549,-2.53779 -3.90394,-1.86073 -0.0807,0.13065 -0.27504,1.15953 -0.43178,2.2864 -0.27387,1.9691 -0.18496,3.2969 0.22077,3.2969 0.10587,0 1.1454,-0.31355 2.31006,-0.69678 z m -3.36898,0.10146 c 0.34697,-0.43014 0.89333,-4.5567 0.6777,-5.11861 -0.38735,-1.00941 -4.31096,0.41511 -5.303386,1.92546 -0.364032,0.55401 -0.290993,0.63624 1.821435,2.05052 1.210371,0.81035 2.276451,1.47336 2.369071,1.47336 0.0926,0 0.28845,-0.14883 0.43518,-0.33073 z m -6.541442,9.73615 c -0.513435,-0.61865 -0.220842,-1.3261 0.587026,-1.41935 0.646196,-0.0746 0.725342,0.002 0.725342,0.6993 0,0.46993 -0.16734,0.84723 -0.418515,0.94362 -0.551969,0.21181 -0.52743,0.21795 -0.893853,-0.22357 z m 0.822888,-0.54188 c 0,-0.13824 -0.127992,-0.29401 -0.284427,-0.34616 -0.156435,-0.0521 -0.284427,0.10363 -0.284427,0.34616 0,0.24254 0.127992,0.39831 0.284427,0.34617 0.156435,-0.0521 0.284427,-0.20792 0.284427,-0.34617 z m -4.736041,-5.06697 c -0.181902,-0.0751 -0.33073,-0.41035 -0.33073,-0.74505 0,-0.76426 1.007706,-1.09887 1.581449,-0.52513 0.68465,0.68465 -0.284552,1.66893 -1.250719,1.27018 z m 0.992187,-0.75386 c 0,-0.21828 -0.112036,-0.39687 -0.248968,-0.39687 -0.333634,0 -0.572584,0.41317 -0.3612,0.62455 0.29797,0.29797 0.610168,0.18148 0.610168,-0.22768 z m 19.102918,-2.30187 c -0.45157,-0.45158 -0.39387,-0.83044 0.18118,-1.18956 0.73436,-0.45862 1.61799,-0.13991 1.61799,0.58357 0,0.85851 -1.15696,1.2482 -1.79917,0.60599 z m 1.0451,-0.60855 c 0,-0.13824 -0.12799,-0.29401 -0.28442,-0.34616 -0.15644,-0.0521 -0.28443,0.10363 -0.28443,0.34616 0,0.24254 0.12799,0.39831 0.28443,0.34617 0.15643,-0.0522 0.28442,-0.20792 0.28442,-0.34617 z m -19.87122,-3.95403 c -0.714559,-0.86099 0.467974,-1.89688 1.260588,-1.10426 0.336959,0.33696 0.371466,0.5437 0.149562,0.89607 -0.386334,0.61348 -0.998752,0.7039 -1.41015,0.20819 z m 1.046119,-0.54388 c 0,-0.21828 -0.178594,-0.39688 -0.396875,-0.39688 -0.218281,0 -0.396875,0.1786 -0.396875,0.39688 0,0.21828 0.178594,0.39687 0.396875,0.39687 0.218281,0 0.396875,-0.17859 0.396875,-0.39687 z m 14.882811,-2.15961 c -0.46352,-0.18703 -0.41365,-1.32383 0.0662,-1.50795 0.6394,-0.24536 1.19062,0.10517 1.19062,0.75714 0,0.46563 -0.57031,1.05122 -0.88153,0.90516 -0.0245,-0.0115 -0.19334,-0.0809 -0.37524,-0.15435 z m 0.76729,-0.75081 c 0,-0.13824 -0.12799,-0.29402 -0.28442,-0.34616 -0.15644,-0.0521 -0.28443,0.10363 -0.28443,0.34616 0,0.24254 0.12799,0.39831 0.28443,0.34616 0.15643,-0.0521 0.28442,-0.20791 0.28442,-0.34616 z m -9.24718,-1.50812 c -0.42847,-0.42847 -0.39947,-0.88565 0.087,-1.37215 0.48893,-0.48893 1.103,-0.30205 1.32705,0.40387 0.30017,0.94578 -0.7307,1.65166 -1.41408,0.96828 z m 1.00541,-0.60855 c 0,-0.21828 -0.17859,-0.39687 -0.39687,-0.39687 -0.21828,0 -0.39688,0.17859 -0.39688,0.39687 0,0.21829 0.1786,0.39688 0.39688,0.39688 0.21828,0 0.39687,-0.17859 0.39687,-0.39688 z"
         style="fill:#b5f197;stroke-width:0.26458335" />
      <path
         id="path29"
         d="m 97.794232,139.8709 c 0.430078,-1.01067 0.78196,-2.01299 0.78196,-2.22738 0,-0.21439 -0.386953,-0.63199 -0.859895,-0.928 -1.123613,-0.70327 -2.19162,-2.08171 -3.027483,-3.90747 -0.596355,-1.30261 -0.659328,-1.72087 -0.546257,-3.62815 0.07915,-1.33515 0.329321,-2.60903 0.657177,-3.34642 0.6912,-1.55459 2.35201,-3.23874 4.098098,-4.15569 1.226818,-0.64426 1.689958,-0.73437 3.779398,-0.73533 1.86241,-8.5e-4 2.64361,0.12 3.58532,0.55468 2.45482,1.13312 4.1085,3.09388 4.89705,5.8064 0.58061,1.99723 0.38273,3.88864 -0.63421,6.06178 -0.73345,1.56734 -1.05793,1.95341 -3.05188,3.63106 l -0.75998,0.63943 0.82612,1.88224 c 0.45437,1.03524 0.82613,1.95159 0.82613,2.03634 0,0.0847 -2.55454,0.15409 -5.67676,0.15409 h -5.676749 z m 9.100648,0.80462 c 0.0813,-0.13156 -0.07,-0.75218 -0.3363,-1.37916 l -0.48415,-1.13996 -3.33586,-0.0248 -3.335863,-0.0248 -0.432746,1.13313 c -0.238011,0.62322 -0.357419,1.25502 -0.265351,1.40399 0.2098,0.33946 7.98147,0.36949 8.19027,0.0316 z m -1.9434,-3.649 c 0.11797,-0.11797 -0.84539,-0.21411 -2.14079,-0.21366 -2.21213,7.7e-4 -2.68275,0.15871 -1.45637,0.48874 0.71458,0.1923 3.32976,-0.008 3.59716,-0.27508 z m 3.53307,-2.21709 c 1.44664,-1.60126 2.07571,-3.19894 2.07571,-5.27179 0,-3.03263 -1.60598,-5.59652 -4.44344,-7.09379 -1.9275,-1.01711 -4.69136,-1.00621 -6.794927,0.0268 -4.829937,2.37186 -5.938936,8.76686 -2.173335,12.53246 0.632019,0.63202 1.328192,1.14913 1.547052,1.14913 0.224473,0 -0.135957,-0.49016 -0.826878,-1.12448 -2.617052,-2.40269 -3.232058,-5.82617 -1.607644,-8.9491 2.769578,-5.3245 10.287912,-5.25838 13.102432,0.11523 0.59084,1.12805 0.71122,1.69709 0.70738,3.34376 -0.004,1.69065 -0.11945,2.19425 -0.78031,3.40223 -0.42661,0.77981 -1.22594,1.80327 -1.77628,2.27434 -0.55034,0.47107 -1.00062,0.93855 -1.00062,1.03885 0,0.36516 0.99553,-0.36406 1.97086,-1.44363 z m -4.41825,1.17603 c 0.33048,-0.0886 0.59531,-0.366 0.59531,-0.62366 0,-0.63906 -1.61184,-4.23666 -1.89816,-4.23666 -0.22772,0 -2.07059,3.80474 -2.07059,4.27489 0,0.56923 2.08422,0.93093 3.37344,0.58543 z m -3.6772,-2.05525 c 0.28311,-0.64002 0.77819,-1.91994 1.10016,-2.84427 0.64107,-1.84035 1.17799,-2.60195 1.54986,-2.19842 0.12836,0.13929 0.54954,1.08669 0.93596,2.10533 1.06746,2.81398 1.70679,4.10104 2.03713,4.10104 0.37158,0 2.16458,-1.78166 2.57567,-2.55937 0.16716,-0.31625 0.42761,-1.15169 0.57878,-1.85654 0.23131,-1.07858 0.18821,-1.55271 -0.27211,-2.99367 -0.96499,-3.02066 -2.98869,-4.52049 -6.19171,-4.58887 -2.45379,-0.0524 -3.921118,0.74948 -5.372387,2.93591 -0.939026,1.4147 -1.003219,1.63914 -1.003219,3.50751 0,1.66939 0.09743,2.11996 0.595312,2.75291 0.327422,0.41625 0.595313,0.90877 0.595313,1.09449 0,0.42164 1.500366,1.70763 1.992294,1.70763 0.200307,0 0.595837,-0.52365 0.878947,-1.16368 z"
         style="fill:#67c7c9;stroke-width:0.26458335" />
      <path
         id="path27"
         d="m 97.32787,141.37775 c 0.07217,-0.1819 0.469991,-1.15089 0.884058,-2.1533 l 0.752848,-1.82256 -0.651058,-0.42639 c -1.506977,-0.98696 -2.422891,-2.02926 -3.237819,-3.68462 -0.745525,-1.51437 -0.865332,-2.03402 -0.865332,-3.75324 0,-1.71922 0.119807,-2.23886 0.865332,-3.75324 0.995458,-2.02206 2.200008,-3.18733 4.28197,-4.14235 1.809011,-0.82981 4.251621,-0.91296 6.288051,-0.21405 1.74198,0.59785 3.84667,2.46538 4.78374,4.24472 0.62737,1.19125 0.71185,1.64922 0.71297,3.86492 0.001,2.34333 -0.0579,2.62253 -0.87191,4.12295 -0.56707,1.0452 -1.3323,1.95954 -2.18281,2.60815 -0.74969,0.57172 -1.30963,1.21102 -1.30963,1.49523 0,0.27307 0.35718,1.23386 0.79375,2.1351 0.43656,0.90123 0.79375,1.67703 0.79375,1.724 0,0.047 -2.51305,0.0854 -5.58456,0.0854 -4.361237,0 -5.555817,-0.0725 -5.45335,-0.33073 z m 9.70918,-0.92604 c -0.003,-0.25467 -0.23893,-0.9767 -0.52385,-1.60451 l -0.51803,-1.14149 -1.26209,0.20215 c -0.69415,0.11118 -1.79788,0.17 -2.45272,0.1307 -0.65484,-0.0393 -1.54781,-0.0928 -1.98438,-0.11899 -0.7039,-0.0422 -0.862219,0.0958 -1.398682,1.21891 -0.332715,0.69656 -0.534048,1.38117 -0.447406,1.52136 0.09037,0.14621 1.955778,0.25489 4.375248,0.25489 3.8427,0 4.2172,-0.0412 4.21191,-0.46302 z m -1.96299,-3.36503 c 0.28248,-0.21365 0.42429,-0.40001 0.31515,-0.41413 -0.9087,-0.11755 -5.01911,-0.0212 -5.1613,0.12101 -0.70198,0.70198 3.93479,0.98244 4.84615,0.29312 z m -5.842274,-0.94394 c -0.09316,-0.15074 -0.749393,-0.8166 -1.45829,-1.47969 -3.807879,-3.56183 -2.604381,-9.85774 2.273994,-11.89606 1.46638,-0.61269 4.00811,-0.54872 5.56762,0.14013 2.55947,1.13054 4.05212,3.22271 4.27434,5.99115 0.19344,2.40989 -0.45975,4.12561 -2.22787,5.85184 -1.51594,1.48003 -1.62977,1.6667 -1.01636,1.6667 0.73994,0 2.59322,-1.97653 3.34917,-3.57188 1.38204,-2.91667 0.90112,-6.17082 -1.26863,-8.58409 -2.55726,-2.8443 -6.09097,-3.55909 -9.441243,-1.90976 -2.985347,1.46968 -4.508855,3.89559 -4.513275,7.18656 -0.0022,1.66086 0.119178,2.22162 0.7447,3.43959 0.835125,1.62608 2.619567,3.43958 3.384473,3.43958 0.278022,0 0.425415,-0.12191 0.331371,-0.27407 z m 5.275894,-0.15111 c 0.23018,-0.0883 0.41851,-0.31642 0.41851,-0.50687 0,-0.56202 -1.90595,-4.6242 -2.16964,-4.6242 -0.3047,0 -2.06369,3.82752 -2.06369,4.49053 0,0.27085 0.14883,0.55251 0.33073,0.62591 0.47825,0.19298 2.99181,0.20353 3.48409,0.0146 z m -3.92743,-2.15451 c 0.37096,-0.83674 0.91556,-2.26549 1.21023,-3.175 0.31939,-0.98579 0.68535,-1.65364 0.90615,-1.65364 0.3822,0 0.93777,1.10189 1.60083,3.175 0.51624,1.61406 1.22331,2.98257 1.60497,3.10636 0.4543,0.14736 2.45721,-1.99653 3.02569,-3.23866 0.95706,-2.09115 0.30995,-5.42483 -1.39436,-7.18322 -2.27531,-2.34753 -6.32134,-2.63885 -8.864656,-0.63828 -1.019271,0.80176 -2.148384,2.66365 -2.460839,4.05789 -0.302258,1.34874 -6.05e-4,3.40948 0.608388,4.15622 0.179934,0.22063 0.476242,0.6988 0.658462,1.0626 0.314449,0.6278 1.785352,1.85209 2.225167,1.85209 0.113025,0 0.509008,-0.68461 0.879968,-1.52136 z"
         style="fill:#4dbdc1;stroke-width:0.26458335" />
      <path
         id="path25"
         d="m 97.253276,141.59994 c 0,-0.0597 0.357093,-0.86337 0.793541,-1.78594 0.436448,-0.92257 0.793635,-1.82546 0.79375,-2.00643 1.15e-4,-0.18096 -0.81431,-1.13346 -1.809833,-2.11666 -2.103195,-2.07717 -2.687875,-3.41565 -2.687875,-6.15327 0,-2.64286 0.603213,-4.08375 2.509461,-5.99434 1.269442,-1.27233 1.935815,-1.72101 3.045385,-2.05052 4.301105,-1.27729 8.642265,0.49326 10.503735,4.28396 0.63887,1.30099 0.74171,1.82573 0.73709,3.7609 -0.005,1.98392 -0.10117,2.43605 -0.81831,3.83646 -0.54123,1.0569 -1.26109,1.94123 -2.15376,2.64583 -0.73745,0.58209 -1.40743,1.20757 -1.48884,1.38997 -0.15635,0.35031 1.12473,3.57464 1.48013,3.72531 0.11441,0.0485 0.20803,0.19734 0.20803,0.33073 0,0.13929 -2.36522,0.24254 -5.55625,0.24254 -3.055942,0 -5.556254,-0.0488 -5.556254,-0.10854 z m 9.767344,-0.7907 c 0.2385,-0.28738 0.17183,-0.65507 -0.29837,-1.64543 l -0.6055,-1.27536 -3.38856,-0.0121 -3.388572,-0.0121 -0.514005,1.16199 c -0.59888,1.35387 -0.639636,1.79369 -0.183275,1.97783 0.181901,0.0734 2.072322,0.14285 4.200932,0.15434 3.01242,0.0163 3.93829,-0.0611 4.17735,-0.34918 z m -2.39849,-3.35998 c 1.63844,-0.57116 0.966,-0.90591 -1.81982,-0.90591 -2.18934,0 -2.63998,0.0678 -2.5783,0.38815 0.14169,0.73571 2.85622,1.05527 4.39812,0.51776 z m -5.365126,-1.06376 c 0.105,-0.1699 -0.342899,-0.74532 -1.051806,-1.35128 -1.622813,-1.38713 -2.322426,-2.80599 -2.482388,-5.03443 -0.212358,-2.95835 1.216472,-5.57212 3.753594,-6.86646 1.345586,-0.68647 3.972636,-0.91734 5.345366,-0.46976 2.56236,0.83546 4.61053,3.18376 4.99126,5.72265 0.36756,2.45104 -0.91301,5.62764 -2.75736,6.83996 -0.71923,0.47277 -1.1266,1.45521 -0.6034,1.45521 0.54999,0 2.2031,-1.43596 2.94832,-2.56103 1.83446,-2.76954 1.99373,-5.2433 0.53,-8.23212 -1.35248,-2.76163 -4.22097,-4.55268 -7.29145,-4.55268 -2.714994,0 -5.810013,1.98807 -7.191769,4.61959 -0.596368,1.13576 -0.700764,1.66707 -0.703925,3.58249 -0.0033,2.00213 0.08243,2.40448 0.781121,3.66591 0.712047,1.28554 2.816098,3.47784 3.337845,3.47784 0.116444,0 0.294011,-0.13315 0.394592,-0.29589 z m 5.437566,-0.38593 c 0.15671,-0.0969 0.22208,-0.48909 0.14526,-0.87162 -0.25382,-1.2639 -1.73691,-4.26739 -2.10719,-4.26739 -0.42964,0 -2.40382,4.38752 -2.15519,4.78981 0.4321,0.69915 3.17452,0.93175 4.11712,0.3492 z m -4.22796,-1.76557 c 0.31805,-0.61847 0.89022,-2.00893 1.27151,-3.08993 0.38128,-1.08099 0.81407,-2.00572 0.96174,-2.05494 0.26122,-0.0871 0.92964,1.22919 1.30263,2.56518 0.45534,1.63092 1.54843,3.70406 1.95202,3.70218 0.46807,-0.002 2.42727,-1.90668 2.90302,-2.82197 0.16438,-0.31625 0.42255,-1.15169 0.57371,-1.85654 0.55119,-2.57013 -1.17435,-5.92321 -3.7113,-7.21179 -2.07545,-1.05418 -4.9673,-0.84617 -6.847324,0.49253 -1.620517,1.15391 -2.942257,3.70933 -2.942257,5.68849 0,2.03414 2.309314,5.71127 3.586798,5.71127 0.204159,0 0.631413,-0.50602 0.949453,-1.12448 z"
         style="fill:#42b9bd;stroke-width:0.26458335" />
      <path
         id="path23"
         d="m 97.728602,140.65435 c 0.435061,-0.76213 0.455715,-0.76902 0.594672,-0.19844 0.140692,0.5777 0.241322,0.59276 4.437866,0.66384 4.25096,0.072 4.29632,0.0667 4.53562,-0.52917 0.13295,-0.33104 0.24927,-0.46157 0.2585,-0.29007 0.009,0.17151 0.20386,0.49893 0.43254,0.72761 0.37798,0.37798 -0.0899,0.41577 -5.14707,0.41577 h -5.562843 z m 8.950068,-1.73423 c -0.25532,-0.66534 -0.18,-0.83702 0.1319,-0.30065 0.15444,0.26557 0.22506,0.5386 0.15694,0.60672 -0.0681,0.0681 -0.1981,-0.0696 -0.28884,-0.30607 z m -7.725943,-0.8829 c 0.09741,-0.15761 0.04835,-0.52714 -0.109025,-0.82119 -0.229348,-0.42854 -0.205524,-0.53464 0.120056,-0.53464 0.599544,0 0.493505,-0.73549 -0.202095,-1.40175 -0.334554,-0.32044 -0.414476,-0.43379 -0.177604,-0.25189 0.665188,0.51082 1.467781,0.39263 1.796751,-0.26459 0.27434,-0.54806 0.28495,-0.5343 0.13371,0.17346 -0.12209,0.57136 -0.0394,0.86012 0.32219,1.12448 0.44984,0.32894 0.43054,0.35571 -0.25643,0.35571 -0.60682,0 -0.718123,0.0947 -0.607678,0.51704 0.09253,0.35382 -0.07507,0.65483 -0.530885,0.95349 -0.366352,0.24004 -0.586398,0.30749 -0.48899,0.14988 z m 3.393783,-0.21529 c 0.25466,-0.0666 0.67138,-0.0666 0.92604,0 0.25466,0.0665 0.0463,0.121 -0.46302,0.121 -0.50933,0 -0.71769,-0.0545 -0.46302,-0.121 z m 3.63795,-0.0859 c -0.21824,-0.13687 -0.63493,-0.18636 -0.92598,-0.10997 -0.4782,0.12551 -0.48457,0.11092 -0.0661,-0.15148 0.70598,-0.44273 0.57355,-1.05782 -0.22775,-1.05782 h -0.69077 l 0.5937,-0.48075 c 0.49837,-0.40356 0.54556,-0.5707 0.29389,-1.04094 -0.16489,-0.3081 -0.29503,-0.65731 -0.28921,-0.77602 0.006,-0.11871 0.18823,0.11159 0.40533,0.51177 0.56811,1.0472 1.2701,0.90782 2.66524,-0.52916 0.67109,-0.69123 1.08722,-0.99936 0.92474,-0.68474 -0.16249,0.31462 -0.84837,1.04467 -1.52418,1.62233 -1.13625,0.97124 -1.35769,1.64209 -0.54201,1.64209 0.55821,0 2.33992,-1.64212 3.12518,-2.88035 0.41577,-0.6556 0.75543,-1.07939 0.75481,-0.94176 -0.002,0.54825 -1.53895,2.5206 -2.64597,3.39662 -0.64527,0.51062 -1.23641,1.10854 -1.31364,1.32872 -0.0992,0.28281 -0.25689,0.32727 -0.53724,0.15146 z m -8.803454,-1.86792 c -0.926664,-0.76383 -2.323182,-2.77662 -2.297287,-3.31105 0.0064,-0.13274 0.254774,0.21951 0.551873,0.78278 0.297098,0.56327 1.076669,1.54554 1.73238,2.18282 1.395585,1.35635 1.400597,1.4892 0.01303,0.34545 z m 0.01498,-2.03104 c -0.543367,-0.62293 -1.120263,-1.75855 -0.789495,-1.55413 0.261288,0.16149 1.434897,2.01715 1.27574,2.01715 -0.0453,0 -0.264109,-0.20836 -0.486245,-0.46302 z m 6.836854,-1.00241 c -0.25532,-0.66535 -0.18,-0.83703 0.1319,-0.30066 0.15444,0.26558 0.22506,0.5386 0.15693,0.60672 -0.0681,0.0681 -0.19809,-0.0696 -0.28883,-0.30606 z m -0.78292,-1.61508 c -0.41168,-0.55176 -0.54944,-0.59845 -0.90452,-0.30654 -0.37242,0.30616 -0.3987,0.24258 -0.23699,-0.57343 0.28423,-1.43431 0.6003,-1.50772 1.2244,-0.28438 0.68347,1.33971 0.62811,2.11727 -0.0829,1.16435 z M 95.68666,130.177 c 0.01269,-0.30822 0.07539,-0.37092 0.159852,-0.15985 0.07643,0.191 0.06703,0.4192 -0.02089,0.50712 -0.08792,0.0879 -0.150453,-0.0683 -0.138964,-0.34727 z m 0,-1.32291 c 0.01269,-0.30823 0.07539,-0.37092 0.159852,-0.15986 0.07643,0.191 0.06703,0.4192 -0.02089,0.50712 -0.08792,0.0879 -0.150453,-0.0684 -0.138964,-0.34726 z m 13.47287,-1.43316 c -0.1847,-0.4459 -0.27628,-0.87025 -0.20352,-0.94301 0.0728,-0.0728 0.2834,0.23253 0.4681,0.67842 0.1847,0.4459 0.27628,0.87025 0.20352,0.94301 -0.0728,0.0728 -0.28341,-0.23253 -0.4681,-0.67842 z m -12.318499,-1.77226 c 0.226426,-0.46542 0.798763,-1.13247 1.271858,-1.48232 1.319855,-0.97604 1.756511,-1.13741 0.773966,-0.28604 -0.483978,0.41937 -1.234908,1.17921 -1.668734,1.68853 l -0.788775,0.92604 z m 13.113899,-0.0758 c -0.18378,-0.4437 -0.98331,-1.40001 -1.77673,-2.12515 -0.79341,-0.72514 -1.36834,-1.31843 -1.27762,-1.31843 0.0907,0 0.76556,0.5618 1.49964,1.24844 1.25549,1.17437 2.26438,2.62635 2.00505,2.88567 -0.0639,0.0639 -0.26655,-0.24683 -0.45034,-0.69053 z m -1.827,-0.28901 c -0.33108,-0.4478 -1.15068,-1.16217 -1.82135,-1.5875 -0.67067,-0.42533 -1.10352,-0.77332 -0.96189,-0.77332 0.58132,0 2.85478,1.85836 3.31775,2.71198 0.38945,0.71806 0.12996,0.54759 -0.53451,-0.35116 z M 95.548332,125.172 c 0.248631,-0.43656 0.70419,-1.07842 1.012352,-1.42635 0.632077,-0.71363 2.766631,-2.14683 3.191784,-2.14304 0.153411,0.001 -0.329675,0.35155 -1.073524,0.77819 -1.265159,0.72564 -1.917887,1.34361 -3.099483,2.93442 -0.47813,0.64372 -0.478455,0.64222 -0.03113,-0.14322 z m 7.261198,-2.51354 c -0.64316,-0.20598 -0.6395,-0.21184 0.13229,-0.21184 0.43656,0 1.0914,0.0953 1.45521,0.21184 0.64315,0.20597 0.63949,0.21183 -0.1323,0.21183 -0.43656,0 -1.0914,-0.0953 -1.4552,-0.21183 z m 0.47955,-1.50366 c 0.191,-0.0764 0.4192,-0.067 0.50712,0.0209 0.0879,0.0879 -0.0683,0.15045 -0.34726,0.13896 -0.30823,-0.0127 -0.37092,-0.0754 -0.15986,-0.15985 z"
         style="fill:#2fb3b5;stroke-width:0.26458335" />
    </g>
  </g>
</svg>
