<?xml version="1.0" encoding="UTF-8"?>
<svg width="512" height="512" viewBox="0 0 305.934 305.934" xmlns="http://www.w3.org/2000/svg">
    <g fill="#ff8400">
        <path d="M34.99 160.926c0 20.143 5.058 39.105 13.962 55.686l93.405-53.925-94.8-54.735a117.512 117.512 0 0 0-12.568 52.974zm29.57 29.137c-2.97 1.403-6.112 2.304-9.29 3.102-1.41.357-5.216 1.005-5.783-1.108-.557-2.082 3.047-3.5 4.453-3.853 2.296-.58 4.47-1.18 6.618-2.195 1.71-.814 5.217-1.528 6.765.046 1.65 1.672-1.65 3.48-2.762 4.007zm40.502-36.552a8.01 8.01 0 0 1 0 16.023 8.012 8.012 0 0 1-8.013-8.01c-.007-4.43 3.584-8.012 8.012-8.012zm-22.116 12.035c0 6.66-5.393 12.044-12.047 12.044-6.652 0-12.05-5.397-12.05-12.045s5.393-12.042 12.05-12.042c6.653 0 12.046 5.388 12.046 12.042zm-24.097-41.57c4.43 0 8.018 3.583 8.018 8.014 0 4.426-3.588 8.01-8.02 8.01a8.01 8.01 0 0 1-8.01-8.01c0-4.424 3.584-8.015 8.01-8.015zM43.886 158.71c-6.876 0 .917-4.98 4.205-4.98 6.876 0-.917 4.98-4.205 4.98zM147.665 37.117v-21.21C97.727 17.71 54.153 44.843 29.427 84.833l18.377 10.61c21.036-33.66 57.755-56.545 99.86-58.326zM268.74 79.542l18.377-10.61C262.397 28.936 218.817 1.802 168.88 0v21.21c42.103 1.78 78.82 24.666 99.86 58.332zM275.238 239.002l-18.382-10.615c-21.22 32.575-57.317 54.598-98.587 56.338v21.21c49.104-1.772 92.04-28.04 116.968-66.933zM263.36 104.68a123.11 123.11 0 0 1 13.55 56.246c0 21.086-5.307 40.95-14.633 58.348l18.383 10.615c11.128-20.527 17.455-44.026 17.455-68.964 0-24.104-5.935-46.833-16.378-66.862L263.36 104.68z"/>
        <path d="M43.66 219.273a123.264 123.264 0 0 1-14.63-58.348c0-20.25 4.91-39.354 13.553-56.252L24.2 94.06c-10.44 20.027-16.38 42.757-16.38 66.856 0 24.942 6.327 48.436 17.457 68.962l18.383-10.605zM147.665 305.934v-21.21c-41.267-1.744-77.36-23.762-98.586-56.337L30.7 239.002c24.924 38.893 67.863 65.16 116.963 66.932zM147.665 43.082c-40.097 1.77-74.98 23.558-94.923 55.616l94.923 54.805V43.083zM89.18 101.98c-6.648 0-12.042-5.393-12.042-12.042 0-6.654 5.393-12.047 12.042-12.047 6.654 0 12.047 5.394 12.047 12.048.005 6.655-5.393 12.042-12.047 12.042zm35.94 21.995a8.012 8.012 0 0 1 0-16.023c4.426 0 8.017 3.586 8.017 8.013a8.016 8.016 0 0 1-8.018 8.01zm-.32-29.82c-1.524-1.89-3.254-2.865-5.57-3.496-2.323-.636-2.784-3.103-1.29-4.8 1.754-1.987 4.75-2.624 7.243-1.938 3.602.984 6.66 2.874 9.007 5.784 3.222 3.977-6.547 7.964-9.39 4.448zm4.037-19.025a8.013 8.013 0 0 1 0-16.024c4.427 0 8.018 3.583 8.018 8.01 0 4.43-3.59 8.014-8.018 8.014zM270.945 160.926c0-19.06-4.54-37.042-12.567-52.975l-94.8 54.736 93.407 53.936c8.9-16.59 13.96-35.554 13.96-55.696zm-16.016-34.19c6.855 0-1.25 4.62-4.3 4.62-6.844-.005 1.254-4.62 4.3-4.62zM204.91 170.3a8.012 8.012 0 0 1-8.012-8.017c0-4.423 3.59-8.01 8.01-8.01a8.01 8.01 0 0 1 8.017 8.01 8.01 8.01 0 0 1-8.016 8.016zm22.032-16.147c5.007 0-4.54 4.132-6.654 4.132-5.002 0 4.546-4.132 6.654-4.132zm-4.614 26.346c-6.928 0-.145-6.137 3.9-6.137 6.933-.006.14 6.136-3.9 6.136zm21.116 20.09a8.01 8.01 0 0 1-8.016-8.016c0-4.422 3.594-8.005 8.016-8.005 4.428 0 8.016 3.582 8.016 8.004a8.012 8.012 0 0 1-8.016 8.016zm4.034-31.67c-6.648 0-12.04-5.39-12.04-12.038 0-6.654 5.392-12.047 12.04-12.047 6.653 0 12.05 5.393 12.05 12.047-.01 6.653-5.402 12.04-12.05 12.04z"/>
        <path d="M147.665 278.77V171.873l-93.273 53.852c20.19 30.644 54.263 51.315 93.273 53.045zm-16.91-8.544c-6.902 0 .61-5.317 4.117-5.317 6.902-.002-.61 5.316-4.117 5.316zm-1.918-69.636c4.427 0 8.018 3.584 8.018 8.01 0 4.43-3.59 8.012-8.018 8.012a8.012 8.012 0 0 1 0-16.022zm-20.612 18.745c6.937 0 .32 6.328-3.847 6.328-6.93 0-.318-6.328 3.847-6.328zm4.847 10.554c6.656 0 12.047 5.39 12.047 12.043s-5.392 12.044-12.048 12.044c-6.65 0-12.042-5.396-12.042-12.044 0-6.655 5.393-12.044 12.042-12.044zm-34.162-9.24c4.427 0 8.018 3.583 8.018 8.01 0 4.428-3.59 8.012-8.018 8.012a8.01 8.01 0 0 1 0-16.022zM251.542 225.725l-93.273-53.852V278.77c39.017-1.73 73.09-22.4 93.272-53.045zm-76.04 36.262a8.013 8.013 0 0 1-8.01-8.01 8.01 8.01 0 0 1 8.01-8.017 8.017 8.017 0 0 1 8.02 8.016c0 4.422-3.593 8.01-8.02 8.01zm5.42-33.32c-6.647 0-12.048-5.397-12.048-12.045 0-6.65 5.39-12.045 12.05-12.045 6.653 0 12.044 5.396 12.044 12.045 0 6.65-5.39 12.044-12.045 12.044zm12.186 17.744c-4.986 0 4.582-4.08 6.67-4.08 4.975 0-4.583 4.08-6.67 4.08zm30.276-8.516c-4.428 0-8.016-3.583-8.016-8.005a8.016 8.016 0 0 1 8.016-8.018 8.013 8.013 0 0 1 8.016 8.017c0 4.42-3.59 8.004-8.016 8.004zM168.875 27.175v110.42L263.8 82.792c-19.94-32.057-54.82-53.844-94.925-55.615zm30.72 15.907c4.434 0 8.017 3.583 8.017 8.01s-3.583 8.014-8.016 8.014a8.013 8.013 0 0 1-8.01-8.013 8.004 8.004 0 0 1 8.01-8.01zm-17.18-7.498c6.934 0 .61 6.64-3.76 6.64-6.933 0-.61-6.64 3.76-6.64zm5.136 74.754c-6.647 0-12.048-5.393-12.048-12.042 0-6.65 5.39-12.042 12.05-12.042 6.653 0 12.044 5.393 12.044 12.042 0 6.65-5.39 12.042-12.045 12.042zm12.346-35.744c-2.02 1.598-5.183 2.032-7.373.53-2.263-1.552-5.1-1.936-7.74-2.454-2.218-.44-4.294-2.18-3.217-4.65 1.025-2.335 4.204-3.708 6.648-3.226 4.25.844 8.503 1.678 12.138 4.174 2.164 1.48 1.284 4.254-.456 5.626zm6.618 18.755c-6.93 0-.77-6.815 3.718-6.815 6.93-.006.77 6.814-3.718 6.814zm16.87-11.137c-4.428 0-8.016-3.583-8.016-8.01s3.594-8.014 8.016-8.014a8.012 8.012 0 0 1 0 16.024zm14.13-3.484c-4.985 0 4.584-4.087 6.67-4.087 4.987-.005-4.582 4.086-6.67 4.086z"/>
    </g>
</svg>
