<?xml version="1.0" encoding="UTF-8"?>
<svg width="84.188mm" height="84.188mm" version="1.1" viewBox="0 0 84.187897 84.187897" xmlns="http://www.w3.org/2000/svg" xmlns:cc="http://creativecommons.org/ns#" xmlns:dc="http://purl.org/dc/elements/1.1/" xmlns:rdf="http://www.w3.org/1999/02/22-rdf-syntax-ns#">
  <metadata>
    <rdf:RDF>
      <cc:Work rdf:about="">
        <dc:format>image/svg+xml</dc:format>
        <dc:type rdf:resource="http://purl.org/dc/dcmitype/StillImage"/>
        <dc:title/>
      </cc:Work>
    </rdf:RDF>
  </metadata>
  <g transform="translate(-36.525 -47.775)">
    <path d="m81.353 119.87c-0.50776-0.51481-19.231-47.257-19.12-47.732 0.0846-0.36203 1.0294-0.78328 3.8513-1.7171 9.8148-3.2478 21.299-3.1771 31.136 0.19188 3.8268 1.3106 4.1197 1.1825 4.1173 1.5301-4e-3 0.50071-19.381 46.773-19.985 47.727 0 0 0.17885 0.18134 0 0zm2.7192-22.5c0.62754-1.9256-1.1764-4.1954-3.2529-4.093-2.2762 0.11228-3.6809 2.104-3.0114 4.2698 0.43767 1.4158 1.5454 2.176 3.1875 2.1873 1.5258-0.05572 2.5775-0.91662 3.0768-2.3642zm8.5157-13.463c0.53478-4.3327-4.2326-6.2816-7.0028-4.4392-5.8034 5.6503 5.0655 11.257 7.0028 4.4392zm-17.608-8.2282c-3.6342-1.1293-6.3401 3.4137-3.6566 6.1392 5.033 4.3538 8.1111-4.3844 3.6566-6.1392zm27.584-5.5965c-0.17561 0.0402-1.8314-0.42818-3.6796-1.0408-11.401-2.5016-23.625-2.7477-34.315-0.05071l-3.5522 0.95223c-1.3886-6.5178-1.5123-5.8298 5.9239-7.5844 10.454-2.6311 23.888-2.285 33.766 1.1854 3.5501 1.0179 3.2341 1.5715 1.8567 6.5383z" fill="#ff8400" stroke-width=".26458"/>
  </g>
</svg>